AnekKannada-ExtraBold.ufo
<glyph name="five" format="2">
  <advance width="1114"/>
  <unicode hex="0035"/>
  <outline>
    <contour>
      <point x="512" y="-29" type="curve" smooth="yes"/>
      <point x="921" y="-29"/>
      <point x="1056" y="145"/>
      <point x="1056" y="422" type="curve" smooth="yes"/>
      <point x="1056" y="455" type="line" smooth="yes"/>
      <point x="1056" y="702"/>
      <point x="956" y="844"/>
      <point x="731" y="844" type="curve" smooth="yes"/>
      <point x="553" y="844"/>
      <point x="467" y="769"/>
      <point x="428" y="653" type="curve"/>
      <point x="417" y="653" type="line"/>
      <point x="420" y="814" type="line"/>
      <point x="420" y="982" type="line"/>
      <point x="1008" y="982" type="line"/>
      <point x="1008" y="1278" type="line"/>
      <point x="90" y="1278" type="line"/>
      <point x="90" y="517" type="line"/>
      <point x="396" y="470" type="line"/>
      <point x="431" y="526"/>
      <point x="486" y="572"/>
      <point x="575" y="572" type="curve" smooth="yes"/>
      <point x="669" y="572"/>
      <point x="708" y="530"/>
      <point x="708" y="446" type="curve" smooth="yes"/>
      <point x="708" y="429" type="line" smooth="yes"/>
      <point x="708" y="335"/>
      <point x="660" y="277"/>
      <point x="477" y="277" type="curve" smooth="yes"/>
      <point x="325" y="277"/>
      <point x="178" y="320"/>
      <point x="84" y="360" type="curve"/>
      <point x="114" y="42" type="line"/>
      <point x="192" y="9"/>
      <point x="337" y="-29"/>
    </contour>
  </outline>
</glyph>
<glyph name="equal" format="2">
  <advance width="1039"/>
  <unicode hex="003D"/>
  <outline>
    <contour>
      <point x="949" y="274" type="line"/>
      <point x="949" y="548" type="line"/>
      <point x="90" y="548" type="line"/>
      <point x="90" y="274" type="line"/>
    </contour>
    <contour>
      <point x="949" y="689" type="line"/>
      <point x="949" y="963" type="line"/>
      <point x="90" y="963" type="line"/>
      <point x="90" y="689" type="line"/>
    </contour>
  </outline>
</glyph>
<glyph name="P" format="2">
  <advance width="1203"/>
  <unicode hex="0050"/>
  <anchor x="602" y="0" name="bottom"/>
  <anchor x="602" y="1278" name="top"/>
  <outline>
    <contour>
      <point x="664" y="343" type="line" smooth="yes"/>
      <point x="1000" y="343"/>
      <point x="1154" y="491"/>
      <point x="1154" y="773" type="curve" smooth="yes"/>
      <point x="1154" y="847" type="line" smooth="yes"/>
      <point x="1154" y="1127"/>
      <point x="1000" y="1278"/>
      <point x="662" y="1278" type="curve" smooth="yes"/>
      <point x="348" y="1278" type="line"/>
      <point x="348" y="988" type="line"/>
      <point x="630" y="988" type="line" smooth="yes"/>
      <point x="748" y="988"/>
      <point x="796" y="941"/>
      <point x="796" y="836" type="curve" smooth="yes"/>
      <point x="796" y="785" type="line" smooth="yes"/>
      <point x="796" y="680"/>
      <point x="748" y="634"/>
      <point x="630" y="634" type="curve" smooth="yes"/>
      <point x="348" y="634" type="line"/>
      <point x="348" y="343" type="line"/>
    </contour>
    <contour>
      <point x="460" y="0" type="line"/>
      <point x="460" y="388" type="line"/>
      <point x="458" y="553" type="line"/>
      <point x="458" y="1278" type="line"/>
      <point x="104" y="1278" type="line"/>
      <point x="104" y="0" type="line"/>
    </contour>
  </outline>
</glyph>
<glyph name="T" format="2">
  <advance width="1142"/>
  <unicode hex="0054"/>
  <anchor x="571" y="0" name="bottom"/>
  <anchor x="571" y="639" name="center"/>
  <anchor x="571" y="1278" name="top"/>
  <outline>
    <contour>
      <point x="753" y="0" type="line"/>
      <point x="753" y="1207" type="line"/>
      <point x="390" y="1207" type="line"/>
      <point x="390" y="0" type="line"/>
    </contour>
    <contour>
      <point x="1095" y="977" type="line"/>
      <point x="1095" y="1278" type="line"/>
      <point x="47" y="1278" type="line"/>
      <point x="47" y="977" type="line"/>
    </contour>
  </outline>
</glyph>
<glyph name="asciicircum" format="2">
  <advance width="934"/>
  <unicode hex="005E"/>
  <outline>
    <contour>
      <point x="17" y="607" type="line"/>
      <point x="314" y="607" type="line"/>
      <point x="461" y="1092" type="line"/>
      <point x="475" y="1092" type="line"/>
      <point x="621" y="607" type="line"/>
      <point x="917" y="607" type="line"/>
      <point x="694" y="1278" type="line"/>
      <point x="240" y="1278" type="line"/>
    </contour>
  </outline>
</glyph>
<glyph name="p" format="2">
  <advance width="1152"/>
  <unicode hex="0070"/>
  <anchor x="588" y="0" name="bottom"/>
  <anchor x="588" y="985" name="top"/>
  <outline>
    <contour>
      <point x="734" y="-24" type="curve" smooth="yes"/>
      <point x="975" y="-24"/>
      <point x="1090" y="135"/>
      <point x="1090" y="446" type="curve" smooth="yes"/>
      <point x="1090" y="551" type="line" smooth="yes"/>
      <point x="1090" y="857"/>
      <point x="972" y="1009"/>
      <point x="745" y="1009" type="curve" smooth="yes"/>
      <point x="553" y="1009"/>
      <point x="473" y="903"/>
      <point x="445" y="767" type="curve"/>
      <point x="353" y="767" type="line"/>
      <point x="434" y="623" type="line"/>
      <point x="456" y="681"/>
      <point x="516" y="727"/>
      <point x="593" y="727" type="curve" smooth="yes"/>
      <point x="688" y="727"/>
      <point x="734" y="672"/>
      <point x="734" y="558" type="curve" smooth="yes"/>
      <point x="734" y="438" type="line" smooth="yes"/>
      <point x="734" y="325"/>
      <point x="685" y="268"/>
      <point x="591" y="268" type="curve" smooth="yes"/>
      <point x="494" y="268"/>
      <point x="442" y="330"/>
      <point x="440" y="433" type="curve"/>
      <point x="360" y="218" type="line"/>
      <point x="445" y="218" type="line"/>
      <point x="473" y="71"/>
      <point x="556" y="-24"/>
    </contour>
    <contour>
      <point x="444" y="-344" type="line"/>
      <point x="444" y="0" type="line"/>
      <point x="434" y="257" type="line"/>
      <point x="440" y="316" type="line"/>
      <point x="440" y="680" type="line"/>
      <point x="432" y="704" type="line"/>
      <point x="444" y="985" type="line"/>
      <point x="92" y="985" type="line"/>
      <point x="92" y="-344" type="line"/>
    </contour>
  </outline>
</glyph>
<glyph name="w" format="2">
  <advance width="1589"/>
  <unicode hex="0077"/>
  <anchor x="795" y="0" name="bottom"/>
  <anchor x="795" y="985" name="top"/>
  <outline>
    <contour>
      <point x="697" y="0" type="line"/>
      <point x="776" y="604" type="line"/>
      <point x="789" y="704" type="line"/>
      <point x="803" y="704" type="line"/>
      <point x="815" y="604" type="line"/>
      <point x="893" y="0" type="line"/>
      <point x="1390" y="0" type="line"/>
      <point x="1572" y="985" type="line"/>
      <point x="1219" y="985" type="line"/>
      <point x="1118" y="249" type="line"/>
      <point x="1101" y="249" type="line"/>
      <point x="1004" y="962" type="line"/>
      <point x="586" y="962" type="line"/>
      <point x="492" y="249" type="line"/>
      <point x="473" y="249" type="line"/>
      <point x="374" y="985" type="line"/>
      <point x="17" y="985" type="line"/>
      <point x="199" y="0" type="line"/>
    </contour>
  </outline>
</glyph>
<glyph name="yen" format="2">
  <advance width="1196"/>
  <unicode hex="00A5"/>
  <outline>
    <component base="Y"/>
    <contour>
      <point x="1086" y="502" type="line"/>
      <point x="1101" y="692" type="line"/>
      <point x="711" y="692" type="line"/>
      <point x="659" y="502" type="line"/>
    </contour>
    <contour>
      <point x="99" y="213" type="line"/>
      <point x="1086" y="213" type="line"/>
      <point x="1101" y="403" type="line"/>
      <point x="115" y="403" type="line"/>
    </contour>
    <contour>
      <point x="115" y="692" type="line"/>
      <point x="99" y="502" type="line"/>
      <point x="534" y="502" type="line"/>
      <point x="480" y="692" type="line"/>
    </contour>
  </outline>
</glyph>
<glyph name="logicalnot" format="2">
  <advance width="1023"/>
  <unicode hex="00AC"/>
  <outline>
    <contour>
      <point x="944" y="656" type="line"/>
      <point x="647" y="656" type="line"/>
      <point x="647" y="184" type="line"/>
      <point x="944" y="184" type="line"/>
    </contour>
    <contour>
      <point x="944" y="478" type="line"/>
      <point x="944" y="758" type="line"/>
      <point x="84" y="758" type="line"/>
      <point x="84" y="478" type="line"/>
    </contour>
  </outline>
</glyph>
<glyph name="Eth" format="2">
  <advance width="1265"/>
  <unicode hex="00D0"/>
  <outline>
    <component base="D"/>
    <contour>
      <point x="665" y="551" type="line"/>
      <point x="665" y="741" type="line"/>
      <point x="2" y="742" type="line"/>
      <point x="2" y="552" type="line"/>
    </contour>
  </outline>
</glyph>
<glyph name="Danda.dv" format="2">
  <advance width="771"/>
  <unicode hex="0964"/>
  <outline>
    <contour>
      <point x="552" y="1311" type="line"/>
      <point x="552" y="0" type="line"/>
      <point x="219" y="0" type="line"/>
      <point x="219" y="1352" type="line"/>
    </contour>
  </outline>
</glyph>
<glyph name="Candrabindu_Spacing.ka" format="2">
  <advance width="1317"/>
  <unicode hex="0C80"/>
  <unicode hex="0D04"/>
  <outline>
    <contour>
      <point x="659" y="981" type="curve" smooth="yes"/>
      <point x="766" y="981"/>
      <point x="820" y="917"/>
      <point x="820" y="791" type="curve" smooth="yes"/>
      <point x="820" y="709" type="line" smooth="yes"/>
      <point x="820" y="585"/>
      <point x="766" y="520"/>
      <point x="659" y="520" type="curve" smooth="yes"/>
      <point x="553" y="520"/>
      <point x="498" y="585"/>
      <point x="498" y="709" type="curve" smooth="yes"/>
      <point x="498" y="791" type="line" smooth="yes"/>
      <point x="498" y="917"/>
      <point x="553" y="981"/>
    </contour>
    <contour>
      <point x="659" y="68" type="curve" smooth="yes"/>
      <point x="1047" y="68"/>
      <point x="1245" y="255"/>
      <point x="1245" y="612" type="curve" smooth="yes"/>
      <point x="1245" y="681"/>
      <point x="1241" y="730"/>
      <point x="1229" y="798" type="curve"/>
      <point x="938" y="798" type="line"/>
      <point x="938" y="682" type="line" smooth="yes"/>
      <point x="938" y="454"/>
      <point x="853" y="349"/>
      <point x="659" y="349" type="curve" smooth="yes"/>
      <point x="465" y="349"/>
      <point x="381" y="454"/>
      <point x="381" y="682" type="curve" smooth="yes"/>
      <point x="381" y="798" type="line"/>
      <point x="88" y="798" type="line"/>
      <point x="76" y="730"/>
      <point x="72" y="681"/>
      <point x="72" y="612" type="curve" smooth="yes"/>
      <point x="72" y="255"/>
      <point x="272" y="68"/>
    </contour>
  </outline>
</glyph>
<glyph name="Anuswara.kn" format="2">
  <advance width="1140"/>
  <unicode hex="0C82"/>
  <outline>
    <contour>
      <point x="73" y="521" type="line" smooth="yes"/>
      <point x="73" y="195"/>
      <point x="241" y="33"/>
      <point x="570" y="33" type="curve" smooth="yes"/>
      <point x="899" y="33"/>
      <point x="1068" y="195"/>
      <point x="1068" y="521" type="curve" smooth="yes"/>
      <point x="1068" y="623" type="line" smooth="yes"/>
      <point x="1068" y="950"/>
      <point x="899" y="1111"/>
      <point x="570" y="1111" type="curve" smooth="yes"/>
      <point x="241" y="1111"/>
      <point x="73" y="950"/>
      <point x="73" y="623" type="curve" smooth="yes"/>
    </contour>
    <contour>
      <point x="570" y="321" type="curve" smooth="yes"/>
      <point x="459" y="321"/>
      <point x="406" y="385"/>
      <point x="406" y="521" type="curve" smooth="yes"/>
      <point x="406" y="624" type="line" smooth="yes"/>
      <point x="406" y="760"/>
      <point x="459" y="824"/>
      <point x="570" y="824" type="curve" smooth="yes"/>
      <point x="682" y="824"/>
      <point x="735" y="759"/>
      <point x="735" y="623" type="curve" smooth="yes"/>
      <point x="735" y="521" type="line" smooth="yes"/>
      <point x="735" y="385"/>
      <point x="682" y="321"/>
    </contour>
  </outline>
  <guideline angle="90" x="292" y="0"/>
  <guideline angle="0" x="0" y="1114"/>
</glyph>
<glyph name="Visarga.kn" format="2">
  <advance width="761"/>
  <unicode hex="0C83"/>
  <outline>
    <contour>
      <point x="381" y="-11" type="curve" smooth="yes"/>
      <point x="610" y="-11"/>
      <point x="728" y="81"/>
      <point x="728" y="269" type="curve" smooth="yes"/>
      <point x="728" y="272" type="line" smooth="yes"/>
      <point x="728" y="457"/>
      <point x="610" y="551"/>
      <point x="381" y="551" type="curve" smooth="yes"/>
      <point x="153" y="551"/>
      <point x="33" y="456"/>
      <point x="33" y="271" type="curve" smooth="yes"/>
      <point x="33" y="268" type="line" smooth="yes"/>
      <point x="33" y="80"/>
      <point x="153" y="-11"/>
    </contour>
    <contour>
      <point x="381" y="341" type="curve" smooth="yes"/>
      <point x="428" y="341"/>
      <point x="454" y="319"/>
      <point x="454" y="272" type="curve" smooth="yes"/>
      <point x="454" y="269" type="line" smooth="yes"/>
      <point x="454" y="219"/>
      <point x="428" y="199"/>
      <point x="381" y="199" type="curve" smooth="yes"/>
      <point x="335" y="199"/>
      <point x="307" y="219"/>
      <point x="307" y="269" type="curve" smooth="yes"/>
      <point x="307" y="272" type="line" smooth="yes"/>
      <point x="307" y="319"/>
      <point x="335" y="341"/>
    </contour>
    <contour>
      <point x="381" y="599" type="curve" smooth="yes"/>
      <point x="610" y="599"/>
      <point x="728" y="690"/>
      <point x="728" y="878" type="curve" smooth="yes"/>
      <point x="728" y="881" type="line" smooth="yes"/>
      <point x="728" y="1066"/>
      <point x="610" y="1161"/>
      <point x="381" y="1161" type="curve" smooth="yes"/>
      <point x="153" y="1161"/>
      <point x="33" y="1066"/>
      <point x="33" y="881" type="curve" smooth="yes"/>
      <point x="33" y="878" type="line" smooth="yes"/>
      <point x="33" y="690"/>
      <point x="153" y="599"/>
    </contour>
    <contour>
      <point x="381" y="951" type="curve" smooth="yes"/>
      <point x="428" y="951"/>
      <point x="454" y="928"/>
      <point x="454" y="881" type="curve" smooth="yes"/>
      <point x="454" y="878" type="line" smooth="yes"/>
      <point x="454" y="828"/>
      <point x="428" y="809"/>
      <point x="381" y="809" type="curve" smooth="yes"/>
      <point x="335" y="809"/>
      <point x="307" y="828"/>
      <point x="307" y="878" type="curve" smooth="yes"/>
      <point x="307" y="881" type="line" smooth="yes"/>
      <point x="307" y="928"/>
      <point x="335" y="951"/>
    </contour>
  </outline>
</glyph>
<glyph name="vowelII.kn" format="2">
  <advance width="1930"/>
  <unicode hex="0C88"/>
  <outline>
    <contour>
      <point x="417" y="944" type="line"/>
      <point x="417" y="914" type="line"/>
      <point x="267" y="878"/>
      <point x="188" y="757"/>
      <point x="188" y="540" type="curve" smooth="yes"/>
      <point x="188" y="477" type="line" smooth="yes"/>
      <point x="188" y="135"/>
      <point x="392" y="-41"/>
      <point x="783" y="-41" type="curve" smooth="yes"/>
      <point x="1174" y="-41"/>
      <point x="1378" y="135"/>
      <point x="1378" y="477" type="curve" smooth="yes"/>
      <point x="1378" y="540" type="line" smooth="yes"/>
      <point x="1378" y="757"/>
      <point x="1299" y="878"/>
      <point x="1149" y="914" type="curve"/>
      <point x="1149" y="944" type="line"/>
    </contour>
    <contour>
      <point x="783" y="263" type="curve" smooth="yes"/>
      <point x="609" y="263"/>
      <point x="531" y="361"/>
      <point x="531" y="549" type="curve" smooth="yes"/>
      <point x="531" y="638" type="line" smooth="yes"/>
      <point x="531" y="826"/>
      <point x="609" y="922"/>
      <point x="783" y="922" type="curve" smooth="yes"/>
      <point x="957" y="922"/>
      <point x="1035" y="826"/>
      <point x="1035" y="638" type="curve" smooth="yes"/>
      <point x="1035" y="549" type="line" smooth="yes"/>
      <point x="1035" y="361"/>
      <point x="957" y="263"/>
    </contour>
    <contour>
      <point x="1046" y="922" type="line"/>
      <point x="1046" y="1191" type="line"/>
      <point x="160" y="1191" type="line"/>
      <point x="160" y="922" type="line"/>
    </contour>
    <contour>
      <point x="1549" y="357" type="line" smooth="yes"/>
      <point x="1549" y="286"/>
      <point x="1519" y="259"/>
      <point x="1458" y="259" type="curve" smooth="yes"/>
      <point x="1439" y="259"/>
      <point x="1418" y="261"/>
      <point x="1402" y="265" type="curve"/>
      <point x="1438" y="-14" type="line"/>
      <point x="1492" y="-24"/>
      <point x="1538" y="-27"/>
      <point x="1579" y="-27" type="curve" smooth="yes"/>
      <point x="1786" y="-27"/>
      <point x="1892" y="64"/>
      <point x="1892" y="253" type="curve" smooth="yes"/>
      <point x="1892" y="259" type="line" smooth="yes"/>
      <point x="1892" y="404"/>
      <point x="1824" y="484"/>
      <point x="1695" y="504" type="curve"/>
      <point x="1695" y="533" type="line"/>
      <point x="1364" y="533" type="line"/>
      <point x="1377" y="460" type="line"/>
      <point x="1459" y="460" type="line" smooth="yes"/>
      <point x="1523" y="460"/>
      <point x="1549" y="430"/>
      <point x="1549" y="361" type="curve" smooth="yes"/>
    </contour>
    <contour>
      <point x="1585" y="512" type="line"/>
      <point x="1671" y="512" type="line" smooth="yes"/>
      <point x="1818" y="512"/>
      <point x="1876" y="583"/>
      <point x="1876" y="696" type="curve" smooth="yes"/>
      <point x="1876" y="786"/>
      <point x="1840" y="891"/>
      <point x="1773" y="984" type="curve"/>
      <point x="1536" y="984" type="line"/>
      <point x="1536" y="725" type="line"/>
      <point x="1209" y="725" type="line"/>
      <point x="1149" y="726" type="line"/>
      <point x="373" y="726" type="line"/>
      <point x="339" y="735" type="line"/>
      <point x="32" y="735" type="line"/>
      <point x="32" y="458" type="line"/>
      <point x="339" y="458" type="line"/>
      <point x="373" y="467" type="line"/>
      <point x="1166" y="467" type="line"/>
      <point x="1226" y="460" type="line"/>
      <point x="1572" y="460" type="line"/>
    </contour>
    <contour>
      <point x="1096" y="1530" type="line"/>
      <point x="1117.11" y="1457"/>
      <point x="1134" y="1380"/>
      <point x="1134" y="1304" type="curve" smooth="yes"/>
      <point x="1134" y="1221"/>
      <point x="1109" y="1191"/>
      <point x="1035" y="1191" type="curve" smooth="yes"/>
      <point x="1011" y="1191" type="line"/>
      <point x="1039" y="922" type="line"/>
      <point x="1177" y="922" type="line" smooth="yes"/>
      <point x="1360" y="922"/>
      <point x="1450" y="1023"/>
      <point x="1450" y="1227" type="curve" smooth="yes"/>
      <point x="1450" y="1327"/>
      <point x="1425.39" y="1432"/>
      <point x="1369" y="1530" type="curve"/>
    </contour>
  </outline>
  <guideline angle="90" x="1743" y="0"/>
  <guideline angle="0" x="0" y="581"/>
</glyph>
<glyph name="vowelU.kn" format="2">
  <advance width="2626"/>
  <unicode hex="0C89"/>
  <outline>
    <contour>
      <point x="498" y="1228" type="curve" smooth="yes"/>
      <point x="770" y="1228"/>
      <point x="905" y="1090"/>
      <point x="905" y="829" type="curve" smooth="yes"/>
      <point x="905" y="802" type="line" smooth="yes"/>
      <point x="905" y="579"/>
      <point x="813" y="461"/>
      <point x="636" y="461" type="curve" smooth="yes"/>
      <point x="515" y="461"/>
      <point x="437" y="515"/>
      <point x="412" y="616" type="curve"/>
      <point x="358" y="616" type="line"/>
      <point x="368" y="788" type="line"/>
      <point x="397" y="729"/>
      <point x="442" y="698"/>
      <point x="499" y="698" type="curve" smooth="yes"/>
      <point x="562" y="698"/>
      <point x="586" y="732"/>
      <point x="586" y="805" type="curve" smooth="yes"/>
      <point x="586" y="829" type="line" smooth="yes"/>
      <point x="586" y="905"/>
      <point x="561" y="942"/>
      <point x="498" y="942" type="curve" smooth="yes"/>
      <point x="418" y="942"/>
      <point x="400" y="887"/>
      <point x="400" y="779" type="curve" smooth="yes"/>
      <point x="400" y="676" type="line"/>
      <point x="68" y="643" type="line"/>
      <point x="68" y="754" type="line" smooth="yes"/>
      <point x="68" y="1067"/>
      <point x="208" y="1228"/>
    </contour>
    <contour>
      <point x="403" y="604" type="line" smooth="yes"/>
      <point x="403" y="386"/>
      <point x="499" y="276"/>
      <point x="700" y="276" type="curve" smooth="yes"/>
      <point x="899" y="276"/>
      <point x="992" y="383"/>
      <point x="992" y="592" type="curve" smooth="yes"/>
      <point x="992" y="774" type="line" smooth="yes"/>
      <point x="992" y="1072"/>
      <point x="1136" y="1225"/>
      <point x="1425" y="1225" type="curve" smooth="yes"/>
      <point x="1715" y="1225"/>
      <point x="1857" y="1072"/>
      <point x="1857" y="774" type="curve" smooth="yes"/>
      <point x="1857" y="632" type="line"/>
      <point x="1519" y="632" type="line"/>
      <point x="1519" y="776" type="line" smooth="yes"/>
      <point x="1519" y="881"/>
      <point x="1495" y="929"/>
      <point x="1425" y="929" type="curve" smooth="yes"/>
      <point x="1355" y="929"/>
      <point x="1330" y="883"/>
      <point x="1330" y="776" type="curve" smooth="yes"/>
      <point x="1330" y="582" type="line" smooth="yes"/>
      <point x="1330" y="175"/>
      <point x="1124" y="-32"/>
      <point x="702" y="-32" type="curve" smooth="yes"/>
      <point x="275" y="-32"/>
      <point x="68" y="182"/>
      <point x="68" y="602" type="curve" smooth="yes"/>
      <point x="68" y="651" type="line"/>
      <point x="403" y="684" type="line"/>
    </contour>
    <contour>
      <point x="2546" y="508" type="line" smooth="yes"/>
      <point x="2546" y="150"/>
      <point x="2379" y="-31"/>
      <point x="2033" y="-31" type="curve" smooth="yes"/>
      <point x="1688" y="-31"/>
      <point x="1519" y="144"/>
      <point x="1519" y="490" type="curve" smooth="yes"/>
      <point x="1519" y="672" type="line"/>
      <point x="1857" y="672" type="line"/>
      <point x="1857" y="504" type="line" smooth="yes"/>
      <point x="1857" y="349"/>
      <point x="1907" y="275"/>
      <point x="2027" y="275" type="curve" smooth="yes"/>
      <point x="2147" y="275"/>
      <point x="2196" y="352"/>
      <point x="2196" y="508" type="curve" smooth="yes"/>
      <point x="2196" y="683" type="line" smooth="yes"/>
      <point x="2196" y="829"/>
      <point x="2149" y="891"/>
      <point x="2041" y="891" type="curve" smooth="yes"/>
      <point x="2025" y="891"/>
      <point x="2009" y="890"/>
      <point x="1993" y="888" type="curve"/>
      <point x="1993" y="1196" type="line"/>
      <point x="2030" y="1202"/>
      <point x="2068" y="1205"/>
      <point x="2110" y="1205" type="curve" smooth="yes"/>
      <point x="2404" y="1205"/>
      <point x="2546" y="1028"/>
      <point x="2546" y="682" type="curve" smooth="yes"/>
    </contour>
  </outline>
</glyph>
<glyph name="Ka.kn" format="2">
  <advance width="1269"/>
  <unicode hex="0C95"/>
  <outline>
    <contour>
      <point x="67" y="796" type="line"/>
      <point x="67" y="528" type="line"/>
      <point x="341" y="535" type="line"/>
      <point x="339" y="586" type="line"/>
      <point x="929" y="586" type="line"/>
      <point x="928" y="535" type="line"/>
      <point x="1198" y="528" type="line"/>
      <point x="1198" y="796" type="line"/>
    </contour>
    <contour>
      <point x="466" y="1043" type="line"/>
      <point x="466" y="676" type="line"/>
      <point x="800" y="676" type="line"/>
      <point x="800" y="1043" type="line"/>
    </contour>
    <contour>
      <point x="67" y="1191" type="line"/>
      <point x="67" y="923" type="line"/>
      <point x="869" y="923" type="line"/>
      <point x="869" y="1191" type="line"/>
    </contour>
    <contour>
      <point x="633" y="246" type="curve" smooth="yes"/>
      <point x="512" y="246"/>
      <point x="456" y="293"/>
      <point x="456" y="397" type="curve" smooth="yes"/>
      <point x="456" y="403" type="line" smooth="yes"/>
      <point x="456" y="507"/>
      <point x="512" y="553"/>
      <point x="633" y="553" type="curve" smooth="yes"/>
      <point x="753" y="553"/>
      <point x="809" y="506"/>
      <point x="809" y="402" type="curve" smooth="yes"/>
      <point x="809" y="396" type="line" smooth="yes"/>
      <point x="809" y="292"/>
      <point x="753" y="246"/>
    </contour>
    <contour>
      <point x="294" y="607" type="line"/>
      <point x="294" y="525" type="line"/>
      <point x="181" y="508"/>
      <point x="119" y="434"/>
      <point x="119" y="302" type="curve" smooth="yes"/>
      <point x="119" y="292" type="line" smooth="yes"/>
      <point x="119" y="72"/>
      <point x="291" y="-45"/>
      <point x="633" y="-45" type="curve" smooth="yes"/>
      <point x="975" y="-45"/>
      <point x="1148" y="72"/>
      <point x="1148" y="292" type="curve" smooth="yes"/>
      <point x="1148" y="302" type="line" smooth="yes"/>
      <point x="1148" y="434"/>
      <point x="1086" y="508"/>
      <point x="972" y="525" type="curve"/>
      <point x="972" y="607" type="line"/>
    </contour>
    <contour>
      <point x="880" y="1530" type="line"/>
      <point x="901.111" y="1457"/>
      <point x="918" y="1380"/>
      <point x="918" y="1304" type="curve" smooth="yes"/>
      <point x="918" y="1221"/>
      <point x="893" y="1191"/>
      <point x="819" y="1191" type="curve" smooth="yes"/>
      <point x="795" y="1191" type="line"/>
      <point x="823" y="922" type="line"/>
      <point x="961" y="922" type="line" smooth="yes"/>
      <point x="1144" y="922"/>
      <point x="1234" y="1023"/>
      <point x="1234" y="1227" type="curve" smooth="yes"/>
      <point x="1234" y="1327"/>
      <point x="1209.39" y="1432"/>
      <point x="1153" y="1530" type="curve"/>
    </contour>
  </outline>
  <guideline angle="90" x="999" y="0"/>
  <guideline angle="0" x="0" y="-272"/>
</glyph>
<glyph name="Ja.kn" format="2">
  <advance width="1642"/>
  <unicode hex="0C9C"/>
  <anchor x="830" y="0" name="nukta"/>
  <outline>
    <contour>
      <point x="1158" y="1191" type="line"/>
      <point x="1183" y="1144"/>
      <point x="1200" y="1080"/>
      <point x="1200" y="1015" type="curve" smooth="yes"/>
      <point x="1200" y="1008" type="line" smooth="yes"/>
      <point x="1200" y="904"/>
      <point x="1151" y="852"/>
      <point x="1057" y="852" type="curve" smooth="yes"/>
      <point x="967" y="852"/>
      <point x="912" y="894"/>
      <point x="888" y="984" type="curve"/>
      <point x="888" y="985" type="line"/>
      <point x="771" y="926" type="line"/>
      <point x="771" y="922" type="line" smooth="yes"/>
      <point x="771" y="705"/>
      <point x="897" y="573"/>
      <point x="1146" y="573" type="curve" smooth="yes"/>
      <point x="1400" y="573"/>
      <point x="1538" y="706"/>
      <point x="1538" y="951" type="curve" smooth="yes"/>
      <point x="1538" y="959" type="line" smooth="yes"/>
      <point x="1538" y="1057"/>
      <point x="1512" y="1135"/>
      <point x="1477" y="1191" type="curve"/>
    </contour>
    <contour>
      <point x="1235" y="410" type="curve" smooth="yes"/>
      <point x="1235" y="405" type="line" smooth="yes"/>
      <point x="1235" y="323"/>
      <point x="1199" y="281"/>
      <point x="1124" y="281" type="curve" smooth="yes"/>
      <point x="1045" y="281"/>
      <point x="1010" y="326"/>
      <point x="1005" y="414" type="curve" smooth="yes"/>
      <point x="1002" y="470" type="line"/>
      <point x="820" y="470" type="line"/>
      <point x="834" y="247" type="line" smooth="yes"/>
      <point x="848" y="65"/>
      <point x="966" y="-32"/>
      <point x="1190" y="-32" type="curve" smooth="yes"/>
      <point x="1447" y="-32"/>
      <point x="1583" y="98"/>
      <point x="1583" y="341" type="curve" smooth="yes"/>
      <point x="1583" y="348" type="line" smooth="yes"/>
      <point x="1583" y="400"/>
      <point x="1575" y="449"/>
      <point x="1558" y="494" type="curve"/>
      <point x="1225" y="494" type="line"/>
      <point x="1232" y="468"/>
      <point x="1235" y="435"/>
    </contour>
    <contour>
      <point x="493" y="1228" type="curve" smooth="yes"/>
      <point x="223" y="1228"/>
      <point x="78" y="1112"/>
      <point x="78" y="879" type="curve" smooth="yes"/>
      <point x="78" y="868" type="line" smooth="yes"/>
      <point x="78" y="801"/>
      <point x="94" y="738"/>
      <point x="114" y="701" type="curve"/>
      <point x="412" y="701" type="line"/>
      <point x="392" y="737"/>
      <point x="382" y="778"/>
      <point x="382" y="833" type="curve" smooth="yes"/>
      <point x="382" y="838" type="line" smooth="yes"/>
      <point x="382" y="914"/>
      <point x="418" y="948"/>
      <point x="488" y="948" type="curve" smooth="yes"/>
      <point x="557" y="948"/>
      <point x="589" y="918"/>
      <point x="589" y="856" type="curve" smooth="yes"/>
      <point x="589" y="850" type="line" smooth="yes"/>
      <point x="589" y="790"/>
      <point x="559" y="761"/>
      <point x="452" y="721" type="curve" smooth="yes"/>
      <point x="366" y="689" type="line" smooth="yes"/>
      <point x="152" y="609"/>
      <point x="58" y="509"/>
      <point x="58" y="332" type="curve" smooth="yes"/>
      <point x="58" y="321" type="line" smooth="yes"/>
      <point x="58" y="90"/>
      <point x="201" y="-32"/>
      <point x="463" y="-32" type="curve" smooth="yes"/>
      <point x="686" y="-32"/>
      <point x="807" y="61"/>
      <point x="826" y="233" type="curve"/>
      <point x="843" y="233" type="line"/>
      <point x="843" y="470" type="line"/>
      <point x="658" y="470" type="line"/>
      <point x="655" y="414" type="line" smooth="yes"/>
      <point x="650" y="318"/>
      <point x="602" y="270"/>
      <point x="502" y="270" type="curve" smooth="yes"/>
      <point x="426" y="270"/>
      <point x="390" y="299"/>
      <point x="390" y="348" type="curve" smooth="yes"/>
      <point x="390" y="353" type="line" smooth="yes"/>
      <point x="390" y="407"/>
      <point x="427" y="430"/>
      <point x="534" y="475" type="curve" smooth="yes"/>
      <point x="625" y="513" type="line" smooth="yes"/>
      <point x="820" y="595"/>
      <point x="904" y="685"/>
      <point x="904" y="858" type="curve" smooth="yes"/>
      <point x="904" y="868" type="line" smooth="yes"/>
      <point x="904" y="1103"/>
      <point x="761" y="1228"/>
    </contour>
  </outline>
  <guideline angle="90" x="1516" y="0"/>
  <guideline angle="90" x="1044" y="0"/>
</glyph>
<glyph name="Jha.kn" format="2">
  <advance width="2720"/>
  <unicode hex="0C9D"/>
  <outline>
    <component base="matraU.kn" xOffset="1362"/>
    <component base="matraU.kn" xOffset="2042"/>
    <component base="Ra.kn"/>
    <contour>
      <point x="1176" y="427" type="line"/>
      <point x="1277" y="428" type="line"/>
      <point x="1277" y="496" type="line"/>
      <point x="1176" y="496" type="line"/>
    </contour>
    <contour>
      <point x="1888" y="-443" type="curve" smooth="yes"/>
      <point x="2007.98" y="-443"/>
      <point x="2070" y="-384"/>
      <point x="2070" y="-267" type="curve" smooth="yes"/>
      <point x="2070" y="-261" type="line" smooth="yes"/>
      <point x="2070" y="-150.723"/>
      <point x="2007.98" y="-48.3941"/>
      <point x="1888" y="44" type="curve"/>
      <point x="1769.03" y="-48.3941"/>
      <point x="1707" y="-150.723"/>
      <point x="1707" y="-261" type="curve" smooth="yes"/>
      <point x="1707" y="-267" type="line" smooth="yes"/>
      <point x="1707" y="-384"/>
      <point x="1768.01" y="-443"/>
    </contour>
  </outline>
  <guideline angle="0" x="0" y="-274"/>
  <guideline angle="90" x="906" y="0"/>
  <guideline angle="90" x="2122" y="0"/>
</glyph>
<glyph name="Dha.kn" format="2">
  <advance width="1620"/>
  <unicode hex="0CA7"/>
  <outline>
    <contour>
      <point x="428" y="532" type="line" smooth="yes"/>
      <point x="428" y="801"/>
      <point x="536" y="922"/>
      <point x="792" y="922" type="curve"/>
      <point x="792" y="949" type="line"/>
      <point x="352" y="949" type="line"/>
      <point x="352" y="914" type="line"/>
      <point x="168" y="878"/>
      <point x="78" y="743"/>
      <point x="78" y="493" type="curve" smooth="yes"/>
      <point x="78" y="410" type="line" smooth="yes"/>
      <point x="78" y="117"/>
      <point x="210" y="-32"/>
      <point x="469" y="-32" type="curve" smooth="yes"/>
      <point x="674" y="-32"/>
      <point x="785" y="58"/>
      <point x="803" y="225" type="curve"/>
      <point x="812" y="225" type="line"/>
      <point x="831" y="58"/>
      <point x="941" y="-32"/>
      <point x="1145" y="-32" type="curve" smooth="yes"/>
      <point x="1405" y="-32"/>
      <point x="1537" y="117"/>
      <point x="1537" y="410" type="curve" smooth="yes"/>
      <point x="1537" y="493" type="line" smooth="yes"/>
      <point x="1537" y="743"/>
      <point x="1447" y="878"/>
      <point x="1262" y="914" type="curve"/>
      <point x="1262" y="949" type="line"/>
      <point x="822" y="949" type="line"/>
      <point x="822" y="922" type="line"/>
      <point x="1079" y="922"/>
      <point x="1187" y="801"/>
      <point x="1187" y="532" type="curve" smooth="yes"/>
      <point x="1187" y="438" type="line" smooth="yes"/>
      <point x="1187" y="332"/>
      <point x="1157" y="281"/>
      <point x="1083" y="281" type="curve" smooth="yes"/>
      <point x="1016" y="281"/>
      <point x="988" y="323"/>
      <point x="983" y="407" type="curve" smooth="yes"/>
      <point x="977" y="499" type="line"/>
      <point x="637" y="499" type="line"/>
      <point x="632" y="407" type="line" smooth="yes"/>
      <point x="627" y="323"/>
      <point x="599" y="281"/>
      <point x="531" y="281" type="curve" smooth="yes"/>
      <point x="457" y="281"/>
      <point x="428" y="332"/>
      <point x="428" y="438" type="curve" smooth="yes"/>
    </contour>
    <contour>
      <point x="1197" y="922" type="line"/>
      <point x="1197" y="1191" type="line"/>
      <point x="78" y="1191" type="line"/>
      <point x="78" y="922" type="line"/>
    </contour>
    <contour>
      <point x="1197" y="1530" type="line"/>
      <point x="1218.11" y="1457"/>
      <point x="1235" y="1380"/>
      <point x="1235" y="1304" type="curve" smooth="yes"/>
      <point x="1235" y="1221"/>
      <point x="1210" y="1191"/>
      <point x="1136" y="1191" type="curve" smooth="yes"/>
      <point x="1112" y="1191" type="line"/>
      <point x="1140" y="922" type="line"/>
      <point x="1278" y="922" type="line" smooth="yes"/>
      <point x="1461" y="922"/>
      <point x="1551" y="1023"/>
      <point x="1551" y="1227" type="curve" smooth="yes"/>
      <point x="1551" y="1327"/>
      <point x="1526.39" y="1432"/>
      <point x="1470" y="1530" type="curve"/>
    </contour>
    <contour>
      <point x="807" y="-443" type="curve" smooth="yes"/>
      <point x="926.978" y="-443"/>
      <point x="989" y="-384"/>
      <point x="989" y="-267" type="curve" smooth="yes"/>
      <point x="989" y="-261" type="line" smooth="yes"/>
      <point x="989" y="-150.723"/>
      <point x="926.978" y="-48.3941"/>
      <point x="807" y="44" type="curve"/>
      <point x="688.028" y="-48.3941"/>
      <point x="626" y="-150.723"/>
      <point x="626" y="-261" type="curve" smooth="yes"/>
      <point x="626" y="-267" type="line" smooth="yes"/>
      <point x="626" y="-384"/>
      <point x="687.011" y="-443"/>
    </contour>
  </outline>
  <guideline angle="90" x="1012" y="0"/>
  <guideline angle="0" x="0" y="-274"/>
  <guideline angle="90" x="111" y="0"/>
</glyph>
<glyph name="RraObsolete.kn" format="2">
  <advance width="1870"/>
  <unicode hex="0CB1"/>
  <outline>
    <contour>
      <point x="73" y="679" type="line"/>
      <point x="73" y="500" type="line" smooth="yes"/>
      <point x="73" y="147.999"/>
      <point x="235" y="-32"/>
      <point x="551" y="-32" type="curve" smooth="yes"/>
      <point x="783" y="-32"/>
      <point x="910" y="59"/>
      <point x="929" y="227" type="curve"/>
      <point x="938" y="227" type="line"/>
      <point x="958" y="59"/>
      <point x="1086" y="-32"/>
      <point x="1318" y="-32" type="curve" smooth="yes"/>
      <point x="1634" y="-32"/>
      <point x="1796" y="147.999"/>
      <point x="1796" y="500" type="curve" smooth="yes"/>
      <point x="1796" y="754" type="line" smooth="yes"/>
      <point x="1796" y="1069"/>
      <point x="1661" y="1228"/>
      <point x="1363" y="1228" type="curve" smooth="yes"/>
      <point x="1109" y="1228"/>
      <point x="981" y="1123"/>
      <point x="981" y="932" type="curve" smooth="yes"/>
      <point x="981" y="921" type="line" smooth="yes"/>
      <point x="981" y="801"/>
      <point x="1035" y="740"/>
      <point x="1154" y="726" type="curve"/>
      <point x="1154" y="692" type="line"/>
      <point x="1377" y="692" type="line"/>
      <point x="1377" y="717" type="line"/>
      <point x="1317" y="717"/>
      <point x="1291" y="747"/>
      <point x="1291" y="817" type="curve" smooth="yes"/>
      <point x="1291" y="829" type="line" smooth="yes"/>
      <point x="1291" y="901"/>
      <point x="1317" y="935"/>
      <point x="1374" y="935" type="curve" smooth="yes"/>
      <point x="1442" y="935"/>
      <point x="1459" y="885"/>
      <point x="1459" y="757" type="curve" smooth="yes"/>
      <point x="1459" y="518" type="line" smooth="yes"/>
      <point x="1459" y="358"/>
      <point x="1407" y="281"/>
      <point x="1277" y="281" type="curve" smooth="yes"/>
      <point x="1165" y="281"/>
      <point x="1118" y="332"/>
      <point x="1108" y="432" type="curve"/>
      <point x="1107" y="439" type="line"/>
      <point x="762" y="439" type="line"/>
      <point x="761" y="432" type="line" smooth="yes"/>
      <point x="747" y="331"/>
      <point x="704" y="281"/>
      <point x="592" y="281" type="curve" smooth="yes"/>
      <point x="461" y="281"/>
      <point x="409" y="358"/>
      <point x="409" y="518" type="curve" smooth="yes"/>
      <point x="409" y="711" type="line"/>
    </contour>
    <contour>
      <point x="1409" y="486" type="line"/>
      <point x="1409" y="717" type="line"/>
      <point x="633" y="717" type="line"/>
      <point x="633" y="486" type="line"/>
    </contour>
    <contour>
      <point x="633" y="486" type="curve"/>
      <point x="805" y="558"/>
      <point x="894" y="645"/>
      <point x="894" y="837" type="curve" smooth="yes"/>
      <point x="894" y="849" type="line" smooth="yes"/>
      <point x="894" y="1097"/>
      <point x="762" y="1228"/>
      <point x="495" y="1228" type="curve" smooth="yes"/>
      <point x="207" y="1228"/>
      <point x="73" y="1069"/>
      <point x="73" y="761" type="curve" smooth="yes"/>
      <point x="73" y="648" type="line"/>
      <point x="405" y="681" type="line"/>
      <point x="405" y="786" type="line" smooth="yes"/>
      <point x="405" y="889"/>
      <point x="422" y="942"/>
      <point x="494" y="942" type="curve" smooth="yes"/>
      <point x="552" y="942"/>
      <point x="575" y="907"/>
      <point x="575" y="838" type="curve" smooth="yes"/>
      <point x="575" y="821" type="line" smooth="yes"/>
      <point x="575" y="755"/>
      <point x="554" y="723"/>
      <point x="498" y="723" type="curve" smooth="yes"/>
      <point x="445" y="723"/>
      <point x="403" y="752"/>
      <point x="376" y="808" type="curve"/>
      <point x="366" y="636" type="line"/>
      <point x="418" y="636" type="line"/>
      <point x="442" y="538"/>
      <point x="517" y="486"/>
    </contour>
  </outline>
  <guideline angle="90" x="491" y="0"/>
  <guideline angle="90" x="912" y="0"/>
</glyph>
<glyph name="Va.kn" format="2">
  <advance width="1651"/>
  <unicode hex="0CB5"/>
  <outline>
    <contour>
      <point x="1181" y="-32" type="curve" smooth="yes"/>
      <point x="1437" y="-32"/>
      <point x="1571" y="115.984"/>
      <point x="1571" y="399" type="curve" smooth="yes"/>
      <point x="1571" y="455" type="line" smooth="yes"/>
      <point x="1571" y="741.016"/>
      <point x="1463" y="885"/>
      <point x="1238" y="913" type="curve"/>
      <point x="1238" y="948" type="line"/>
      <point x="685" y="947" type="line"/>
      <point x="685" y="922" type="line"/>
      <point x="1063" y="922"/>
      <point x="1221" y="783.015"/>
      <point x="1221" y="480" type="curve" smooth="yes"/>
      <point x="1221" y="431" type="line" smooth="yes"/>
      <point x="1221" y="330.995"/>
      <point x="1190" y="281"/>
      <point x="1116" y="281" type="curve" smooth="yes"/>
      <point x="1045" y="281"/>
      <point x="1012" y="323"/>
      <point x="1007" y="408" type="curve" smooth="yes"/>
      <point x="1002" y="499" type="line"/>
      <point x="662" y="499" type="line"/>
      <point x="657" y="414" type="line" smooth="yes"/>
      <point x="652" y="321"/>
      <point x="604" y="274"/>
      <point x="515" y="274" type="curve" smooth="yes"/>
      <point x="440" y="274"/>
      <point x="406" y="307"/>
      <point x="406" y="372" type="curve" smooth="yes"/>
      <point x="406" y="375" type="line" smooth="yes"/>
      <point x="406" y="438"/>
      <point x="436" y="467"/>
      <point x="501" y="467" type="curve" smooth="yes"/>
      <point x="530" y="467"/>
      <point x="559" y="462"/>
      <point x="582" y="453" type="curve"/>
      <point x="565" y="739" type="line"/>
      <point x="522" y="755"/>
      <point x="477" y="763"/>
      <point x="414" y="763" type="curve" smooth="yes"/>
      <point x="187" y="763"/>
      <point x="65" y="629"/>
      <point x="65" y="385" type="curve" smooth="yes"/>
      <point x="65" y="361" type="line" smooth="yes"/>
      <point x="65" y="103"/>
      <point x="203" y="-32"/>
      <point x="468" y="-32" type="curve" smooth="yes"/>
      <point x="690" y="-32"/>
      <point x="808" y="61"/>
      <point x="827" y="233" type="curve"/>
      <point x="836" y="233" type="line"/>
      <point x="854" y="61"/>
      <point x="970" y="-32"/>
    </contour>
    <contour>
      <point x="1238" y="922" type="line"/>
      <point x="1238" y="1191" type="line"/>
      <point x="122" y="1191" type="line"/>
      <point x="122" y="922" type="line"/>
    </contour>
    <contour>
      <point x="1243" y="1530" type="line"/>
      <point x="1264.11" y="1457"/>
      <point x="1281" y="1380"/>
      <point x="1281" y="1304" type="curve" smooth="yes"/>
      <point x="1281" y="1221"/>
      <point x="1256" y="1191"/>
      <point x="1182" y="1191" type="curve" smooth="yes"/>
      <point x="1158" y="1191" type="line"/>
      <point x="1186" y="922" type="line"/>
      <point x="1324" y="922" type="line" smooth="yes"/>
      <point x="1507" y="922"/>
      <point x="1597" y="1023"/>
      <point x="1597" y="1227" type="curve" smooth="yes"/>
      <point x="1597" y="1327"/>
      <point x="1572.39" y="1432"/>
      <point x="1516" y="1530" type="curve"/>
    </contour>
  </outline>
  <guideline angle="90" x="407" y="0"/>
  <guideline angle="90" x="99" y="0"/>
  <guideline angle="0" x="0" y="955"/>
</glyph>
<glyph name="matraI.kn" format="2">
  <advance width="884"/>
  <unicode hex="0CBF"/>
  <outline>
    <contour>
      <point x="812" y="1061" type="line" smooth="yes"/>
      <point x="812" y="1323"/>
      <point x="678" y="1459"/>
      <point x="413" y="1459" type="curve" smooth="yes"/>
      <point x="174" y="1459"/>
      <point x="50" y="1350"/>
      <point x="50" y="1141" type="curve" smooth="yes"/>
      <point x="50" y="1137" type="line" smooth="yes"/>
      <point x="50" y="965"/>
      <point x="144" y="871"/>
      <point x="310" y="871" type="curve" smooth="yes"/>
      <point x="417" y="871"/>
      <point x="485" y="915"/>
      <point x="508" y="994" type="curve"/>
      <point x="544" y="994" type="line"/>
      <point x="533" y="1145" type="line"/>
      <point x="509" y="1094"/>
      <point x="470" y="1069"/>
      <point x="421" y="1069" type="curve" smooth="yes"/>
      <point x="366" y="1069"/>
      <point x="339" y="1093"/>
      <point x="339" y="1141" type="curve" smooth="yes"/>
      <point x="339" y="1144" type="line" smooth="yes"/>
      <point x="339" y="1192"/>
      <point x="368" y="1217"/>
      <point x="423" y="1217" type="curve" smooth="yes"/>
      <point x="489" y="1217"/>
      <point x="517" y="1177"/>
      <point x="517" y="1097" type="curve" smooth="yes"/>
      <point x="517" y="998" type="line" smooth="yes"/>
      <point x="517" y="873"/>
      <point x="443" y="810"/>
      <point x="302" y="810" type="curve" smooth="yes"/>
      <point x="264" y="810"/>
      <point x="223" y="815"/>
      <point x="182" y="825" type="curve"/>
      <point x="249" y="599" type="line"/>
      <point x="293" y="591"/>
      <point x="335" y="587"/>
      <point x="378" y="587" type="curve" smooth="yes"/>
      <point x="662" y="587"/>
      <point x="812" y="747"/>
      <point x="812" y="1035" type="curve" smooth="yes"/>
    </contour>
  </outline>
  <guideline angle="90" x="131" y="0"/>
</glyph>
<glyph name="matraRuu.kn" format="2">
  <advance width="799"/>
  <unicode hex="0CC4"/>
  <outline>
    <contour>
      <point x="-9" y="200" type="line"/>
      <point x="66" y="79"/>
      <point x="111" y="-56"/>
      <point x="111" y="-260" type="curve" smooth="yes"/>
      <point x="111" y="-346" type="line" smooth="yes"/>
      <point x="111" y="-508"/>
      <point x="49" y="-589"/>
      <point x="-96" y="-589" type="curve" smooth="yes"/>
      <point x="-232" y="-589"/>
      <point x="-298" y="-536"/>
      <point x="-298" y="-425" type="curve" smooth="yes"/>
      <point x="-298" y="-402" type="line"/>
      <point x="-515" y="-408" type="line"/>
      <point x="-515" y="-422" type="line" smooth="yes"/>
      <point x="-515" y="-659"/>
      <point x="-362" y="-784"/>
      <point x="-95" y="-784" type="curve" smooth="yes"/>
      <point x="210" y="-784"/>
      <point x="347" y="-633"/>
      <point x="347" y="-347" type="curve" smooth="yes"/>
      <point x="347" y="-260" type="line" smooth="yes"/>
      <point x="347" y="-56"/>
      <point x="290" y="88"/>
      <point x="196" y="206" type="curve"/>
      <point x="-6" y="206" type="line"/>
    </contour>
    <contour>
      <point x="924" y="-167" type="line"/>
      <point x="924" y="-154" type="line" smooth="yes"/>
      <point x="924" y="86"/>
      <point x="796" y="206"/>
      <point x="537" y="206" type="curve" smooth="yes"/>
      <point x="134" y="206" type="line"/>
      <point x="205" y="27.5" type="line"/>
      <point x="538" y="27.5" type="line" smooth="yes"/>
      <point x="651.001" y="27.5"/>
      <point x="706" y="-25"/>
      <point x="706" y="-142" type="curve" smooth="yes"/>
      <point x="706" y="-175" type="line"/>
    </contour>
    <contour>
      <point x="710" y="-174" type="line"/>
      <point x="710" y="-240" type="line" smooth="yes"/>
      <point x="710" y="-288"/>
      <point x="700" y="-311"/>
      <point x="663" y="-311" type="curve" smooth="yes"/>
      <point x="632" y="-311"/>
      <point x="617" y="-295"/>
      <point x="617" y="-261" type="curve" smooth="yes"/>
      <point x="617" y="-257" type="line" smooth="yes"/>
      <point x="617" y="-223"/>
      <point x="631" y="-208"/>
      <point x="662" y="-208" type="curve" smooth="yes"/>
      <point x="690" y="-208"/>
      <point x="714" y="-223"/>
      <point x="734" y="-251" type="curve"/>
      <point x="738" y="-141" type="line"/>
      <point x="701" y="-141" type="line"/>
      <point x="687" y="-88"/>
      <point x="643" y="-57"/>
      <point x="574" y="-57" type="curve" smooth="yes"/>
      <point x="471" y="-57"/>
      <point x="413" y="-120"/>
      <point x="413" y="-253" type="curve" smooth="yes"/>
      <point x="413" y="-262" type="line" smooth="yes"/>
      <point x="413" y="-406"/>
      <point x="499" y="-480"/>
      <point x="662" y="-480" type="curve" smooth="yes"/>
      <point x="838" y="-480"/>
      <point x="924" y="-389"/>
      <point x="924" y="-211" type="curve" smooth="yes"/>
      <point x="924" y="-162" type="line"/>
    </contour>
    <contour>
      <point x="-238" y="-96" type="curve" smooth="yes"/>
      <point x="-417" y="-96"/>
      <point x="-515" y="-184"/>
      <point x="-515" y="-373" type="curve" smooth="yes"/>
      <point x="-515" y="-411" type="line"/>
      <point x="-302" y="-406" type="line"/>
      <point x="-302" y="-349" type="line" smooth="yes"/>
      <point x="-302" y="-295"/>
      <point x="-291" y="-267"/>
      <point x="-247" y="-267" type="curve" smooth="yes"/>
      <point x="-212" y="-267"/>
      <point x="-197" y="-285"/>
      <point x="-197" y="-324" type="curve" smooth="yes"/>
      <point x="-197" y="-331" type="line" smooth="yes"/>
      <point x="-197" y="-363"/>
      <point x="-212" y="-380"/>
      <point x="-242" y="-380" type="curve" smooth="yes"/>
      <point x="-276" y="-380"/>
      <point x="-305" y="-363"/>
      <point x="-330" y="-327" type="curve"/>
      <point x="-341" y="-434" type="line"/>
      <point x="-292" y="-434" type="line"/>
      <point x="-277" y="-490"/>
      <point x="-228" y="-519"/>
      <point x="-152" y="-519" type="curve" smooth="yes"/>
      <point x="-51" y="-519"/>
      <point x="6" y="-454"/>
      <point x="6" y="-332" type="curve" smooth="yes"/>
      <point x="6" y="-322" type="line" smooth="yes"/>
      <point x="6" y="-173"/>
      <point x="-79" y="-96"/>
    </contour>
  </outline>
  <guideline angle="0" x="0" y="-1153"/>
  <guideline angle="0" x="0" y="-640"/>
</glyph>
<glyph name="matraAu.kn" format="2">
  <advance width="1554"/>
  <unicode hex="0CCC"/>
  <outline>
    <contour>
      <point x="366" y="922" type="line" smooth="yes"/>
      <point x="540" y="922"/>
      <point x="633" y="1005"/>
      <point x="633" y="1160" type="curve" smooth="yes"/>
      <point x="633" y="1164" type="line" smooth="yes"/>
      <point x="633" y="1274"/>
      <point x="582" y="1341"/>
      <point x="482" y="1359" type="curve"/>
      <point x="482" y="1402" type="line"/>
      <point x="203" y="1401" type="line"/>
      <point x="201" y="1369" type="line"/>
      <point x="268" y="1369"/>
      <point x="300" y="1340"/>
      <point x="300" y="1281" type="curve" smooth="yes"/>
      <point x="300" y="1278" type="line" smooth="yes"/>
      <point x="300" y="1219"/>
      <point x="268" y="1191"/>
      <point x="201" y="1191" type="curve" smooth="yes"/>
      <point x="156" y="1191" type="line"/>
      <point x="156" y="922" type="line"/>
    </contour>
    <contour>
      <point x="1107" y="430" type="curve" smooth="yes"/>
      <point x="1383" y="430"/>
      <point x="1519" y="580"/>
      <point x="1519" y="865" type="curve" smooth="yes"/>
      <point x="1519" y="980" type="line"/>
      <point x="1195" y="969" type="line"/>
      <point x="1195" y="833" type="line" smooth="yes"/>
      <point x="1195" y="742"/>
      <point x="1175" y="699"/>
      <point x="1109" y="699" type="curve" smooth="yes"/>
      <point x="1051" y="699"/>
      <point x="1022" y="733"/>
      <point x="1022" y="802" type="curve" smooth="yes"/>
      <point x="1022" y="827" type="line" smooth="yes"/>
      <point x="1022" y="891"/>
      <point x="1047" y="926"/>
      <point x="1103" y="926" type="curve" smooth="yes"/>
      <point x="1156" y="926"/>
      <point x="1190" y="896"/>
      <point x="1215" y="838" type="curve"/>
      <point x="1234" y="1009" type="line"/>
      <point x="1181" y="1009" type="line"/>
      <point x="1159" y="1120"/>
      <point x="1084" y="1175"/>
      <point x="969" y="1175" type="curve" smooth="yes"/>
      <point x="795" y="1175"/>
      <point x="708" y="1054"/>
      <point x="708" y="834" type="curve" smooth="yes"/>
      <point x="708" y="799" type="line" smooth="yes"/>
      <point x="708" y="555"/>
      <point x="844" y="430"/>
    </contour>
    <contour>
      <point x="1519" y="975" type="line"/>
      <point x="1519" y="1011" type="line" smooth="yes"/>
      <point x="1519" y="1424"/>
      <point x="1295" y="1632"/>
      <point x="827" y="1632" type="curve" smooth="yes"/>
      <point x="-15" y="1632" type="line"/>
      <point x="-15" y="1369" type="line"/>
      <point x="820" y="1369" type="line" smooth="yes"/>
      <point x="1069" y="1369"/>
      <point x="1190" y="1257"/>
      <point x="1190" y="1011" type="curve" smooth="yes"/>
      <point x="1190" y="963" type="line"/>
    </contour>
  </outline>
</glyph>
<glyph name="LllaObsolete.kn" format="2">
  <advance width="1870"/>
  <unicode hex="0CDE"/>
  <outline>
    <contour>
      <point x="73" y="679" type="line"/>
      <point x="73" y="500" type="line" smooth="yes"/>
      <point x="73" y="148"/>
      <point x="235" y="-32"/>
      <point x="551" y="-32" type="curve" smooth="yes"/>
      <point x="783" y="-32"/>
      <point x="910" y="63"/>
      <point x="929" y="240" type="curve"/>
      <point x="938" y="240" type="line"/>
      <point x="958" y="63"/>
      <point x="1085" y="-32"/>
      <point x="1317" y="-32" type="curve" smooth="yes"/>
      <point x="1633" y="-32"/>
      <point x="1796" y="148"/>
      <point x="1796" y="500" type="curve" smooth="yes"/>
      <point x="1796" y="679" type="line"/>
      <point x="1460" y="711" type="line"/>
      <point x="1460" y="518" type="line" smooth="yes"/>
      <point x="1460" y="358"/>
      <point x="1407" y="281"/>
      <point x="1276" y="281" type="curve" smooth="yes"/>
      <point x="1164" y="281"/>
      <point x="1118" y="340"/>
      <point x="1109" y="457" type="curve" smooth="yes"/>
      <point x="1107" y="480" type="line"/>
      <point x="762" y="480" type="line"/>
      <point x="760" y="457" type="line" smooth="yes"/>
      <point x="746" y="340"/>
      <point x="704" y="281"/>
      <point x="592" y="281" type="curve" smooth="yes"/>
      <point x="461" y="281"/>
      <point x="409" y="358"/>
      <point x="409" y="518" type="curve" smooth="yes"/>
      <point x="409" y="711" type="line"/>
    </contour>
    <contour>
      <point x="495" y="1228" type="curve" smooth="yes"/>
      <point x="207" y="1228"/>
      <point x="73" y="1069"/>
      <point x="73" y="761" type="curve" smooth="yes"/>
      <point x="73" y="648" type="line"/>
      <point x="405" y="681" type="line"/>
      <point x="405" y="786" type="line" smooth="yes"/>
      <point x="405" y="889"/>
      <point x="422" y="942"/>
      <point x="494" y="942" type="curve" smooth="yes"/>
      <point x="552" y="942"/>
      <point x="575" y="907"/>
      <point x="575" y="838" type="curve" smooth="yes"/>
      <point x="575" y="821" type="line" smooth="yes"/>
      <point x="575" y="755"/>
      <point x="554" y="723"/>
      <point x="498" y="723" type="curve" smooth="yes"/>
      <point x="445" y="723"/>
      <point x="403" y="752"/>
      <point x="376" y="808" type="curve"/>
      <point x="366" y="636" type="line"/>
      <point x="418" y="636" type="line"/>
      <point x="442" y="538"/>
      <point x="517" y="486"/>
      <point x="633" y="486" type="curve" smooth="yes"/>
      <point x="805" y="486"/>
      <point x="894" y="601"/>
      <point x="894" y="817" type="curve" smooth="yes"/>
      <point x="894" y="839" type="line" smooth="yes"/>
      <point x="894" y="1094"/>
      <point x="762" y="1228"/>
    </contour>
    <contour>
      <point x="1373" y="1228" type="curve" smooth="yes"/>
      <point x="1106" y="1228"/>
      <point x="975" y="1095"/>
      <point x="975" y="840" type="curve" smooth="yes"/>
      <point x="975" y="818" type="line" smooth="yes"/>
      <point x="975" y="602"/>
      <point x="1064" y="487"/>
      <point x="1239" y="487" type="curve" smooth="yes"/>
      <point x="1353" y="487"/>
      <point x="1427" y="538"/>
      <point x="1451" y="636" type="curve"/>
      <point x="1503" y="636" type="line"/>
      <point x="1492" y="808" type="line"/>
      <point x="1465" y="752"/>
      <point x="1423" y="724"/>
      <point x="1370" y="724" type="curve" smooth="yes"/>
      <point x="1314" y="724"/>
      <point x="1293" y="755"/>
      <point x="1293" y="821" type="curve" smooth="yes"/>
      <point x="1293" y="838" type="line" smooth="yes"/>
      <point x="1293" y="907"/>
      <point x="1316" y="942"/>
      <point x="1374" y="942" type="curve" smooth="yes"/>
      <point x="1446" y="942"/>
      <point x="1463" y="889"/>
      <point x="1463" y="786" type="curve" smooth="yes"/>
      <point x="1463" y="681" type="line"/>
      <point x="1796" y="648" type="line"/>
      <point x="1796" y="761" type="line" smooth="yes"/>
      <point x="1796" y="1069"/>
      <point x="1661" y="1228"/>
    </contour>
  </outline>
  <guideline angle="90" x="892" y="0"/>
</glyph>
<glyph name="vowelLruu.kn" format="2">
  <advance width="1652"/>
  <unicode hex="0CE1"/>
  <outline>
    <contour>
      <point x="776" y="-80" type="line"/>
      <point x="655" y="-80" type="line"/>
      <point x="632" y="15"/>
      <point x="555" y="57"/>
      <point x="450" y="57" type="curve" smooth="yes"/>
      <point x="264" y="57"/>
      <point x="168" y="-49"/>
      <point x="168" y="-251" type="curve" smooth="yes"/>
      <point x="168" y="-263" type="line" smooth="yes"/>
      <point x="168" y="-468"/>
      <point x="266" y="-572"/>
      <point x="444" y="-572" type="curve" smooth="yes"/>
      <point x="564" y="-572"/>
      <point x="633" y="-532"/>
      <point x="659" y="-441" type="curve"/>
      <point x="710" y="-441" type="line"/>
      <point x="691" y="-266" type="line"/>
      <point x="673" y="-313"/>
      <point x="623" y="-337"/>
      <point x="562" y="-337" type="curve" smooth="yes"/>
      <point x="501" y="-337"/>
      <point x="467" y="-311"/>
      <point x="467" y="-263" type="curve" smooth="yes"/>
      <point x="467" y="-259" type="line" smooth="yes"/>
      <point x="467" y="-206"/>
      <point x="498" y="-178"/>
      <point x="564" y="-178" type="curve" smooth="yes"/>
      <point x="644" y="-178"/>
      <point x="665" y="-216"/>
      <point x="666" y="-255" type="curve"/>
    </contour>
    <contour>
      <point x="656" y="1191" type="line"/>
      <point x="656" y="1011" type="line" smooth="yes"/>
      <point x="656" y="890"/>
      <point x="669" y="796"/>
      <point x="687" y="702" type="curve"/>
      <point x="678" y="700" type="line"/>
      <point x="642" y="789"/>
      <point x="564" y="846"/>
      <point x="423" y="846" type="curve" smooth="yes"/>
      <point x="188" y="846"/>
      <point x="68" y="703"/>
      <point x="68" y="428" type="curve" smooth="yes"/>
      <point x="68" y="413" type="line" smooth="yes"/>
      <point x="68" y="321"/>
      <point x="80" y="201"/>
      <point x="119" y="120" type="curve"/>
      <point x="452" y="120" type="line"/>
      <point x="420" y="210"/>
      <point x="411" y="319"/>
      <point x="411" y="381" type="curve" smooth="yes"/>
      <point x="411" y="391" type="line" smooth="yes"/>
      <point x="411" y="500"/>
      <point x="452" y="549"/>
      <point x="539" y="549" type="curve" smooth="yes"/>
      <point x="618" y="549"/>
      <point x="657" y="498"/>
      <point x="658" y="397" type="curve" smooth="yes"/>
      <point x="668" y="-628" type="line"/>
      <point x="984" y="-628" type="line"/>
      <point x="994" y="398" type="line" smooth="yes"/>
      <point x="995" y="499"/>
      <point x="1035" y="549"/>
      <point x="1114" y="549" type="curve" smooth="yes"/>
      <point x="1201" y="549"/>
      <point x="1242" y="500"/>
      <point x="1242" y="391" type="curve" smooth="yes"/>
      <point x="1242" y="382" type="line" smooth="yes"/>
      <point x="1242" y="320"/>
      <point x="1233" y="210"/>
      <point x="1201" y="120" type="curve"/>
      <point x="1534" y="120" type="line"/>
      <point x="1574" y="201"/>
      <point x="1585" y="321"/>
      <point x="1585" y="413" type="curve" smooth="yes"/>
      <point x="1585" y="428" type="line" smooth="yes"/>
      <point x="1585" y="704"/>
      <point x="1466" y="846"/>
      <point x="1230" y="846" type="curve" smooth="yes"/>
      <point x="1088" y="846"/>
      <point x="1012" y="789"/>
      <point x="975" y="700" type="curve"/>
      <point x="966" y="702" type="line"/>
      <point x="984" y="796"/>
      <point x="997" y="891"/>
      <point x="997" y="1012" type="curve" smooth="yes"/>
      <point x="997" y="1191" type="line"/>
    </contour>
  </outline>
  <guideline angle="0" x="0" y="1519"/>
</glyph>
<glyph name="matraLru.kn" format="2">
  <unicode hex="0CE2"/>
  <outline>
    <contour>
      <point x="-328" y="-103" type="line"/>
      <point x="-328" y="-208" type="line" smooth="yes"/>
      <point x="-328" y="-275"/>
      <point x="-321" y="-327"/>
      <point x="-308" y="-379" type="curve"/>
      <point x="-314" y="-381" type="line"/>
      <point x="-334" y="-333"/>
      <point x="-374" y="-302"/>
      <point x="-454" y="-302" type="curve" smooth="yes"/>
      <point x="-593" y="-302"/>
      <point x="-669" y="-385"/>
      <point x="-669" y="-544" type="curve" smooth="yes"/>
      <point x="-669" y="-561" type="line" smooth="yes"/>
      <point x="-669" y="-637"/>
      <point x="-655" y="-711"/>
      <point x="-627" y="-763" type="curve"/>
      <point x="-409" y="-763" type="line"/>
      <point x="-432" y="-712"/>
      <point x="-445" y="-644"/>
      <point x="-445" y="-581" type="curve" smooth="yes"/>
      <point x="-445" y="-567" type="line" smooth="yes"/>
      <point x="-445" y="-517"/>
      <point x="-425" y="-495"/>
      <point x="-388" y="-495" type="curve" smooth="yes"/>
      <point x="-351" y="-495"/>
      <point x="-331" y="-519"/>
      <point x="-330" y="-567" type="curve" smooth="yes"/>
      <point x="-325" y="-761" type="line"/>
      <point x="-116" y="-761" type="line"/>
      <point x="-111" y="-567" type="line" smooth="yes"/>
      <point x="-110" y="-519"/>
      <point x="-91" y="-495"/>
      <point x="-53" y="-495" type="curve" smooth="yes"/>
      <point x="-17" y="-495"/>
      <point x="5" y="-517"/>
      <point x="5" y="-567" type="curve" smooth="yes"/>
      <point x="5" y="-581" type="line" smooth="yes"/>
      <point x="5" y="-644"/>
      <point x="-10" y="-712"/>
      <point x="-32" y="-763" type="curve"/>
      <point x="186" y="-763" type="line"/>
      <point x="214" y="-711"/>
      <point x="229" y="-637"/>
      <point x="229" y="-561" type="curve" smooth="yes"/>
      <point x="229" y="-544" type="line" smooth="yes"/>
      <point x="229" y="-385"/>
      <point x="152" y="-302"/>
      <point x="13" y="-302" type="curve" smooth="yes"/>
      <point x="-67" y="-302"/>
      <point x="-107" y="-333"/>
      <point x="-127" y="-381" type="curve"/>
      <point x="-133" y="-379" type="line"/>
      <point x="-121" y="-327"/>
      <point x="-113" y="-275"/>
      <point x="-113" y="-208" type="curve" smooth="yes"/>
      <point x="-113" y="-103" type="line"/>
    </contour>
  </outline>
</glyph>
<glyph name="Shunya.kn" format="2">
  <advance width="1313"/>
  <unicode hex="0CE6"/>
  <outline>
    <contour>
      <point x="426" y="577" type="line"/>
      <point x="426" y="665" type="line" smooth="yes"/>
      <point x="426" y="842"/>
      <point x="503" y="934"/>
      <point x="656" y="934" type="curve" smooth="yes"/>
      <point x="809" y="934"/>
      <point x="887" y="842"/>
      <point x="887" y="665" type="curve" smooth="yes"/>
      <point x="887" y="577" type="line"/>
      <point x="1236" y="577" type="line"/>
      <point x="1236" y="668" type="line" smooth="yes"/>
      <point x="1236" y="1046"/>
      <point x="1036" y="1239"/>
      <point x="656" y="1239" type="curve" smooth="yes"/>
      <point x="277" y="1239"/>
      <point x="77" y="1045"/>
      <point x="77" y="667" type="curve" smooth="yes"/>
      <point x="77" y="577" type="line"/>
    </contour>
    <contour>
      <point x="426" y="609" type="line"/>
      <point x="77" y="609" type="line"/>
      <point x="77" y="535" type="line" smooth="yes"/>
      <point x="77" y="156"/>
      <point x="277" y="-37"/>
      <point x="656" y="-37" type="curve" smooth="yes"/>
      <point x="1036" y="-37"/>
      <point x="1236" y="156"/>
      <point x="1236" y="535" type="curve" smooth="yes"/>
      <point x="1236" y="609" type="line"/>
      <point x="887" y="609" type="line"/>
      <point x="887" y="537" type="line" smooth="yes"/>
      <point x="887" y="360"/>
      <point x="809" y="269"/>
      <point x="656" y="269" type="curve" smooth="yes"/>
      <point x="503" y="269"/>
      <point x="426" y="360"/>
      <point x="426" y="537" type="curve" smooth="yes"/>
    </contour>
  </outline>
</glyph>
<glyph name="Aaru.kn" format="2">
  <advance width="1212"/>
  <unicode hex="0CEC"/>
  <outline>
    <contour>
      <point x="408" y="373" type="curve" smooth="yes"/>
      <point x="408" y="379" type="line" smooth="yes"/>
      <point x="408" y="449"/>
      <point x="450" y="479"/>
      <point x="556" y="480" type="curve" smooth="yes"/>
      <point x="809" y="483" type="line"/>
      <point x="809" y="746" type="line"/>
      <point x="546" y="749" type="line" smooth="yes"/>
      <point x="452" y="750"/>
      <point x="414" y="779"/>
      <point x="414" y="844" type="curve" smooth="yes"/>
      <point x="414" y="848" type="line" smooth="yes"/>
      <point x="414" y="913"/>
      <point x="459" y="942"/>
      <point x="552" y="942" type="curve" smooth="yes"/>
      <point x="629" y="942"/>
      <point x="702" y="934"/>
      <point x="762" y="917" type="curve"/>
      <point x="731" y="1200" type="line"/>
      <point x="644" y="1221"/>
      <point x="567" y="1229"/>
      <point x="492" y="1229" type="curve" smooth="yes"/>
      <point x="214" y="1229"/>
      <point x="72" y="1119"/>
      <point x="72" y="898" type="curve" smooth="yes"/>
      <point x="72" y="888" type="line" smooth="yes"/>
      <point x="72" y="727"/>
      <point x="150" y="635"/>
      <point x="298" y="617" type="curve"/>
      <point x="298" y="608" type="line"/>
      <point x="146" y="590"/>
      <point x="68" y="498"/>
      <point x="68" y="336" type="curve" smooth="yes"/>
      <point x="68" y="326" type="line" smooth="yes"/>
      <point x="68" y="111"/>
      <point x="210" y="0"/>
      <point x="502" y="0" type="curve" smooth="yes"/>
      <point x="1140" y="0" type="line"/>
      <point x="1190" y="271" type="line"/>
      <point x="563" y="271" type="line" smooth="yes"/>
      <point x="456" y="271"/>
      <point x="408" y="302"/>
    </contour>
  </outline>
</glyph>
<glyph name="endash" format="2">
  <advance width="976"/>
  <unicode hex="2013"/>
  <outline>
    <contour>
      <point x="897" y="368" type="line"/>
      <point x="897" y="648" type="line"/>
      <point x="79" y="648" type="line"/>
      <point x="79" y="368" type="line"/>
    </contour>
  </outline>
</glyph>
<glyph name="sevensuperior" format="2">
  <advance width="595"/>
  <unicode hex="2077"/>
  <outline>
    <contour>
      <point x="335" y="726" type="line"/>
      <point x="568" y="1209" type="line"/>
      <point x="568" y="1405" type="line"/>
      <point x="23" y="1405" type="line"/>
      <point x="23" y="1212" type="line"/>
      <point x="324" y="1212" type="line"/>
      <point x="79" y="726" type="line"/>
    </contour>
  </outline>
</glyph>
<glyph name="BamatraI.kn" format="2">
  <advance width="1717"/>
  <outline>
    <contour>
      <point x="493" y="1228" type="curve" smooth="yes"/>
      <point x="223" y="1228"/>
      <point x="78" y="1112"/>
      <point x="78" y="879" type="curve" smooth="yes"/>
      <point x="78" y="868" type="line" smooth="yes"/>
      <point x="78" y="801"/>
      <point x="94" y="738"/>
      <point x="114" y="701" type="curve"/>
      <point x="412" y="701" type="line"/>
      <point x="392" y="737"/>
      <point x="382" y="778"/>
      <point x="382" y="833" type="curve" smooth="yes"/>
      <point x="382" y="838" type="line" smooth="yes"/>
      <point x="382" y="914"/>
      <point x="418" y="948"/>
      <point x="488" y="948" type="curve" smooth="yes"/>
      <point x="557" y="948"/>
      <point x="589" y="918"/>
      <point x="589" y="856" type="curve" smooth="yes"/>
      <point x="589" y="850" type="line" smooth="yes"/>
      <point x="589" y="790"/>
      <point x="559" y="761"/>
      <point x="452" y="721" type="curve" smooth="yes"/>
      <point x="366" y="689" type="line" smooth="yes"/>
      <point x="152" y="609"/>
      <point x="58" y="509"/>
      <point x="58" y="332" type="curve" smooth="yes"/>
      <point x="58" y="321" type="line" smooth="yes"/>
      <point x="58" y="90"/>
      <point x="205" y="-32"/>
      <point x="473" y="-32" type="curve" smooth="yes"/>
      <point x="702" y="-32"/>
      <point x="826" y="63"/>
      <point x="846" y="238" type="curve"/>
      <point x="865" y="238" type="line"/>
      <point x="860" y="470" type="line"/>
      <point x="678" y="470" type="line"/>
      <point x="675" y="424" type="line" smooth="yes"/>
      <point x="668" y="321"/>
      <point x="618" y="270"/>
      <point x="512" y="270" type="curve" smooth="yes"/>
      <point x="430" y="270"/>
      <point x="390" y="299"/>
      <point x="390" y="348" type="curve" smooth="yes"/>
      <point x="390" y="353" type="line" smooth="yes"/>
      <point x="390" y="407"/>
      <point x="427" y="430"/>
      <point x="534" y="475" type="curve" smooth="yes"/>
      <point x="625" y="513" type="line" smooth="yes"/>
      <point x="820" y="595"/>
      <point x="904" y="685"/>
      <point x="904" y="858" type="curve" smooth="yes"/>
      <point x="904" y="868" type="line" smooth="yes"/>
      <point x="904" y="1103"/>
      <point x="761" y="1228"/>
    </contour>
    <contour>
      <point x="1632" y="475" type="curve" smooth="yes"/>
      <point x="1632" y="738" type="line" smooth="yes"/>
      <point x="1632" y="843"/>
      <point x="1631" y="956"/>
      <point x="1620" y="1061" type="curve" smooth="yes"/>
      <point x="1596" y="1287"/>
      <point x="1495" y="1475"/>
      <point x="1182" y="1475" type="curve" smooth="yes"/>
      <point x="926" y="1475"/>
      <point x="795" y="1357"/>
      <point x="795" y="1131" type="curve" smooth="yes"/>
      <point x="795" y="1126" type="line" smooth="yes"/>
      <point x="795" y="930"/>
      <point x="894" y="823"/>
      <point x="1070" y="823" type="curve" smooth="yes"/>
      <point x="1182" y="823"/>
      <point x="1251" y="870"/>
      <point x="1274" y="951" type="curve"/>
      <point x="1302" y="951" type="line"/>
      <point x="1284" y="1126" type="line"/>
      <point x="1262" y="1072"/>
      <point x="1225" y="1049"/>
      <point x="1178" y="1049" type="curve" smooth="yes"/>
      <point x="1122" y="1049"/>
      <point x="1095" y="1075"/>
      <point x="1095" y="1126" type="curve" smooth="yes"/>
      <point x="1095" y="1132" type="line" smooth="yes"/>
      <point x="1095" y="1189"/>
      <point x="1124" y="1216"/>
      <point x="1178" y="1216" type="curve" smooth="yes"/>
      <point x="1246" y="1216"/>
      <point x="1275" y="1175"/>
      <point x="1280" y="1090" type="curve" smooth="yes"/>
      <point x="1281" y="1066"/>
      <point x="1280" y="1051"/>
      <point x="1281" y="1027" type="curve"/>
      <point x="1283" y="1018"/>
      <point x="1286" y="1011"/>
      <point x="1287" y="1001" type="curve"/>
      <point x="1287" y="998"/>
      <point x="1288" y="973"/>
      <point x="1288" y="970" type="curve"/>
      <point x="1282" y="953" type="line"/>
      <point x="1282" y="878"/>
      <point x="1282" y="817"/>
      <point x="1282" y="732" type="curve" smooth="yes"/>
      <point x="1282" y="481" type="line" smooth="yes"/>
      <point x="1282" y="348"/>
      <point x="1244" y="281"/>
      <point x="1151" y="281" type="curve" smooth="yes"/>
      <point x="1067" y="281"/>
      <point x="1031" y="328"/>
      <point x="1025" y="423" type="curve" smooth="yes"/>
      <point x="1022" y="470" type="line"/>
      <point x="840" y="470" type="line"/>
      <point x="855" y="238" type="line"/>
      <point x="875" y="63"/>
      <point x="995" y="-32"/>
      <point x="1217" y="-32" type="curve" smooth="yes"/>
      <point x="1494" y="-32"/>
      <point x="1632" y="141"/>
    </contour>
  </outline>
  <guideline angle="90" x="476" y="0"/>
  <guideline angle="0" x="0" y="888"/>
</glyph>
<glyph name="BhaHalant.kn" format="2">
  <advance width="2434"/>
  <outline>
    <component base="BaHalant.kn"/>
    <contour>
      <point x="830" y="-443" type="curve" smooth="yes"/>
      <point x="949.978" y="-443"/>
      <point x="1012" y="-384"/>
      <point x="1012" y="-267" type="curve" smooth="yes"/>
      <point x="1012" y="-261" type="line" smooth="yes"/>
      <point x="1012" y="-150.723"/>
      <point x="949.978" y="-48.3941"/>
      <point x="830" y="44" type="curve"/>
      <point x="711.028" y="-48.3941"/>
      <point x="649" y="-150.723"/>
      <point x="649" y="-261" type="curve" smooth="yes"/>
      <point x="649" y="-267" type="line" smooth="yes"/>
      <point x="649" y="-384"/>
      <point x="710.011" y="-443"/>
    </contour>
  </outline>
  <guideline angle="90" x="1161" y="0"/>
  <guideline angle="90" x="838" y="0"/>
  <guideline angle="90" x="419" y="0"/>
  <guideline angle="90" x="82" y="0"/>
</glyph>
<glyph name="BhamatraE.kn" format="2">
  <advance width="1672"/>
  <outline>
    <component base="BamatraE.kn"/>
    <contour>
      <point x="828" y="-443" type="curve" smooth="yes"/>
      <point x="947.978" y="-443"/>
      <point x="1010" y="-384"/>
      <point x="1010" y="-267" type="curve" smooth="yes"/>
      <point x="1010" y="-261" type="line" smooth="yes"/>
      <point x="1010" y="-150.723"/>
      <point x="947.978" y="-48.3941"/>
      <point x="828" y="44" type="curve"/>
      <point x="709.028" y="-48.3941"/>
      <point x="647" y="-150.723"/>
      <point x="647" y="-261" type="curve" smooth="yes"/>
      <point x="647" y="-267" type="line" smooth="yes"/>
      <point x="647" y="-384"/>
      <point x="708.011" y="-443"/>
    </contour>
  </outline>
  <guideline angle="0" x="0" y="-274"/>
  <guideline angle="90" x="-2146" y="0"/>
</glyph>
<glyph name="Casmall1.kn" format="2">
  <advance width="203"/>
  <outline>
    <contour>
      <point x="164" y="-303" type="line"/>
      <point x="-46" y="-308" type="line"/>
      <point x="-46" y="-360" type="line"/>
      <point x="18" y="-360"/>
      <point x="45" y="-389"/>
      <point x="47" y="-469" type="curve" smooth="yes"/>
      <point x="47" y="-490" type="line" smooth="yes"/>
      <point x="49" y="-557"/>
      <point x="31" y="-592"/>
      <point x="-18" y="-592" type="curve" smooth="yes"/>
      <point x="-59" y="-592"/>
      <point x="-77" y="-569"/>
      <point x="-81" y="-525" type="curve" smooth="yes"/>
      <point x="-83" y="-501" type="line"/>
      <point x="-198" y="-501" type="line"/>
      <point x="-188" y="-649" type="line"/>
      <point x="-170" y="-738"/>
      <point x="-102" y="-784"/>
      <point x="26" y="-784" type="curve" smooth="yes"/>
      <point x="187" y="-784"/>
      <point x="271" y="-702"/>
      <point x="271" y="-543" type="curve" smooth="yes"/>
      <point x="271" y="-531" type="line" smooth="yes"/>
      <point x="271" y="-438"/>
      <point x="243" y="-383"/>
      <point x="164" y="-361" type="curve"/>
    </contour>
    <contour>
      <point x="310" y="-361" type="line"/>
      <point x="310" y="-176" type="line"/>
      <point x="148" y="-182" type="line"/>
      <point x="8" y="-210" type="line"/>
      <point x="3" y="-176" type="line"/>
      <point x="-107" y="-176" type="line"/>
      <point x="-107" y="-360" type="line"/>
      <point x="-26" y="-360" type="line"/>
      <point x="-26" y="-329" type="line"/>
      <point x="164" y="-357" type="line"/>
    </contour>
    <contour>
      <point x="148" y="-230" type="line"/>
      <point x="148" y="-177" type="line"/>
      <point x="217" y="-160"/>
      <point x="243" y="-97"/>
      <point x="243" y="-18" type="curve" smooth="yes"/>
      <point x="243" y="11" type="line" smooth="yes"/>
      <point x="243" y="84"/>
      <point x="226" y="157"/>
      <point x="196" y="206" type="curve"/>
      <point x="-24" y="206" type="line"/>
      <point x="0" y="155"/>
      <point x="15" y="78"/>
      <point x="15" y="-1" type="curve" smooth="yes"/>
      <point x="15" y="-40" type="line" smooth="yes"/>
      <point x="15" y="-136"/>
      <point x="-6" y="-176"/>
      <point x="-53" y="-176" type="curve"/>
      <point x="-52" y="-227" type="line"/>
    </contour>
    <contour>
      <point x="-391" y="-96" type="curve" smooth="yes"/>
      <point x="-554" y="-96"/>
      <point x="-643" y="-162"/>
      <point x="-643" y="-289" type="curve"/>
      <point x="-643" y="-289"/>
      <point x="-643" y="-290"/>
      <point x="-643" y="-290" type="curve"/>
      <point x="-643" y="-324"/>
      <point x="-634" y="-355"/>
      <point x="-622" y="-374" type="curve"/>
      <point x="-436" y="-374" type="line"/>
      <point x="-445" y="-358"/>
      <point x="-450" y="-337"/>
      <point x="-450" y="-316" type="curve"/>
      <point x="-450" y="-316"/>
      <point x="-450" y="-315"/>
      <point x="-450" y="-315" type="curve"/>
      <point x="-450" y="-279"/>
      <point x="-432" y="-262"/>
      <point x="-392" y="-262" type="curve" smooth="yes"/>
      <point x="-359" y="-262"/>
      <point x="-342" y="-276"/>
      <point x="-342" y="-305" type="curve"/>
      <point x="-342" y="-306" type="line"/>
      <point x="-342" y="-331"/>
      <point x="-358.87" y="-345.403"/>
      <point x="-408" y="-361" type="curve" smooth="yes"/>
      <point x="-471" y="-381" type="line" smooth="yes"/>
      <point x="-599.106" y="-421.668"/>
      <point x="-656" y="-478"/>
      <point x="-656" y="-584" type="curve" smooth="yes"/>
      <point x="-656" y="-587" type="line" smooth="yes"/>
      <point x="-656" y="-713"/>
      <point x="-567" y="-784"/>
      <point x="-409" y="-784" type="curve" smooth="yes"/>
      <point x="-280" y="-784"/>
      <point x="-209" y="-736"/>
      <point x="-193" y="-649" type="curve"/>
      <point x="-154" y="-649" type="line"/>
      <point x="-175" y="-501" type="line"/>
      <point x="-298" y="-501" type="line"/>
      <point x="-301" y="-530" type="line" smooth="yes"/>
      <point x="-306.068" y="-578.993"/>
      <point x="-330" y="-600"/>
      <point x="-385" y="-600" type="curve" smooth="yes"/>
      <point x="-424" y="-600"/>
      <point x="-443" y="-585"/>
      <point x="-443" y="-564" type="curve"/>
      <point x="-443" y="-563" type="line"/>
      <point x="-443" y="-540"/>
      <point x="-426" y="-528"/>
      <point x="-369" y="-507" type="curve" smooth="yes"/>
      <point x="-312" y="-486" type="line" smooth="yes"/>
      <point x="-195.914" y="-443.232"/>
      <point x="-142" y="-392"/>
      <point x="-142" y="-302" type="curve" smooth="yes"/>
      <point x="-142" y="-297" type="line" smooth="yes"/>
      <point x="-142" y="-167"/>
      <point x="-230" y="-96"/>
    </contour>
  </outline>
  <guideline angle="0" x="0" y="-348"/>
  <guideline angle="0" x="0" y="-381"/>
  <guideline angle="90" x="-286" y="0"/>
</glyph>
<glyph name="DdamatraU.kn" format="2">
  <advance width="2314"/>
  <outline>
    <component base="Dda.kn"/>
    <contour>
      <point x="1806" y="1203" type="curve" smooth="yes"/>
      <point x="1764" y="1203"/>
      <point x="1726" y="1201"/>
      <point x="1689" y="1195" type="curve"/>
      <point x="1689" y="886" type="line"/>
      <point x="1705" y="889"/>
      <point x="1721" y="890"/>
      <point x="1737" y="890" type="curve" smooth="yes"/>
      <point x="1840" y="890"/>
      <point x="1884" y="828"/>
      <point x="1884" y="683" type="curve" smooth="yes"/>
      <point x="1884" y="502" type="line" smooth="yes"/>
      <point x="1884" y="352"/>
      <point x="1837" y="276"/>
      <point x="1710" y="276" type="curve" smooth="yes"/>
      <point x="1611" y="276"/>
      <point x="1562" y="328"/>
      <point x="1548" y="414" type="curve"/>
      <point x="1548" y="415" type="line"/>
      <point x="1437" y="415" type="line"/>
      <point x="1437" y="383" type="line" smooth="yes"/>
      <point x="1437" y="117"/>
      <point x="1561" y="-32"/>
      <point x="1810" y="-32" type="curve" smooth="yes"/>
      <point x="2099" y="-32"/>
      <point x="2234" y="146"/>
      <point x="2234" y="490" type="curve" smooth="yes"/>
      <point x="2234" y="684" type="line" smooth="yes"/>
      <point x="2234" y="1029"/>
      <point x="2095" y="1203"/>
    </contour>
  </outline>
</glyph>
<glyph name="DdhamatraAa.kn" format="2">
  <advance width="2581"/>
  <outline>
    <component base="DdamatraAa.kn"/>
    <contour>
      <point x="810" y="-443" type="curve" smooth="yes"/>
      <point x="929.978" y="-443"/>
      <point x="992" y="-384"/>
      <point x="992" y="-267" type="curve" smooth="yes"/>
      <point x="992" y="-261" type="line" smooth="yes"/>
      <point x="992" y="-150.723"/>
      <point x="929.978" y="-48.3941"/>
      <point x="810" y="44" type="curve"/>
      <point x="691.028" y="-48.3941"/>
      <point x="629" y="-150.723"/>
      <point x="629" y="-261" type="curve" smooth="yes"/>
      <point x="629" y="-267" type="line" smooth="yes"/>
      <point x="629" y="-384"/>
      <point x="690.011" y="-443"/>
    </contour>
  </outline>
  <guideline angle="0" x="0" y="-274"/>
  <guideline angle="90" x="112" y="0"/>
</glyph>
<glyph name="DhamatraE.kn" format="2">
  <advance width="1620"/>
  <outline>
    <component base="DamatraE.kn"/>
    <contour>
      <point x="806" y="-443" type="curve" smooth="yes"/>
      <point x="925.978" y="-443"/>
      <point x="988" y="-384"/>
      <point x="988" y="-267" type="curve" smooth="yes"/>
      <point x="988" y="-261" type="line" smooth="yes"/>
      <point x="988" y="-150.723"/>
      <point x="925.978" y="-48.3941"/>
      <point x="806" y="44" type="curve"/>
      <point x="687.028" y="-48.3941"/>
      <point x="625" y="-150.723"/>
      <point x="625" y="-261" type="curve" smooth="yes"/>
      <point x="625" y="-267" type="line" smooth="yes"/>
      <point x="625" y="-384"/>
      <point x="686.011" y="-443"/>
    </contour>
  </outline>
  <guideline angle="0" x="0" y="-274"/>
  <guideline angle="90" x="-6616" y="0"/>
</glyph>
<glyph name="Ek" format="2">
  <advance width="1992"/>
  <outline>
    <contour>
      <point x="1391.08" y="1055.21" type="line"/>
      <point x="2052.92" y="1055.21" type="line"/>
      <point x="2035.68" y="1287" type="line"/>
      <point x="-60" y="1287" type="line"/>
      <point x="-42.7595" y="1055.21" type="line"/>
      <point x="85.5866" y="1055.21" type="line"/>
      <point x="85.5866" y="542.784" type="line" smooth="yes"/>
      <point x="85.5866" y="-20.7858"/>
      <point x="389.587" y="-281.623"/>
      <point x="1061.01" y="-281.623" type="curve" smooth="yes"/>
      <point x="1211.35" y="-281.623"/>
      <point x="1373.81" y="-267.403"/>
      <point x="1545.28" y="-233.039" type="curve"/>
      <point x="1574.02" y="36.1043" type="line"/>
      <point x="1393.72" y="6.39877"/>
      <point x="1227.85" y="-10.0051"/>
      <point x="1080.46" y="-10.0051" type="curve" smooth="yes"/>
      <point x="612.58" y="-10.0051"/>
      <point x="405.494" y="159.904"/>
      <point x="405.494" y="544.7" type="curve" smooth="yes"/>
      <point x="405.494" y="1055.21" type="line"/>
      <point x="1078.83" y="1055.21" type="line"/>
      <point x="1078.66" y="542.579" type="line"/>
      <point x="1060.88" y="492.664"/>
      <point x="1016.1" y="461.906"/>
      <point x="944.305" y="461.906" type="curve" smooth="yes"/>
      <point x="858.061" y="461.906"/>
      <point x="823.564" y="495.131"/>
      <point x="823.564" y="579.116" type="curve" smooth="yes"/>
      <point x="823.564" y="593.542" type="line" smooth="yes"/>
      <point x="823.564" y="674.339"/>
      <point x="857.154" y="710.652"/>
      <point x="943.397" y="710.652" type="curve" smooth="yes"/>
      <point x="967.909" y="710.652"/>
      <point x="985.158" y="708.836"/>
      <point x="1004.22" y="705.155" type="curve"/>
      <point x="986.973" y="941.241" type="line"/>
      <point x="950.66" y="952.135"/>
      <point x="904.361" y="958.49"/>
      <point x="849.891" y="958.49" type="curve" smooth="yes"/>
      <point x="623.841" y="958.49"/>
      <point x="507.639" y="843.195"/>
      <point x="507.639" y="595.357" type="curve" smooth="yes"/>
      <point x="507.639" y="569.13" type="line" smooth="yes"/>
      <point x="507.639" y="323.613"/>
      <point x="620.21" y="210.437"/>
      <point x="819.025" y="210.437" type="curve" smooth="yes"/>
      <point x="967.909" y="210.437"/>
      <point x="1040.54" y="273.078"/>
      <point x="1067.77" y="380.202" type="curve"/>
      <point x="1078.66" y="380.202" type="line"/>
      <point x="1078.66" y="116.931" type="line"/>
      <point x="1390.96" y="116.931" type="line"/>
      <point x="1390.96" y="621.431" type="line"/>
      <point x="1408.57" y="675.137"/>
      <point x="1457.96" y="707.021"/>
      <point x="1524.41" y="707.021" type="curve" smooth="yes"/>
      <point x="1607.93" y="707.021"/>
      <point x="1641.52" y="667.984"/>
      <point x="1641.52" y="588.095" type="curve" smooth="yes"/>
      <point x="1641.52" y="575.385" type="line" smooth="yes"/>
      <point x="1641.52" y="492.773"/>
      <point x="1609.75" y="458.275"/>
      <point x="1525.32" y="458.275" type="curve" smooth="yes"/>
      <point x="1502.62" y="458.275"/>
      <point x="1486.28" y="460.091"/>
      <point x="1465.4" y="462.814" type="curve"/>
      <point x="1483.56" y="225.87" type="line"/>
      <point x="1518.96" y="215.884"/>
      <point x="1563.45" y="210.437"/>
      <point x="1620.64" y="210.437" type="curve" smooth="yes"/>
      <point x="1848.5" y="210.437"/>
      <point x="1957.44" y="325.732"/>
      <point x="1957.44" y="573.57" type="curve" smooth="yes"/>
      <point x="1957.44" y="599.897" type="line" smooth="yes"/>
      <point x="1957.44" y="836.84"/>
      <point x="1855.77" y="958.49"/>
      <point x="1660.58" y="958.49" type="curve" smooth="yes"/>
      <point x="1512.61" y="958.49"/>
      <point x="1430.9" y="892.218"/>
      <point x="1401.85" y="781.463" type="curve"/>
      <point x="1390.96" y="781.463" type="line"/>
    </contour>
  </outline>
</glyph>
<glyph name="GamatraAu.kn" format="2">
  <advance width="2189"/>
  <outline>
    <component base="matraAu.kn" xOffset="635"/>
    <contour>
      <point x="329" y="941" type="line"/>
      <point x="329" y="914" type="line"/>
      <point x="173" y="883"/>
      <point x="98" y="767"/>
      <point x="98" y="546" type="curve" smooth="yes"/>
      <point x="98" y="0" type="line"/>
      <point x="450" y="0" type="line"/>
      <point x="450" y="646" type="line" smooth="yes"/>
      <point x="450" y="834"/>
      <point x="519" y="922"/>
      <point x="667" y="922" type="curve" smooth="yes"/>
      <point x="815" y="922"/>
      <point x="883" y="834"/>
      <point x="883" y="646" type="curve" smooth="yes"/>
      <point x="883" y="0" type="line"/>
      <point x="1235" y="0" type="line"/>
      <point x="1235" y="546" type="line" smooth="yes"/>
      <point x="1235" y="767"/>
      <point x="1160" y="883"/>
      <point x="1004" y="914" type="curve"/>
      <point x="1004" y="941" type="line"/>
    </contour>
    <contour>
      <point x="76" y="1191" type="line"/>
      <point x="76" y="922" type="line"/>
      <point x="942" y="922" type="line"/>
      <point x="940" y="1191" type="line"/>
    </contour>
  </outline>
  <guideline angle="90" x="596" y="0"/>
</glyph>
<glyph name="JamatraAu.kn" format="2">
  <advance width="2534"/>
  <anchor x="830" y="0" name="nukta"/>
  <outline>
    <contour>
      <point x="1235" y="410" type="curve" smooth="yes"/>
      <point x="1235" y="405" type="line" smooth="yes"/>
      <point x="1235" y="323"/>
      <point x="1199" y="281"/>
      <point x="1124" y="281" type="curve" smooth="yes"/>
      <point x="1045" y="281"/>
      <point x="1010" y="326"/>
      <point x="1005" y="414" type="curve" smooth="yes"/>
      <point x="1002" y="470" type="line"/>
      <point x="820" y="470" type="line"/>
      <point x="834" y="247" type="line" smooth="yes"/>
      <point x="848" y="65"/>
      <point x="966" y="-32"/>
      <point x="1190" y="-32" type="curve" smooth="yes"/>
      <point x="1447" y="-32"/>
      <point x="1583" y="98"/>
      <point x="1583" y="341" type="curve" smooth="yes"/>
      <point x="1583" y="348" type="line" smooth="yes"/>
      <point x="1583" y="400"/>
      <point x="1575" y="449"/>
      <point x="1558" y="494" type="curve"/>
      <point x="1225" y="494" type="line"/>
      <point x="1232" y="468"/>
      <point x="1235" y="435"/>
    </contour>
    <contour>
      <point x="493" y="1228" type="curve" smooth="yes"/>
      <point x="223" y="1228"/>
      <point x="78" y="1112"/>
      <point x="78" y="879" type="curve" smooth="yes"/>
      <point x="78" y="868" type="line" smooth="yes"/>
      <point x="78" y="801"/>
      <point x="94" y="738"/>
      <point x="114" y="701" type="curve"/>
      <point x="412" y="701" type="line"/>
      <point x="392" y="737"/>
      <point x="382" y="778"/>
      <point x="382" y="833" type="curve" smooth="yes"/>
      <point x="382" y="838" type="line" smooth="yes"/>
      <point x="382" y="914"/>
      <point x="418" y="948"/>
      <point x="488" y="948" type="curve" smooth="yes"/>
      <point x="557" y="948"/>
      <point x="589" y="918"/>
      <point x="589" y="856" type="curve" smooth="yes"/>
      <point x="589" y="850" type="line" smooth="yes"/>
      <point x="589" y="790"/>
      <point x="559" y="761"/>
      <point x="452" y="721" type="curve" smooth="yes"/>
      <point x="366" y="689" type="line" smooth="yes"/>
      <point x="152" y="609"/>
      <point x="58" y="509"/>
      <point x="58" y="332" type="curve" smooth="yes"/>
      <point x="58" y="321" type="line" smooth="yes"/>
      <point x="58" y="90"/>
      <point x="201" y="-32"/>
      <point x="463" y="-32" type="curve" smooth="yes"/>
      <point x="686" y="-32"/>
      <point x="807" y="61"/>
      <point x="826" y="233" type="curve"/>
      <point x="843" y="233" type="line"/>
      <point x="843" y="470" type="line"/>
      <point x="658" y="470" type="line"/>
      <point x="655" y="414" type="line" smooth="yes"/>
      <point x="650" y="318"/>
      <point x="602" y="270"/>
      <point x="502" y="270" type="curve" smooth="yes"/>
      <point x="426" y="270"/>
      <point x="390" y="299"/>
      <point x="390" y="348" type="curve" smooth="yes"/>
      <point x="390" y="353" type="line" smooth="yes"/>
      <point x="390" y="407"/>
      <point x="427" y="430"/>
      <point x="534" y="475" type="curve" smooth="yes"/>
      <point x="625" y="513" type="line" smooth="yes"/>
      <point x="820" y="595"/>
      <point x="904" y="685"/>
      <point x="904" y="858" type="curve" smooth="yes"/>
      <point x="904" y="868" type="line" smooth="yes"/>
      <point x="904" y="1103"/>
      <point x="761" y="1228"/>
    </contour>
    <contour>
      <point x="1371" y="922" type="line" smooth="yes"/>
      <point x="1543" y="922"/>
      <point x="1638" y="1005"/>
      <point x="1638" y="1160" type="curve" smooth="yes"/>
      <point x="1638" y="1164" type="line" smooth="yes"/>
      <point x="1638" y="1274"/>
      <point x="1586" y="1341"/>
      <point x="1486" y="1359" type="curve"/>
      <point x="1486" y="1401.5" type="line"/>
      <point x="1208" y="1401.5" type="line"/>
      <point x="1208" y="1399"/>
      <point x="1206" y="1371"/>
      <point x="1206" y="1369" type="curve"/>
      <point x="1273" y="1369"/>
      <point x="1304" y="1340"/>
      <point x="1304" y="1281" type="curve" smooth="yes"/>
      <point x="1304" y="1278" type="line" smooth="yes"/>
      <point x="1304" y="1219"/>
      <point x="1273" y="1191"/>
      <point x="1206" y="1191" type="curve" smooth="yes"/>
      <point x="1161" y="1191" type="line"/>
      <point x="1161" y="922" type="line"/>
    </contour>
    <contour>
      <point x="2174" y="969" type="line"/>
      <point x="2174" y="833" type="line" smooth="yes"/>
      <point x="2174" y="742"/>
      <point x="2154" y="699"/>
      <point x="2088" y="699" type="curve" smooth="yes"/>
      <point x="2030" y="699"/>
      <point x="2002" y="733"/>
      <point x="2002" y="802" type="curve" smooth="yes"/>
      <point x="2002" y="827" type="line" smooth="yes"/>
      <point x="2002" y="891"/>
      <point x="2027" y="926"/>
      <point x="2083" y="926" type="curve" smooth="yes"/>
      <point x="2136" y="926"/>
      <point x="2170" y="896"/>
      <point x="2195" y="838" type="curve"/>
      <point x="2214" y="1009" type="line"/>
      <point x="2160" y="1009" type="line"/>
      <point x="2138" y="1120"/>
      <point x="2063" y="1175"/>
      <point x="1948" y="1175" type="curve" smooth="yes"/>
      <point x="1774" y="1175"/>
      <point x="1688" y="1054"/>
      <point x="1688" y="834" type="curve" smooth="yes"/>
      <point x="1688" y="799" type="line" smooth="yes"/>
      <point x="1688" y="555"/>
      <point x="1824" y="430"/>
      <point x="2087" y="430" type="curve" smooth="yes"/>
      <point x="2363" y="430"/>
      <point x="2499" y="580"/>
      <point x="2499" y="865" type="curve" smooth="yes"/>
      <point x="2499" y="980" type="line"/>
    </contour>
    <contour>
      <point x="1065" y="1632" type="line"/>
      <point x="1065" y="1369" type="line"/>
      <point x="1800" y="1369" type="line" smooth="yes"/>
      <point x="2049" y="1369"/>
      <point x="2170" y="1257"/>
      <point x="2170" y="1011" type="curve" smooth="yes"/>
      <point x="2170" y="963" type="line"/>
      <point x="2499" y="975" type="line"/>
      <point x="2499" y="1011" type="line" smooth="yes"/>
      <point x="2499" y="1424"/>
      <point x="2275" y="1632"/>
      <point x="1807" y="1632" type="curve" smooth="yes"/>
    </contour>
    <contour>
      <point x="1007" y="1191" type="line"/>
      <point x="1007" y="922" type="line"/>
      <point x="1109" y="922" type="line" smooth="yes"/>
      <point x="1173" y="922"/>
      <point x="1200" y="902"/>
      <point x="1200" y="855" type="curve" smooth="yes"/>
      <point x="1200" y="850" type="line" smooth="yes"/>
      <point x="1200" y="805"/>
      <point x="1168" y="782"/>
      <point x="1107" y="782" type="curve" smooth="yes"/>
      <point x="994" y="782"/>
      <point x="927" y="826"/>
      <point x="893" y="920" type="curve"/>
      <point x="893" y="921" type="line"/>
      <point x="786" y="851" type="line"/>
      <point x="786" y="846" type="line" smooth="yes"/>
      <point x="786" y="625"/>
      <point x="925" y="508"/>
      <point x="1188" y="508" type="curve" smooth="yes"/>
      <point x="1398" y="508"/>
      <point x="1526" y="588"/>
      <point x="1526" y="743" type="curve" smooth="yes"/>
      <point x="1526" y="750" type="line" smooth="yes"/>
      <point x="1526" y="849"/>
      <point x="1474" y="904"/>
      <point x="1381" y="914" type="curve"/>
      <point x="1381" y="984" type="line"/>
      <point x="1319" y="1191" type="line"/>
    </contour>
  </outline>
  <guideline angle="0" x="0" y="798"/>
</glyph>
<glyph name="Jhasmall1.kn" format="2">
  <outline>
    <contour>
      <point x="101" y="-110" type="curve" smooth="yes"/>
      <point x="81" y="-110"/>
      <point x="65" y="-112"/>
      <point x="50" y="-114" type="curve"/>
      <point x="50" y="-299" type="line"/>
      <point x="53" y="-299"/>
      <point x="57" y="-299"/>
      <point x="60" y="-299" type="curve" smooth="yes"/>
      <point x="110" y="-299"/>
      <point x="133" y="-326"/>
      <point x="133" y="-400" type="curve" smooth="yes"/>
      <point x="133" y="-490" type="line" smooth="yes"/>
      <point x="133" y="-557"/>
      <point x="116" y="-591"/>
      <point x="65" y="-591" type="curve" smooth="yes"/>
      <point x="18" y="-591"/>
      <point x="-2" y="-564"/>
      <point x="-2" y="-509" type="curve" smooth="yes"/>
      <point x="-2" y="-467" type="line"/>
      <point x="-75" y="-501" type="line"/>
      <point x="-75" y="-629" type="line"/>
      <point x="-58" y="-731"/>
      <point x="5" y="-784"/>
      <point x="124" y="-784" type="curve" smooth="yes"/>
      <point x="276" y="-784"/>
      <point x="354" y="-680"/>
      <point x="354" y="-499" type="curve" smooth="yes"/>
      <point x="354" y="-398" type="line" smooth="yes"/>
      <point x="354" y="-203"/>
      <point x="270" y="-110"/>
    </contour>
    <contour>
      <point x="457" y="-110" type="curve" smooth="yes"/>
      <point x="437" y="-110"/>
      <point x="421" y="-112"/>
      <point x="406" y="-114" type="curve"/>
      <point x="406" y="-299" type="line"/>
      <point x="409" y="-299"/>
      <point x="413" y="-299"/>
      <point x="416" y="-299" type="curve" smooth="yes"/>
      <point x="466" y="-299"/>
      <point x="489" y="-326"/>
      <point x="489" y="-400" type="curve" smooth="yes"/>
      <point x="489" y="-490" type="line" smooth="yes"/>
      <point x="489" y="-557"/>
      <point x="472" y="-591"/>
      <point x="421" y="-591" type="curve" smooth="yes"/>
      <point x="374" y="-591"/>
      <point x="354" y="-564"/>
      <point x="354" y="-509" type="curve" smooth="yes"/>
      <point x="354" y="-467" type="line"/>
      <point x="301" y="-501" type="line"/>
      <point x="301" y="-629" type="line"/>
      <point x="317" y="-731"/>
      <point x="377" y="-784"/>
      <point x="490" y="-784" type="curve" smooth="yes"/>
      <point x="635" y="-784"/>
      <point x="710" y="-688"/>
      <point x="710" y="-503" type="curve" smooth="yes"/>
      <point x="710" y="-398" type="line" smooth="yes"/>
      <point x="710" y="-203"/>
      <point x="626" y="-110"/>
    </contour>
    <contour>
      <point x="-307" y="-96" type="curve" smooth="yes"/>
      <point x="-506" y="-96"/>
      <point x="-612" y="-198"/>
      <point x="-612" y="-398" type="curve" smooth="yes"/>
      <point x="-612" y="-483" type="line" smooth="yes"/>
      <point x="-612" y="-682"/>
      <point x="-506" y="-785"/>
      <point x="-307" y="-785" type="curve" smooth="yes"/>
      <point x="-108" y="-785"/>
      <point x="-2" y="-677"/>
      <point x="-2" y="-483" type="curve" smooth="yes"/>
      <point x="-2" y="-398" type="line" smooth="yes"/>
      <point x="-2" y="-198"/>
      <point x="-108" y="-96"/>
    </contour>
    <contour>
      <point x="-307" y="-595" type="curve" smooth="yes"/>
      <point x="-364" y="-595"/>
      <point x="-391" y="-560"/>
      <point x="-391" y="-484" type="curve" smooth="yes"/>
      <point x="-391" y="-396" type="line" smooth="yes"/>
      <point x="-391" y="-320"/>
      <point x="-364" y="-286"/>
      <point x="-307" y="-286" type="curve" smooth="yes"/>
      <point x="-251" y="-286"/>
      <point x="-223" y="-320"/>
      <point x="-223" y="-396" type="curve" smooth="yes"/>
      <point x="-223" y="-484" type="line" smooth="yes"/>
      <point x="-223" y="-560"/>
      <point x="-251" y="-595"/>
    </contour>
    <contour>
      <point x="309" y="-750" type="curve"/>
      <point x="233" y="-807"/>
      <point x="193" y="-863"/>
      <point x="193" y="-931" type="curve" smooth="yes"/>
      <point x="193" y="-934" type="line" smooth="yes"/>
      <point x="193" y="-1002"/>
      <point x="231" y="-1036"/>
      <point x="309" y="-1036" type="curve" smooth="yes"/>
      <point x="384" y="-1036"/>
      <point x="425" y="-1002"/>
      <point x="425" y="-934" type="curve" smooth="yes"/>
      <point x="425" y="-931" type="line" smooth="yes"/>
      <point x="425" y="-863"/>
      <point x="384" y="-807"/>
    </contour>
  </outline>
</glyph>
<glyph name="KamatraU.kn" format="2">
  <advance width="1943"/>
  <outline>
    <component base="Ka.kn"/>
    <contour>
      <point x="1434" y="1203" type="curve" smooth="yes"/>
      <point x="1392" y="1203"/>
      <point x="1354" y="1200"/>
      <point x="1317" y="1194" type="curve"/>
      <point x="1317" y="886" type="line"/>
      <point x="1333" y="889"/>
      <point x="1349" y="890"/>
      <point x="1365" y="890" type="curve" smooth="yes"/>
      <point x="1467" y="890"/>
      <point x="1513" y="828"/>
      <point x="1513" y="683" type="curve" smooth="yes"/>
      <point x="1513" y="516" type="line" smooth="yes"/>
      <point x="1513" y="355"/>
      <point x="1461" y="273"/>
      <point x="1322" y="273" type="curve" smooth="yes"/>
      <point x="1211" y="273"/>
      <point x="1155" y="323"/>
      <point x="1128" y="403" type="curve"/>
      <point x="1013" y="399" type="line"/>
      <point x="1013" y="387" type="line" smooth="yes"/>
      <point x="1013" y="115"/>
      <point x="1147" y="-35"/>
      <point x="1415" y="-35" type="curve" smooth="yes"/>
      <point x="1720" y="-35"/>
      <point x="1863" y="149"/>
      <point x="1863" y="504" type="curve" smooth="yes"/>
      <point x="1863" y="684" type="line" smooth="yes"/>
      <point x="1863" y="1029"/>
      <point x="1723" y="1203"/>
    </contour>
  </outline>
</glyph>
<glyph name="KhaHalant.kn" format="2">
  <advance width="2507"/>
  <outline>
    <component base="Halant.kn" xOffset="1724"/>
    <contour>
      <point x="1250" y="-32" type="curve" smooth="yes"/>
      <point x="1529" y="-32"/>
      <point x="1659" y="136.994"/>
      <point x="1659" y="471" type="curve" smooth="yes"/>
      <point x="1659" y="569" type="line" smooth="yes"/>
      <point x="1659" y="770.002"/>
      <point x="1587" y="883"/>
      <point x="1435" y="915" type="curve"/>
      <point x="1435" y="941" type="line"/>
      <point x="1091" y="941" type="line"/>
      <point x="1091" y="922" type="line"/>
      <point x="1238" y="922"/>
      <point x="1308.5" y="843"/>
      <point x="1308.5" y="681" type="curve" smooth="yes"/>
      <point x="1308.5" y="483" type="line" smooth="yes"/>
      <point x="1308.5" y="345"/>
      <point x="1267" y="275"/>
      <point x="1164" y="275" type="curve" smooth="yes"/>
      <point x="1064" y="275"/>
      <point x="1018" y="335"/>
      <point x="1018" y="452" type="curve" smooth="yes"/>
      <point x="1018" y="537" type="line"/>
      <point x="890" y="512" type="line"/>
      <point x="890" y="343" type="line" smooth="yes"/>
      <point x="890" y="101"/>
      <point x="1014" y="-32"/>
    </contour>
    <contour>
      <point x="1324" y="922" type="line"/>
      <point x="1324" y="1191" type="line"/>
      <point x="1063" y="1191" type="line"/>
      <point x="1063" y="922" type="line"/>
    </contour>
    <contour>
      <point x="481" y="-32" type="curve" smooth="yes"/>
      <point x="775" y="-32"/>
      <point x="952" y="101"/>
      <point x="952" y="338" type="curve"/>
      <point x="847" y="293" type="line"/>
      <point x="993" y="293" type="line"/>
      <point x="1010" y="360"/>
      <point x="1018" y="461"/>
      <point x="1018" y="524" type="curve" smooth="yes"/>
      <point x="1018" y="723" type="line" smooth="yes"/>
      <point x="1018" y="1055"/>
      <point x="858" y="1228"/>
      <point x="529" y="1228" type="curve" smooth="yes"/>
      <point x="232" y="1228"/>
      <point x="80" y="1094"/>
      <point x="80" y="846" type="curve" smooth="yes"/>
      <point x="80" y="835" type="line" smooth="yes"/>
      <point x="80" y="785"/>
      <point x="88" y="734"/>
      <point x="106" y="699" type="curve"/>
      <point x="429" y="699" type="line"/>
      <point x="422" y="721"/>
      <point x="415" y="754"/>
      <point x="415" y="793" type="curve" smooth="yes"/>
      <point x="415" y="797" type="line" smooth="yes"/>
      <point x="415" y="885"/>
      <point x="455" y="928"/>
      <point x="539" y="928" type="curve" smooth="yes"/>
      <point x="639" y="928"/>
      <point x="675" y="862"/>
      <point x="675" y="729" type="curve" smooth="yes"/>
      <point x="675" y="540" type="line"/>
      <point x="676" y="487"/>
      <point x="672" y="467"/>
      <point x="664" y="404" type="curve"/>
      <point x="664" y="400"/>
      <point x="664" y="374"/>
      <point x="664" y="371" type="curve"/>
      <point x="641" y="272"/>
      <point x="592" y="231"/>
      <point x="509" y="231" type="curve" smooth="yes"/>
      <point x="427" y="231"/>
      <point x="392" y="258"/>
      <point x="392" y="318" type="curve" smooth="yes"/>
      <point x="392" y="323" type="line" smooth="yes"/>
      <point x="392" y="384"/>
      <point x="428" y="413"/>
      <point x="501" y="413" type="curve" smooth="yes"/>
      <point x="575" y="413"/>
      <point x="643" y="376"/>
      <point x="676" y="324" type="curve"/>
      <point x="713" y="523" type="line"/>
      <point x="660" y="610"/>
      <point x="573" y="661"/>
      <point x="414" y="661" type="curve" smooth="yes"/>
      <point x="173" y="661"/>
      <point x="58" y="548"/>
      <point x="58" y="332" type="curve" smooth="yes"/>
      <point x="58" y="321" type="line" smooth="yes"/>
      <point x="58" y="90"/>
      <point x="199" y="-32"/>
    </contour>
  </outline>
  <guideline angle="90" x="368" y="0"/>
  <guideline angle="90" x="356" y="0"/>
  <guideline angle="0" x="0" y="219"/>
  <guideline angle="0" x="0" y="484"/>
  <guideline angle="90" x="790" y="0"/>
</glyph>
<glyph name="KhamatraI.kn.1" format="2">
  <advance width="1799"/>
  <outline>
    <contour>
      <point x="1264" y="1476" type="curve" smooth="yes"/>
      <point x="1008" y="1476"/>
      <point x="877" y="1357"/>
      <point x="877" y="1131" type="curve" smooth="yes"/>
      <point x="877" y="1126" type="line" smooth="yes"/>
      <point x="877" y="930"/>
      <point x="982.869" y="823"/>
      <point x="1173" y="823" type="curve" smooth="yes"/>
      <point x="1289.21" y="823"/>
      <point x="1372.37" y="876.962"/>
      <point x="1393" y="991" type="curve"/>
      <point x="1365" y="1126" type="line"/>
      <point x="1343" y="1072"/>
      <point x="1307" y="1049"/>
      <point x="1260" y="1049" type="curve" smooth="yes"/>
      <point x="1204" y="1049"/>
      <point x="1177" y="1075"/>
      <point x="1177" y="1126" type="curve" smooth="yes"/>
      <point x="1177" y="1132" type="line" smooth="yes"/>
      <point x="1177" y="1189"/>
      <point x="1205" y="1216"/>
      <point x="1259" y="1216" type="curve" smooth="yes"/>
      <point x="1363.81" y="1216"/>
      <point x="1364" y="1123.92"/>
      <point x="1364" y="953" type="curve" smooth="yes"/>
      <point x="1364" y="523" type="line" smooth="yes"/>
      <point x="1364" y="357"/>
      <point x="1313" y="273"/>
      <point x="1190" y="273" type="curve" smooth="yes"/>
      <point x="1073" y="273"/>
      <point x="1018" y="344"/>
      <point x="1018" y="482" type="curve" smooth="yes"/>
      <point x="1018" y="537" type="line"/>
      <point x="890" y="512" type="line"/>
      <point x="890" y="363" type="line" smooth="yes"/>
      <point x="890" y="108"/>
      <point x="1023" y="-31"/>
      <point x="1276" y="-31" type="curve" smooth="yes"/>
      <point x="1574" y="-31"/>
      <point x="1714" y="151"/>
      <point x="1714" y="511" type="curve" smooth="yes"/>
      <point x="1714" y="788" type="line" smooth="yes"/>
      <point x="1714" y="1100.79"/>
      <point x="1710.84" y="1476"/>
    </contour>
    <contour>
      <point x="481" y="-32" type="curve" smooth="yes"/>
      <point x="775" y="-32"/>
      <point x="952" y="101"/>
      <point x="952" y="338" type="curve"/>
      <point x="847" y="293" type="line"/>
      <point x="993" y="293" type="line"/>
      <point x="1010" y="360"/>
      <point x="1018" y="461"/>
      <point x="1018" y="524" type="curve" smooth="yes"/>
      <point x="1018" y="723" type="line" smooth="yes"/>
      <point x="1018" y="1055"/>
      <point x="858" y="1228"/>
      <point x="529" y="1228" type="curve" smooth="yes"/>
      <point x="232" y="1228"/>
      <point x="80" y="1094"/>
      <point x="80" y="846" type="curve" smooth="yes"/>
      <point x="80" y="835" type="line" smooth="yes"/>
      <point x="80" y="785"/>
      <point x="88" y="734"/>
      <point x="106" y="699" type="curve"/>
      <point x="429" y="699" type="line"/>
      <point x="422" y="721"/>
      <point x="415" y="754"/>
      <point x="415" y="793" type="curve" smooth="yes"/>
      <point x="415" y="797" type="line" smooth="yes"/>
      <point x="415" y="885"/>
      <point x="455" y="928"/>
      <point x="539" y="928" type="curve" smooth="yes"/>
      <point x="639" y="928"/>
      <point x="675" y="862"/>
      <point x="675" y="729" type="curve" smooth="yes"/>
      <point x="675" y="540" type="line"/>
      <point x="676" y="487"/>
      <point x="672" y="467"/>
      <point x="664" y="404" type="curve"/>
      <point x="664" y="400"/>
      <point x="664" y="374"/>
      <point x="664" y="371" type="curve"/>
      <point x="641" y="272"/>
      <point x="592" y="231"/>
      <point x="509" y="231" type="curve" smooth="yes"/>
      <point x="427" y="231"/>
      <point x="392" y="258"/>
      <point x="392" y="318" type="curve" smooth="yes"/>
      <point x="392" y="323" type="line" smooth="yes"/>
      <point x="392" y="384"/>
      <point x="428" y="413"/>
      <point x="501" y="413" type="curve" smooth="yes"/>
      <point x="575" y="413"/>
      <point x="643" y="376"/>
      <point x="676" y="324" type="curve"/>
      <point x="713" y="523" type="line"/>
      <point x="660" y="610"/>
      <point x="573" y="661"/>
      <point x="414" y="661" type="curve" smooth="yes"/>
      <point x="173" y="661"/>
      <point x="58" y="548"/>
      <point x="58" y="332" type="curve" smooth="yes"/>
      <point x="58" y="321" type="line" smooth="yes"/>
      <point x="58" y="90"/>
      <point x="199" y="-32"/>
    </contour>
  </outline>
  <guideline angle="90" x="278" y="0"/>
  <guideline angle="90" x="266" y="0"/>
  <guideline angle="0" x="0" y="219"/>
  <guideline angle="0" x="0" y="484"/>
</glyph>
<glyph name="KhamatraI.kn" format="2">
  <advance width="1799"/>
  <outline>
    <contour>
      <point x="1264" y="1476" type="curve" smooth="yes"/>
      <point x="1008" y="1476"/>
      <point x="877" y="1357"/>
      <point x="877" y="1131" type="curve" smooth="yes"/>
      <point x="877" y="1126" type="line" smooth="yes"/>
      <point x="877" y="930"/>
      <point x="975" y="823"/>
      <point x="1151" y="823" type="curve" smooth="yes"/>
      <point x="1263" y="823"/>
      <point x="1332" y="870"/>
      <point x="1355" y="951" type="curve"/>
      <point x="1383" y="951" type="line"/>
      <point x="1365" y="1126" type="line"/>
      <point x="1343" y="1072"/>
      <point x="1307" y="1049"/>
      <point x="1260" y="1049" type="curve" smooth="yes"/>
      <point x="1204" y="1049"/>
      <point x="1177" y="1075"/>
      <point x="1177" y="1126" type="curve" smooth="yes"/>
      <point x="1177" y="1132" type="line" smooth="yes"/>
      <point x="1177" y="1189"/>
      <point x="1205" y="1216"/>
      <point x="1259" y="1216" type="curve" smooth="yes"/>
      <point x="1327" y="1216"/>
      <point x="1357" y="1175"/>
      <point x="1362" y="1090" type="curve" smooth="yes"/>
      <point x="1363" y="1066"/>
      <point x="1362" y="1051"/>
      <point x="1363" y="1027" type="curve"/>
      <point x="1365" y="1018"/>
      <point x="1368" y="1011"/>
      <point x="1369" y="1001" type="curve"/>
      <point x="1369" y="998"/>
      <point x="1370" y="973"/>
      <point x="1370" y="970" type="curve"/>
      <point x="1364" y="953" type="line"/>
      <point x="1364" y="878"/>
      <point x="1364" y="817"/>
      <point x="1364" y="732" type="curve" smooth="yes"/>
      <point x="1364" y="523" type="line" smooth="yes"/>
      <point x="1364" y="357"/>
      <point x="1313" y="273"/>
      <point x="1190" y="273" type="curve" smooth="yes"/>
      <point x="1073" y="273"/>
      <point x="1018" y="344"/>
      <point x="1018" y="482" type="curve" smooth="yes"/>
      <point x="1018" y="537" type="line"/>
      <point x="890" y="512" type="line"/>
      <point x="890" y="363" type="line" smooth="yes"/>
      <point x="890" y="108"/>
      <point x="1023" y="-31"/>
      <point x="1276" y="-31" type="curve" smooth="yes"/>
      <point x="1574" y="-31"/>
      <point x="1714" y="151"/>
      <point x="1714" y="511" type="curve" smooth="yes"/>
      <point x="1714" y="738" type="line" smooth="yes"/>
      <point x="1714" y="843"/>
      <point x="1713" y="956"/>
      <point x="1702" y="1061" type="curve" smooth="yes"/>
      <point x="1678" y="1287"/>
      <point x="1577" y="1476"/>
    </contour>
    <contour>
      <point x="481" y="-32" type="curve" smooth="yes"/>
      <point x="775" y="-32"/>
      <point x="952" y="101"/>
      <point x="952" y="338" type="curve"/>
      <point x="847" y="293" type="line"/>
      <point x="993" y="293" type="line"/>
      <point x="1010" y="360"/>
      <point x="1018" y="461"/>
      <point x="1018" y="524" type="curve" smooth="yes"/>
      <point x="1018" y="723" type="line" smooth="yes"/>
      <point x="1018" y="1055"/>
      <point x="858" y="1228"/>
      <point x="529" y="1228" type="curve" smooth="yes"/>
      <point x="232" y="1228"/>
      <point x="80" y="1094"/>
      <point x="80" y="846" type="curve" smooth="yes"/>
      <point x="80" y="835" type="line" smooth="yes"/>
      <point x="80" y="785"/>
      <point x="88" y="734"/>
      <point x="106" y="699" type="curve"/>
      <point x="429" y="699" type="line"/>
      <point x="422" y="721"/>
      <point x="415" y="754"/>
      <point x="415" y="793" type="curve" smooth="yes"/>
      <point x="415" y="797" type="line" smooth="yes"/>
      <point x="415" y="885"/>
      <point x="455" y="928"/>
      <point x="539" y="928" type="curve" smooth="yes"/>
      <point x="639" y="928"/>
      <point x="675" y="862"/>
      <point x="675" y="729" type="curve" smooth="yes"/>
      <point x="675" y="540" type="line"/>
      <point x="676" y="487"/>
      <point x="672" y="467"/>
      <point x="664" y="404" type="curve"/>
      <point x="664" y="400"/>
      <point x="664" y="374"/>
      <point x="664" y="371" type="curve"/>
      <point x="641" y="272"/>
      <point x="592" y="231"/>
      <point x="509" y="231" type="curve" smooth="yes"/>
      <point x="427" y="231"/>
      <point x="392" y="258"/>
      <point x="392" y="318" type="curve" smooth="yes"/>
      <point x="392" y="323" type="line" smooth="yes"/>
      <point x="392" y="384"/>
      <point x="428" y="413"/>
      <point x="501" y="413" type="curve" smooth="yes"/>
      <point x="575" y="413"/>
      <point x="643" y="376"/>
      <point x="676" y="324" type="curve"/>
      <point x="713" y="523" type="line"/>
      <point x="660" y="610"/>
      <point x="573" y="661"/>
      <point x="414" y="661" type="curve" smooth="yes"/>
      <point x="173" y="661"/>
      <point x="58" y="548"/>
      <point x="58" y="332" type="curve" smooth="yes"/>
      <point x="58" y="321" type="line" smooth="yes"/>
      <point x="58" y="90"/>
      <point x="199" y="-32"/>
    </contour>
  </outline>
  <guideline angle="90" x="278" y="0"/>
  <guideline angle="90" x="266" y="0"/>
  <guideline angle="0" x="0" y="219"/>
  <guideline angle="0" x="0" y="484"/>
</glyph>
<glyph name="LamatraUu.kn" format="2">
  <advance width="3057"/>
  <outline>
    <component base="La.kn"/>
    <contour>
      <point x="1708" y="552" type="line"/>
      <point x="1708" y="421" type="line" smooth="yes"/>
      <point x="1708" y="320"/>
      <point x="1682" y="275"/>
      <point x="1613" y="275" type="curve" smooth="yes"/>
      <point x="1545" y="275"/>
      <point x="1514" y="322"/>
      <point x="1514" y="413" type="curve" smooth="yes"/>
      <point x="1514" y="558" type="line"/>
      <point x="1379" y="557" type="line"/>
      <point x="1379" y="313" type="line" smooth="yes"/>
      <point x="1379" y="91"/>
      <point x="1497" y="-31"/>
      <point x="1706" y="-31" type="curve" smooth="yes"/>
      <point x="1938" y="-31"/>
      <point x="2046" y="116"/>
      <point x="2046" y="399" type="curve" smooth="yes"/>
      <point x="2046" y="552" type="line"/>
    </contour>
    <contour>
      <point x="2343" y="1228" type="curve" smooth="yes"/>
      <point x="1919" y="1228"/>
      <point x="1708" y="1015"/>
      <point x="1708" y="604" type="curve" smooth="yes"/>
      <point x="1708" y="533" type="line"/>
      <point x="2046" y="533" type="line"/>
      <point x="2046" y="599" type="line" smooth="yes"/>
      <point x="2046" y="821"/>
      <point x="2134" y="933"/>
      <point x="2344" y="933" type="curve" smooth="yes"/>
      <point x="2553" y="933"/>
      <point x="2640" y="817"/>
      <point x="2640" y="599" type="curve" smooth="yes"/>
      <point x="2640" y="502" type="line"/>
      <point x="2980" y="524" type="line"/>
      <point x="2980" y="595" type="line" smooth="yes"/>
      <point x="2980" y="1011"/>
      <point x="2767" y="1228"/>
    </contour>
    <contour>
      <point x="2980" y="529" type="line"/>
      <point x="2643" y="509" type="line"/>
      <point x="2643" y="393" type="line" smooth="yes"/>
      <point x="2643" y="294"/>
      <point x="2625" y="246"/>
      <point x="2556" y="246" type="curve" smooth="yes"/>
      <point x="2496" y="246"/>
      <point x="2470" y="280"/>
      <point x="2470" y="353" type="curve" smooth="yes"/>
      <point x="2470" y="375" type="line" smooth="yes"/>
      <point x="2470" y="450"/>
      <point x="2492" y="487"/>
      <point x="2556" y="487" type="curve" smooth="yes"/>
      <point x="2607" y="487"/>
      <point x="2647" y="456"/>
      <point x="2673" y="393" type="curve"/>
      <point x="2686" y="566" type="line"/>
      <point x="2631" y="566" type="line"/>
      <point x="2607" y="682"/>
      <point x="2535" y="742"/>
      <point x="2416" y="742" type="curve" smooth="yes"/>
      <point x="2228" y="742"/>
      <point x="2146" y="615"/>
      <point x="2146" y="382" type="curve" smooth="yes"/>
      <point x="2146" y="352" type="line" smooth="yes"/>
      <point x="2146" y="100"/>
      <point x="2276" y="-32"/>
      <point x="2555" y="-32" type="curve" smooth="yes"/>
      <point x="2846" y="-32"/>
      <point x="2980" y="126"/>
      <point x="2980" y="431" type="curve" smooth="yes"/>
    </contour>
  </outline>
  <guideline angle="90" x="769" y="0"/>
</glyph>
<glyph name="Lasmall1.kn.1" format="2">
  <outline>
    <contour>
      <point x="-209" y="-580" type="line"/>
      <point x="-204" y="-412" type="line" smooth="yes"/>
      <point x="-202.244" y="-352.992"/>
      <point x="-184" y="-321"/>
      <point x="-135" y="-321" type="curve" smooth="yes"/>
      <point x="-88" y="-321"/>
      <point x="-69" y="-352"/>
      <point x="-69" y="-412" type="curve" smooth="yes"/>
      <point x="-69" y="-434" type="line" smooth="yes"/>
      <point x="-69" y="-508"/>
      <point x="-86" y="-595"/>
      <point x="-125" y="-666" type="curve"/>
      <point x="102" y="-666" type="line"/>
      <point x="137" y="-612"/>
      <point x="159" y="-534"/>
      <point x="159" y="-430" type="curve" smooth="yes"/>
      <point x="159" y="-406" type="line" smooth="yes"/>
      <point x="159" y="-219"/>
      <point x="74" y="-122"/>
      <point x="-103" y="-122" type="curve" smooth="yes"/>
      <point x="-229" y="-122"/>
      <point x="-296" y="-171"/>
      <point x="-315" y="-264" type="curve"/>
      <point x="-320" y="-264" type="line"/>
      <point x="-339" y="-171"/>
      <point x="-407" y="-122"/>
      <point x="-531" y="-122" type="curve" smooth="yes"/>
      <point x="-708" y="-122"/>
      <point x="-793" y="-219"/>
      <point x="-793" y="-406" type="curve" smooth="yes"/>
      <point x="-793" y="-430" type="line" smooth="yes"/>
      <point x="-793" y="-534"/>
      <point x="-771" y="-612"/>
      <point x="-736" y="-666" type="curve"/>
      <point x="-510" y="-666" type="line"/>
      <point x="-549" y="-595"/>
      <point x="-566" y="-509"/>
      <point x="-566" y="-435" type="curve" smooth="yes"/>
      <point x="-566" y="-413" type="line" smooth="yes"/>
      <point x="-566" y="-353"/>
      <point x="-546" y="-321"/>
      <point x="-499" y="-321" type="curve" smooth="yes"/>
      <point x="-450" y="-321"/>
      <point x="-431.756" y="-352.992"/>
      <point x="-430" y="-412" type="curve" smooth="yes"/>
      <point x="-425" y="-580" type="line"/>
    </contour>
  </outline>
  <guideline angle="0" x="0" y="-439"/>
</glyph>
<glyph name="LlamatraU.kn" format="2">
  <advance width="2143"/>
  <outline>
    <component base="Lla.kn"/>
    <contour>
      <point x="1635" y="1203" type="curve" smooth="yes"/>
      <point x="1593" y="1203"/>
      <point x="1555" y="1201"/>
      <point x="1518" y="1195" type="curve"/>
      <point x="1518" y="886" type="line"/>
      <point x="1534" y="889"/>
      <point x="1550" y="890"/>
      <point x="1566" y="890" type="curve" smooth="yes"/>
      <point x="1669" y="890"/>
      <point x="1712.5" y="828"/>
      <point x="1712.5" y="683" type="curve" smooth="yes"/>
      <point x="1712.5" y="575" type="line" smooth="yes"/>
      <point x="1712.5" y="373"/>
      <point x="1621" y="277"/>
      <point x="1423" y="277" type="curve" smooth="yes"/>
      <point x="1285" y="277"/>
      <point x="1178" y="314"/>
      <point x="1120" y="370" type="curve"/>
      <point x="1066" y="221" type="line"/>
      <point x="1125" y="56"/>
      <point x="1276" y="-32"/>
      <point x="1533" y="-32" type="curve" smooth="yes"/>
      <point x="1879" y="-32"/>
      <point x="2062.5" y="168"/>
      <point x="2062.5" y="564" type="curve" smooth="yes"/>
      <point x="2062.5" y="683" type="line" smooth="yes"/>
      <point x="2062.5" y="1028"/>
      <point x="1924" y="1203"/>
    </contour>
  </outline>
</glyph>
<glyph name="LllaObsoletematraAa.kn" format="2">
  <advance width="3291"/>
  <outline>
    <component base="matraAa.kn" xOffset="1833"/>
    <component base="LllaObsolete.kn"/>
    <contour>
      <point x="2333" y="718" type="line" smooth="yes"/>
      <point x="2333" y="835"/>
      <point x="2280" y="901"/>
      <point x="2182" y="913" type="curve"/>
      <point x="2182" y="977" type="line"/>
      <point x="1901" y="977" type="line"/>
      <point x="1886" y="922" type="line"/>
      <point x="1971" y="922"/>
      <point x="2007" y="893"/>
      <point x="2007" y="828" type="curve" smooth="yes"/>
      <point x="2007" y="823" type="line" smooth="yes"/>
      <point x="2007" y="764"/>
      <point x="1974" y="733"/>
      <point x="1907" y="733" type="curve" smooth="yes"/>
      <point x="1859" y="733"/>
      <point x="1816" y="750"/>
      <point x="1793" y="776" type="curve"/>
      <point x="1686" y="653" type="line"/>
      <point x="1732" y="515"/>
      <point x="1839" y="437"/>
      <point x="2010" y="437" type="curve" smooth="yes"/>
      <point x="2209" y="437"/>
      <point x="2333" y="533"/>
      <point x="2333" y="715" type="curve" smooth="yes"/>
    </contour>
    <contour>
      <point x="2122" y="922" type="line"/>
      <point x="2122" y="1191" type="line"/>
      <point x="1855" y="1191" type="line"/>
      <point x="1855" y="922" type="line"/>
    </contour>
  </outline>
  <guideline angle="0" x="0" y="537"/>
  <guideline angle="90" x="1167" y="0"/>
  <guideline angle="90" x="890" y="0"/>
</glyph>
<glyph name="LllaObsoletematraO.kn" format="2">
  <advance width="3760"/>
  <outline>
    <component base="LllaObsoletematraE.kn"/>
    <contour>
      <point x="3047" y="1228" type="curve" smooth="yes"/>
      <point x="2624" y="1228"/>
      <point x="2413" y="1015.02"/>
      <point x="2413" y="604" type="curve" smooth="yes"/>
      <point x="2413" y="585" type="line" smooth="yes"/>
      <point x="2413" y="376"/>
      <point x="2315" y="278"/>
      <point x="2103" y="278" type="curve" smooth="yes"/>
      <point x="1917" y="278"/>
      <point x="1825" y="338"/>
      <point x="1793" y="443" type="curve"/>
      <point x="1677" y="409" type="line"/>
      <point x="1687" y="100"/>
      <point x="1877" y="-32"/>
      <point x="2185" y="-32" type="curve" smooth="yes"/>
      <point x="2576" y="-32"/>
      <point x="2751" y="168"/>
      <point x="2751" y="561" type="curve" smooth="yes"/>
      <point x="2751" y="599" type="line" smooth="yes"/>
      <point x="2751" y="821.002"/>
      <point x="2839" y="932"/>
      <point x="3048" y="932" type="curve" smooth="yes"/>
      <point x="3256" y="932"/>
      <point x="3343" y="816"/>
      <point x="3343" y="598" type="curve" smooth="yes"/>
      <point x="3343" y="502" type="line"/>
      <point x="3683" y="524" type="line"/>
      <point x="3683" y="595" type="line" smooth="yes"/>
      <point x="3683" y="1011"/>
      <point x="3470" y="1228"/>
    </contour>
    <contour>
      <point x="3683" y="529" type="line"/>
      <point x="3346" y="509" type="line"/>
      <point x="3346" y="393" type="line" smooth="yes"/>
      <point x="3346" y="294"/>
      <point x="3328" y="246"/>
      <point x="3259" y="246" type="curve" smooth="yes"/>
      <point x="3199" y="246"/>
      <point x="3173" y="280"/>
      <point x="3173" y="353" type="curve" smooth="yes"/>
      <point x="3173" y="375" type="line" smooth="yes"/>
      <point x="3173" y="450"/>
      <point x="3195" y="487"/>
      <point x="3259" y="487" type="curve" smooth="yes"/>
      <point x="3310" y="487"/>
      <point x="3350" y="456"/>
      <point x="3376" y="393" type="curve"/>
      <point x="3389" y="566" type="line"/>
      <point x="3334" y="566" type="line"/>
      <point x="3310" y="682"/>
      <point x="3238" y="742"/>
      <point x="3119" y="742" type="curve" smooth="yes"/>
      <point x="2931" y="742"/>
      <point x="2849" y="615"/>
      <point x="2849" y="382" type="curve" smooth="yes"/>
      <point x="2849" y="352" type="line" smooth="yes"/>
      <point x="2849" y="100"/>
      <point x="2979" y="-32"/>
      <point x="3258" y="-32" type="curve" smooth="yes"/>
      <point x="3549" y="-32"/>
      <point x="3683" y="126"/>
      <point x="3683" y="431" type="curve" smooth="yes"/>
    </contour>
  </outline>
</glyph>
<glyph name="NamatraE.kn" format="2">
  <advance width="1529"/>
  <outline>
    <component base="matraE.kn" xOffset="610"/>
    <contour>
      <point x="1016" y="-32" type="curve" smooth="yes"/>
      <point x="1297" y="-32"/>
      <point x="1451" y="120"/>
      <point x="1451" y="398" type="curve" smooth="yes"/>
      <point x="1451" y="444" type="line" smooth="yes"/>
      <point x="1451" y="737"/>
      <point x="1345" y="884"/>
      <point x="1119" y="913" type="curve"/>
      <point x="1119" y="948" type="line"/>
      <point x="565" y="947" type="line"/>
      <point x="565" y="922" type="line"/>
      <point x="947" y="922"/>
      <point x="1101" y="780"/>
      <point x="1101" y="470" type="curve" smooth="yes"/>
      <point x="1101" y="424" type="line" smooth="yes"/>
      <point x="1101" y="327"/>
      <point x="1070" y="272"/>
      <point x="998" y="272" type="curve" smooth="yes"/>
      <point x="940" y="272"/>
      <point x="908" y="296"/>
      <point x="880" y="379" type="curve" smooth="yes"/>
      <point x="849" y="471" type="line" smooth="yes"/>
      <point x="788" y="651"/>
      <point x="682" y="743"/>
      <point x="464" y="743" type="curve" smooth="yes"/>
      <point x="209" y="743"/>
      <point x="67" y="609"/>
      <point x="67" y="341" type="curve" smooth="yes"/>
      <point x="67" y="313" type="line" smooth="yes"/>
      <point x="67" y="171"/>
      <point x="94" y="60"/>
      <point x="135" y="-19" type="curve"/>
      <point x="477" y="-19" type="line"/>
      <point x="437" y="67"/>
      <point x="406" y="195"/>
      <point x="406" y="306" type="curve" smooth="yes"/>
      <point x="406" y="329" type="line" smooth="yes"/>
      <point x="406" y="410"/>
      <point x="428" y="445"/>
      <point x="482" y="445" type="curve" smooth="yes"/>
      <point x="527" y="445"/>
      <point x="548" y="421"/>
      <point x="572" y="343" type="curve" smooth="yes"/>
      <point x="602" y="246" type="line" smooth="yes"/>
      <point x="663" y="53"/>
      <point x="797" y="-32"/>
    </contour>
    <contour>
      <point x="1079" y="922" type="line"/>
      <point x="1074" y="1191" type="line"/>
      <point x="101" y="1191" type="line"/>
      <point x="101" y="922" type="line"/>
    </contour>
  </outline>
  <guideline angle="0" x="0" y="955"/>
</glyph>
<glyph name="NgaHalant.kn" format="2">
  <advance width="2958"/>
  <outline>
    <component base="Halant.kn" xOffset="2175"/>
    <contour>
      <point x="1563" y="851" type="line" smooth="yes"/>
      <point x="1563" y="1090"/>
      <point x="1428" y="1228"/>
      <point x="1174" y="1228" type="curve" smooth="yes"/>
      <point x="931" y="1228"/>
      <point x="819" y="1127"/>
      <point x="802" y="928" type="curve"/>
      <point x="901" y="813" type="line"/>
      <point x="918" y="905"/>
      <point x="980" y="947"/>
      <point x="1082" y="947" type="curve" smooth="yes"/>
      <point x="1199" y="947"/>
      <point x="1257" y="895"/>
      <point x="1257" y="781" type="curve" smooth="yes"/>
      <point x="1257" y="671" type="line"/>
      <point x="1339" y="546"/>
      <point x="1497" y="477"/>
      <point x="1714" y="477" type="curve" smooth="yes"/>
      <point x="1957" y="477"/>
      <point x="2104" y="568"/>
      <point x="2104" y="738" type="curve" smooth="yes"/>
      <point x="2104" y="741" type="line" smooth="yes"/>
      <point x="2104" y="845"/>
      <point x="2052" y="902"/>
      <point x="1958" y="913" type="curve"/>
      <point x="1958" y="977" type="line"/>
      <point x="1677" y="977" type="line"/>
      <point x="1662" y="922" type="line"/>
      <point x="1744" y="922"/>
      <point x="1778" y="898"/>
      <point x="1778" y="841" type="curve" smooth="yes"/>
      <point x="1778" y="836" type="line" smooth="yes"/>
      <point x="1778" y="785"/>
      <point x="1747" y="758"/>
      <point x="1681" y="758" type="curve" smooth="yes"/>
      <point x="1631" y="758"/>
      <point x="1586" y="775"/>
      <point x="1563" y="801" type="curve"/>
    </contour>
    <contour>
      <point x="1894" y="922" type="line"/>
      <point x="1894" y="1191" type="line"/>
      <point x="1629" y="1191" type="line"/>
      <point x="1629" y="922" type="line"/>
    </contour>
    <contour>
      <point x="1235" y="405" type="line" smooth="yes"/>
      <point x="1235" y="323"/>
      <point x="1199" y="281"/>
      <point x="1124" y="281" type="curve" smooth="yes"/>
      <point x="1045" y="281"/>
      <point x="1010" y="326"/>
      <point x="1005" y="414" type="curve" smooth="yes"/>
      <point x="1002" y="470" type="line"/>
      <point x="820" y="470" type="line"/>
      <point x="834" y="247" type="line" smooth="yes"/>
      <point x="848" y="65"/>
      <point x="966" y="-32"/>
      <point x="1190" y="-32" type="curve" smooth="yes"/>
      <point x="1447" y="-32"/>
      <point x="1583" y="98"/>
      <point x="1583" y="341" type="curve" smooth="yes"/>
      <point x="1583" y="348" type="line" smooth="yes"/>
      <point x="1583" y="397"/>
      <point x="1576" y="443"/>
      <point x="1560" y="486" type="curve"/>
      <point x="1227" y="486" type="line"/>
      <point x="1233" y="463"/>
      <point x="1235" y="432"/>
      <point x="1235" y="410" type="curve" smooth="yes"/>
    </contour>
    <contour>
      <point x="493" y="1228" type="curve" smooth="yes"/>
      <point x="223" y="1228"/>
      <point x="78" y="1112"/>
      <point x="78" y="879" type="curve" smooth="yes"/>
      <point x="78" y="868" type="line" smooth="yes"/>
      <point x="78" y="801"/>
      <point x="94" y="738"/>
      <point x="114" y="701" type="curve"/>
      <point x="412" y="701" type="line"/>
      <point x="392" y="737"/>
      <point x="382" y="778"/>
      <point x="382" y="833" type="curve" smooth="yes"/>
      <point x="382" y="838" type="line" smooth="yes"/>
      <point x="382" y="914"/>
      <point x="418" y="948"/>
      <point x="488" y="948" type="curve" smooth="yes"/>
      <point x="557" y="948"/>
      <point x="589" y="918"/>
      <point x="589" y="856" type="curve" smooth="yes"/>
      <point x="589" y="850" type="line" smooth="yes"/>
      <point x="589" y="790"/>
      <point x="559" y="761"/>
      <point x="452" y="721" type="curve" smooth="yes"/>
      <point x="366" y="689" type="line" smooth="yes"/>
      <point x="152" y="609"/>
      <point x="58" y="509"/>
      <point x="58" y="332" type="curve" smooth="yes"/>
      <point x="58" y="321" type="line" smooth="yes"/>
      <point x="58" y="90"/>
      <point x="201" y="-32"/>
      <point x="463" y="-32" type="curve" smooth="yes"/>
      <point x="686" y="-32"/>
      <point x="807" y="61"/>
      <point x="826" y="233" type="curve"/>
      <point x="845" y="233" type="line"/>
      <point x="840" y="470" type="line"/>
      <point x="658" y="470" type="line"/>
      <point x="655" y="414" type="line" smooth="yes"/>
      <point x="650" y="318"/>
      <point x="602" y="270"/>
      <point x="502" y="270" type="curve" smooth="yes"/>
      <point x="426" y="270"/>
      <point x="390" y="299"/>
      <point x="390" y="348" type="curve" smooth="yes"/>
      <point x="390" y="353" type="line" smooth="yes"/>
      <point x="390" y="407"/>
      <point x="427" y="430"/>
      <point x="534" y="475" type="curve" smooth="yes"/>
      <point x="625" y="513" type="line" smooth="yes"/>
      <point x="820" y="595"/>
      <point x="904" y="685"/>
      <point x="904" y="858" type="curve" smooth="yes"/>
      <point x="904" y="868" type="line" smooth="yes"/>
      <point x="904" y="1103"/>
      <point x="761" y="1228"/>
    </contour>
    <contour>
      <point x="1067" y="490" type="curve" smooth="yes"/>
      <point x="1170" y="490"/>
      <point x="1224" y="543"/>
      <point x="1224" y="644" type="curve" smooth="yes"/>
      <point x="1224" y="653" type="line" smooth="yes"/>
      <point x="1224" y="753"/>
      <point x="1170" y="806"/>
      <point x="1067" y="806" type="curve" smooth="yes"/>
      <point x="965" y="806"/>
      <point x="911" y="753"/>
      <point x="911" y="653" type="curve" smooth="yes"/>
      <point x="911" y="644" type="line" smooth="yes"/>
      <point x="911" y="543"/>
      <point x="965" y="490"/>
    </contour>
  </outline>
  <guideline angle="90" x="1457" y="0"/>
  <guideline angle="0" x="0" y="798"/>
</glyph>
<glyph name="NyamatraO.kn" format="2">
  <advance width="3984"/>
  <outline>
    <component base="NyamatraE.kn"/>
    <contour>
      <point x="3270" y="1228" type="curve" smooth="yes"/>
      <point x="2846" y="1228"/>
      <point x="2635" y="1015"/>
      <point x="2635" y="604" type="curve" smooth="yes"/>
      <point x="2635" y="533" type="line"/>
      <point x="2973" y="533" type="line"/>
      <point x="2973" y="599" type="line" smooth="yes"/>
      <point x="2973" y="821"/>
      <point x="3061" y="933"/>
      <point x="3271" y="933" type="curve" smooth="yes"/>
      <point x="3480" y="933"/>
      <point x="3567" y="817"/>
      <point x="3567" y="599" type="curve" smooth="yes"/>
      <point x="3567" y="502" type="line"/>
      <point x="3907" y="524" type="line"/>
      <point x="3907" y="595" type="line" smooth="yes"/>
      <point x="3907" y="1011"/>
      <point x="3694" y="1228"/>
    </contour>
    <contour>
      <point x="3907" y="529" type="line"/>
      <point x="3570" y="509" type="line"/>
      <point x="3570" y="393" type="line" smooth="yes"/>
      <point x="3570" y="294"/>
      <point x="3552" y="246"/>
      <point x="3483" y="246" type="curve" smooth="yes"/>
      <point x="3423" y="246"/>
      <point x="3397" y="280"/>
      <point x="3397" y="353" type="curve" smooth="yes"/>
      <point x="3397" y="375" type="line" smooth="yes"/>
      <point x="3397" y="450"/>
      <point x="3419" y="487"/>
      <point x="3483" y="487" type="curve" smooth="yes"/>
      <point x="3534" y="487"/>
      <point x="3574" y="456"/>
      <point x="3600" y="393" type="curve"/>
      <point x="3613" y="566" type="line"/>
      <point x="3558" y="566" type="line"/>
      <point x="3534" y="682"/>
      <point x="3462" y="742"/>
      <point x="3343" y="742" type="curve" smooth="yes"/>
      <point x="3155" y="742"/>
      <point x="3073" y="615"/>
      <point x="3073" y="382" type="curve" smooth="yes"/>
      <point x="3073" y="352" type="line" smooth="yes"/>
      <point x="3073" y="100"/>
      <point x="3203" y="-32"/>
      <point x="3482" y="-32" type="curve" smooth="yes"/>
      <point x="3773" y="-32"/>
      <point x="3907" y="126"/>
      <point x="3907" y="431" type="curve" smooth="yes"/>
    </contour>
    <contour>
      <point x="2439" y="-37" type="curve" smooth="yes"/>
      <point x="2794" y="-37"/>
      <point x="2973" y="118"/>
      <point x="2973" y="458" type="curve" smooth="yes"/>
      <point x="2973" y="562" type="line"/>
      <point x="2635" y="562" type="line"/>
      <point x="2635" y="479" type="line" smooth="yes"/>
      <point x="2635" y="335"/>
      <point x="2573" y="269"/>
      <point x="2434" y="269" type="curve" smooth="yes"/>
      <point x="2296" y="269"/>
      <point x="2233" y="335"/>
      <point x="2233" y="479" type="curve" smooth="yes"/>
      <point x="2233" y="546" type="line"/>
      <point x="1905" y="546" type="line"/>
      <point x="1905" y="458" type="line" smooth="yes"/>
      <point x="1905" y="118"/>
      <point x="2084" y="-37"/>
    </contour>
  </outline>
</glyph>
<glyph name="PamatraI.kn" format="2">
  <advance width="1649"/>
  <outline>
    <component base="matraI.kn" xOffset="411" yOffset="3"/>
    <contour>
      <point x="412" y="763" type="curve" smooth="yes"/>
      <point x="185" y="763"/>
      <point x="63" y="629"/>
      <point x="63" y="385" type="curve" smooth="yes"/>
      <point x="63" y="361" type="line" smooth="yes"/>
      <point x="63" y="103"/>
      <point x="201" y="-32"/>
      <point x="466" y="-32" type="curve" smooth="yes"/>
      <point x="688" y="-32"/>
      <point x="806" y="61"/>
      <point x="825" y="233" type="curve"/>
      <point x="834" y="233" type="line"/>
      <point x="852" y="61"/>
      <point x="970" y="-32"/>
      <point x="1184" y="-32" type="curve" smooth="yes"/>
      <point x="1443" y="-32"/>
      <point x="1579" y="117"/>
      <point x="1579" y="404" type="curve" smooth="yes"/>
      <point x="1579" y="440" type="line" smooth="yes"/>
      <point x="1579" y="594"/>
      <point x="1542" y="710"/>
      <point x="1479" y="807" type="curve"/>
      <point x="1145" y="807" type="line"/>
      <point x="1199" y="718"/>
      <point x="1231" y="605"/>
      <point x="1231" y="470" type="curve" smooth="yes"/>
      <point x="1231" y="436" type="line" smooth="yes"/>
      <point x="1231" y="332"/>
      <point x="1196" y="281"/>
      <point x="1119" y="281" type="curve" smooth="yes"/>
      <point x="1047" y="281"/>
      <point x="1009" y="325"/>
      <point x="1004" y="413" type="curve" smooth="yes"/>
      <point x="999" y="499" type="line"/>
      <point x="659" y="499" type="line"/>
      <point x="654" y="414" type="line" smooth="yes"/>
      <point x="649" y="321"/>
      <point x="601" y="274"/>
      <point x="512" y="274" type="curve" smooth="yes"/>
      <point x="437" y="274"/>
      <point x="403" y="307"/>
      <point x="403" y="372" type="curve" smooth="yes"/>
      <point x="403" y="375" type="line" smooth="yes"/>
      <point x="403" y="438"/>
      <point x="434" y="467"/>
      <point x="499" y="467" type="curve" smooth="yes"/>
      <point x="528" y="467"/>
      <point x="557" y="462"/>
      <point x="580" y="453" type="curve"/>
      <point x="563" y="739" type="line"/>
      <point x="520" y="755"/>
      <point x="475" y="763"/>
    </contour>
  </outline>
  <guideline angle="90" x="429" y="0"/>
  <guideline angle="90" x="358" y="0"/>
  <guideline angle="90" x="429" y="0"/>
</glyph>
<glyph name="PamatraU.kn" format="2">
  <advance width="2266"/>
  <outline>
    <component base="Pa.kn"/>
    <contour>
      <point x="1733" y="1116" type="curve" smooth="yes"/>
      <point x="1698" y="1116"/>
      <point x="1666" y="1115"/>
      <point x="1635" y="1112" type="curve"/>
      <point x="1635" y="801" type="line"/>
      <point x="1644" y="802"/>
      <point x="1660" y="803"/>
      <point x="1673" y="803" type="curve" smooth="yes"/>
      <point x="1786" y="803"/>
      <point x="1836" y="729"/>
      <point x="1836" y="556" type="curve" smooth="yes"/>
      <point x="1836" y="331" type="line" smooth="yes"/>
      <point x="1836" y="23"/>
      <point x="1679" y="-127"/>
      <point x="1371" y="-127" type="curve" smooth="yes"/>
      <point x="1139" y="-127"/>
      <point x="962" y="-60"/>
      <point x="833" y="38" type="curve"/>
      <point x="821" y="35" type="line"/>
      <point x="882" y="-277" type="line"/>
      <point x="1004" y="-361"/>
      <point x="1179" y="-421"/>
      <point x="1428" y="-421" type="curve" smooth="yes"/>
      <point x="1920" y="-421"/>
      <point x="2186" y="-173"/>
      <point x="2186" y="312" type="curve" smooth="yes"/>
      <point x="2186" y="557" type="line" smooth="yes"/>
      <point x="2186" y="928"/>
      <point x="2038" y="1116"/>
    </contour>
  </outline>
  <guideline angle="90" x="1035" y="0"/>
  <guideline angle="0" x="0" y="-274"/>
</glyph>
<glyph name="PhaHalant.kn" format="2">
  <advance width="2408"/>
  <anchor x="833" y="0" name="nukta"/>
  <outline>
    <component base="PaHalant.kn"/>
    <contour>
      <point x="832" y="-443" type="curve" smooth="yes"/>
      <point x="951.978" y="-443"/>
      <point x="1014" y="-384"/>
      <point x="1014" y="-267" type="curve" smooth="yes"/>
      <point x="1014" y="-261" type="line" smooth="yes"/>
      <point x="1014" y="-150.723"/>
      <point x="951.978" y="-48.3941"/>
      <point x="832" y="44" type="curve"/>
      <point x="713.028" y="-48.3941"/>
      <point x="651" y="-150.723"/>
      <point x="651" y="-261" type="curve" smooth="yes"/>
      <point x="651" y="-267" type="line" smooth="yes"/>
      <point x="651" y="-384"/>
      <point x="712.011" y="-443"/>
    </contour>
  </outline>
  <guideline angle="0" x="0" y="-274"/>
  <guideline angle="90" x="418" y="0"/>
</glyph>
<glyph name="PhaNuktamatraO.kn" format="2">
  <advance width="3053"/>
  <outline>
    <component base="PhamatraO.kn"/>
    <contour>
      <point x="496" y="-419" type="curve" smooth="yes"/>
      <point x="403" y="-419"/>
      <point x="345" y="-471"/>
      <point x="345" y="-567" type="curve" smooth="yes"/>
      <point x="345" y="-664"/>
      <point x="403" y="-715"/>
      <point x="496" y="-715" type="curve" smooth="yes"/>
      <point x="590" y="-715"/>
      <point x="646" y="-664"/>
      <point x="646" y="-567" type="curve" smooth="yes"/>
      <point x="646" y="-471"/>
      <point x="590" y="-419"/>
    </contour>
    <contour>
      <point x="1171" y="-419" type="curve" smooth="yes"/>
      <point x="1078" y="-419"/>
      <point x="1020" y="-471"/>
      <point x="1020" y="-567" type="curve" smooth="yes"/>
      <point x="1020" y="-664"/>
      <point x="1078" y="-715"/>
      <point x="1171" y="-715" type="curve" smooth="yes"/>
      <point x="1265" y="-715"/>
      <point x="1321" y="-664"/>
      <point x="1321" y="-567" type="curve" smooth="yes"/>
      <point x="1321" y="-471"/>
      <point x="1265" y="-419"/>
    </contour>
  </outline>
  <guideline angle="0" x="0" y="-274"/>
</glyph>
<glyph name="RamatraU.kn" format="2">
  <advance width="2041"/>
  <outline>
    <component base="Ra.kn"/>
    <component base="matraU.kn" xOffset="1363"/>
    <contour>
      <point x="1182" y="428" type="line"/>
      <point x="1278" y="429" type="line"/>
      <point x="1278" y="491" type="line"/>
      <point x="1182" y="491" type="line"/>
    </contour>
  </outline>
</glyph>
<glyph name="RamatraUu.kn" format="2">
  <advance width="2821"/>
  <outline>
    <component base="Ra.kn"/>
    <component base="matraUu.kn" xOffset="1367" yOffset="1"/>
    <contour>
      <point x="1181" y="393" type="line"/>
      <point x="1278" y="394" type="line"/>
      <point x="1278" y="461" type="line"/>
      <point x="1181" y="461" type="line"/>
    </contour>
  </outline>
</glyph>
<glyph name="RraObsoletesmall1.kn" format="2">
  <outline>
    <contour>
      <point x="-345" y="-96" type="curve" smooth="yes"/>
      <point x="-523" y="-96"/>
      <point x="-607" y="-193"/>
      <point x="-607" y="-385" type="curve" smooth="yes"/>
      <point x="-607" y="-423" type="line"/>
      <point x="-396" y="-384" type="line"/>
      <point x="-396" y="-340" type="line" smooth="yes"/>
      <point x="-396" y="-291"/>
      <point x="-385" y="-265"/>
      <point x="-346" y="-265" type="curve" smooth="yes"/>
      <point x="-317" y="-265"/>
      <point x="-303" y="-281"/>
      <point x="-303" y="-312" type="curve" smooth="yes"/>
      <point x="-303" y="-317" type="line" smooth="yes"/>
      <point x="-303" y="-344"/>
      <point x="-316" y="-358"/>
      <point x="-344" y="-358" type="curve" smooth="yes"/>
      <point x="-373" y="-358"/>
      <point x="-398" y="-344"/>
      <point x="-420" y="-317" type="curve"/>
      <point x="-425" y="-414" type="line"/>
      <point x="-387" y="-414" type="line"/>
      <point x="-373" y="-462"/>
      <point x="-329" y="-487"/>
      <point x="-259" y="-487" type="curve"/>
      <point x="-139" y="-408" type="line"/>
      <point x="-115" y="-375"/>
      <point x="-105" y="-345"/>
      <point x="-105" y="-298" type="curve" smooth="yes"/>
      <point x="-105" y="-295" type="line" smooth="yes"/>
      <point x="-105" y="-162"/>
      <point x="-188" y="-96"/>
    </contour>
    <contour>
      <point x="194" y="-487" type="line"/>
      <point x="194" y="-356" type="line"/>
      <point x="-255" y="-356" type="line"/>
      <point x="-259" y="-487" type="line"/>
    </contour>
    <contour>
      <point x="-392" y="-377" type="line"/>
      <point x="-607" y="-418" type="line"/>
      <point x="-607" y="-483" type="line" smooth="yes"/>
      <point x="-607" y="-682"/>
      <point x="-501" y="-784"/>
      <point x="-313" y="-784" type="curve" smooth="yes"/>
      <point x="-179" y="-784"/>
      <point x="-105" y="-735"/>
      <point x="-89" y="-648" type="curve"/>
      <point x="-84" y="-648" type="line"/>
      <point x="-68" y="-735"/>
      <point x="6" y="-784"/>
      <point x="140" y="-784" type="curve" smooth="yes"/>
      <point x="328" y="-784"/>
      <point x="434" y="-682"/>
      <point x="434" y="-483" type="curve" smooth="yes"/>
      <point x="434" y="-385" type="line" smooth="yes"/>
      <point x="434" y="-193"/>
      <point x="349" y="-96"/>
      <point x="166" y="-96" type="curve" smooth="yes"/>
      <point x="16" y="-96"/>
      <point x="-64" y="-146"/>
      <point x="-64" y="-247" type="curve" smooth="yes"/>
      <point x="-64" y="-252" type="line" smooth="yes"/>
      <point x="-64" y="-314"/>
      <point x="-30" y="-345"/>
      <point x="27" y="-352" type="curve"/>
      <point x="27" y="-377" type="line"/>
      <point x="175" y="-376" type="line"/>
      <point x="175" y="-356" type="line"/>
      <point x="145" y="-356"/>
      <point x="132" y="-342"/>
      <point x="132" y="-316" type="curve"/>
      <point x="132" y="-314" type="line"/>
      <point x="132" y="-284"/>
      <point x="146" y="-269"/>
      <point x="174" y="-269" type="curve" smooth="yes"/>
      <point x="209" y="-269"/>
      <point x="220" y="-293"/>
      <point x="220" y="-337" type="curve" smooth="yes"/>
      <point x="220" y="-470" type="line" smooth="yes"/>
      <point x="220" y="-560"/>
      <point x="188" y="-597"/>
      <point x="118" y="-597" type="curve" smooth="yes"/>
      <point x="55" y="-597"/>
      <point x="28.3294" y="-565.965"/>
      <point x="23" y="-518" type="curve" smooth="yes"/>
      <point x="22" y="-509" type="line"/>
      <point x="-195" y="-509" type="line"/>
      <point x="-196" y="-518" type="line" smooth="yes"/>
      <point x="-201.329" y="-565.965"/>
      <point x="-229" y="-597"/>
      <point x="-288" y="-597" type="curve" smooth="yes"/>
      <point x="-360" y="-597"/>
      <point x="-392" y="-560"/>
      <point x="-392" y="-470" type="curve" smooth="yes"/>
    </contour>
  </outline>
</glyph>
<glyph name="Sasmall1.kn" format="2">
  <outline>
    <contour>
      <point x="-391" y="-290" type="curve" smooth="yes"/>
      <point x="-558" y="-290"/>
      <point x="-653" y="-372"/>
      <point x="-653" y="-545" type="curve" smooth="yes"/>
      <point x="-653" y="-558" type="line" smooth="yes"/>
      <point x="-653" y="-634"/>
      <point x="-638" y="-697"/>
      <point x="-614" y="-737" type="curve"/>
      <point x="-392" y="-737" type="line"/>
      <point x="-415" y="-689"/>
      <point x="-432" y="-623"/>
      <point x="-432" y="-563" type="curve" smooth="yes"/>
      <point x="-432" y="-550" type="line" smooth="yes"/>
      <point x="-432" y="-501"/>
      <point x="-417" y="-479"/>
      <point x="-384" y="-479" type="curve" smooth="yes"/>
      <point x="-356" y="-479"/>
      <point x="-341.272" y="-493.094"/>
      <point x="-326" y="-537" type="curve" smooth="yes"/>
      <point x="-310" y="-583" type="line" smooth="yes"/>
      <point x="-271.146" y="-694.706"/>
      <point x="-187" y="-744"/>
      <point x="-47" y="-744" type="curve" smooth="yes"/>
      <point x="138" y="-744"/>
      <point x="235" y="-643"/>
      <point x="235" y="-457" type="curve" smooth="yes"/>
      <point x="235" y="-372" type="line" smooth="yes"/>
      <point x="235" y="-167"/>
      <point x="143" y="-70"/>
      <point x="-41" y="-70" type="curve" smooth="yes"/>
      <point x="-67" y="-70"/>
      <point x="-87" y="-72"/>
      <point x="-107" y="-75" type="curve"/>
      <point x="-107" y="-261" type="line"/>
      <point x="-98" y="-260"/>
      <point x="-90" y="-260"/>
      <point x="-81" y="-260" type="curve" smooth="yes"/>
      <point x="-19" y="-260"/>
      <point x="11" y="-289"/>
      <point x="11" y="-374" type="curve" smooth="yes"/>
      <point x="11" y="-456" type="line" smooth="yes"/>
      <point x="11" y="-517"/>
      <point x="-8.98975" y="-550.873"/>
      <point x="-57" y="-551" type="curve" smooth="yes"/>
      <point x="-96.0025" y="-551.103"/>
      <point x="-115" y="-533"/>
      <point x="-132" y="-488" type="curve" smooth="yes"/>
      <point x="-149" y="-443" type="line" smooth="yes"/>
      <point x="-186.806" y="-342.926"/>
      <point x="-258" y="-290"/>
    </contour>
  </outline>
</glyph>
<glyph name="SsamatraE.kn" format="2">
  <advance width="1697"/>
  <outline>
    <component base="matraE.kn" xOffset="774"/>
    <contour>
      <point x="414" y="763" type="curve" smooth="yes"/>
      <point x="187" y="763"/>
      <point x="65" y="629"/>
      <point x="65" y="385" type="curve" smooth="yes"/>
      <point x="65" y="361" type="line" smooth="yes"/>
      <point x="65" y="103"/>
      <point x="203" y="-32"/>
      <point x="468" y="-32" type="curve" smooth="yes"/>
      <point x="690" y="-32"/>
      <point x="808" y="61"/>
      <point x="827" y="233" type="curve"/>
      <point x="836" y="233" type="line"/>
      <point x="851" y="61"/>
      <point x="953" y="-32"/>
      <point x="1136" y="-32" type="curve" smooth="yes"/>
      <point x="1277" y="-32"/>
      <point x="1365" y="35"/>
      <point x="1408" y="166" type="curve"/>
      <point x="1418" y="162" type="line"/>
      <point x="1351" y="-156" type="line"/>
      <point x="1717" y="-156" type="line"/>
      <point x="1641" y="237"/>
      <point x="1559" y="631"/>
      <point x="1503" y="807" type="curve"/>
      <point x="1173" y="807" type="line"/>
      <point x="1202" y="673"/>
      <point x="1237" y="499"/>
      <point x="1237" y="419" type="curve" smooth="yes"/>
      <point x="1237" y="327"/>
      <point x="1199" y="281"/>
      <point x="1124" y="281" type="curve" smooth="yes"/>
      <point x="1050" y="281"/>
      <point x="1012" y="325"/>
      <point x="1007" y="413" type="curve" smooth="yes"/>
      <point x="1002" y="499" type="line"/>
      <point x="662" y="499" type="line"/>
      <point x="657" y="414" type="line" smooth="yes"/>
      <point x="652" y="321"/>
      <point x="604" y="274"/>
      <point x="515" y="274" type="curve" smooth="yes"/>
      <point x="440" y="274"/>
      <point x="406" y="307"/>
      <point x="406" y="372" type="curve" smooth="yes"/>
      <point x="406" y="375" type="line" smooth="yes"/>
      <point x="406" y="438"/>
      <point x="436" y="467"/>
      <point x="501" y="467" type="curve" smooth="yes"/>
      <point x="530" y="467"/>
      <point x="559" y="462"/>
      <point x="582" y="453" type="curve"/>
      <point x="565" y="739" type="line"/>
      <point x="522" y="755"/>
      <point x="477" y="763"/>
    </contour>
    <contour>
      <point x="1241" y="922" type="line"/>
      <point x="1241" y="1191" type="line"/>
      <point x="123" y="1191" type="line"/>
      <point x="123" y="922" type="line"/>
    </contour>
    <contour>
      <point x="832" y="965" type="curve" smooth="yes"/>
      <point x="715" y="965"/>
      <point x="653" y="906"/>
      <point x="653" y="791" type="curve" smooth="yes"/>
      <point x="653" y="784" type="line" smooth="yes"/>
      <point x="653" y="670"/>
      <point x="715" y="610"/>
      <point x="832" y="610" type="curve" smooth="yes"/>
      <point x="950" y="610"/>
      <point x="1012" y="669"/>
      <point x="1012" y="783" type="curve" smooth="yes"/>
      <point x="1012" y="790" type="line" smooth="yes"/>
      <point x="1012" y="905"/>
      <point x="950" y="965"/>
    </contour>
  </outline>
  <guideline angle="0" x="0" y="1516"/>
  <guideline angle="90" x="439" y="0"/>
</glyph>
<glyph name="SsamatraI.kn.1" format="2">
  <advance width="1695"/>
  <outline>
    <component base="matraI.kn" xOffset="406" yOffset="3"/>
    <contour>
      <point x="412" y="763" type="curve" smooth="yes"/>
      <point x="185" y="763"/>
      <point x="63" y="629"/>
      <point x="63" y="385" type="curve" smooth="yes"/>
      <point x="63" y="361" type="line" smooth="yes"/>
      <point x="63" y="103"/>
      <point x="201" y="-32"/>
      <point x="466" y="-32" type="curve" smooth="yes"/>
      <point x="688" y="-32"/>
      <point x="806" y="61"/>
      <point x="825" y="233" type="curve"/>
      <point x="834" y="233" type="line"/>
      <point x="849" y="61"/>
      <point x="946" y="-32"/>
      <point x="1123" y="-32" type="curve" smooth="yes"/>
      <point x="1287" y="-32"/>
      <point x="1386" y="57"/>
      <point x="1426" y="241" type="curve"/>
      <point x="1438" y="238" type="line"/>
      <point x="1384" y="-74" type="line"/>
      <point x="1721" y="-74" type="line"/>
      <point x="1633" y="292"/>
      <point x="1556" y="644"/>
      <point x="1499" y="807" type="curve"/>
      <point x="1171" y="807" type="line"/>
      <point x="1200" y="673"/>
      <point x="1235" y="499"/>
      <point x="1235" y="419" type="curve" smooth="yes"/>
      <point x="1235" y="327"/>
      <point x="1197" y="281"/>
      <point x="1122" y="281" type="curve" smooth="yes"/>
      <point x="1048" y="281"/>
      <point x="1010" y="325"/>
      <point x="1005" y="413" type="curve" smooth="yes"/>
      <point x="1000" y="499" type="line"/>
      <point x="660" y="499" type="line"/>
      <point x="655" y="414" type="line" smooth="yes"/>
      <point x="650" y="321"/>
      <point x="602" y="274"/>
      <point x="513" y="274" type="curve" smooth="yes"/>
      <point x="438" y="274"/>
      <point x="404" y="307"/>
      <point x="404" y="372" type="curve" smooth="yes"/>
      <point x="404" y="375" type="line" smooth="yes"/>
      <point x="404" y="438"/>
      <point x="434" y="467"/>
      <point x="499" y="467" type="curve" smooth="yes"/>
      <point x="528" y="467"/>
      <point x="557" y="462"/>
      <point x="580" y="453" type="curve"/>
      <point x="563" y="739" type="line"/>
      <point x="520" y="755"/>
      <point x="475" y="763"/>
    </contour>
  </outline>
  <guideline angle="90" x="381" y="0"/>
</glyph>
<glyph name="Ssasmall1.kn" format="2">
  <outline>
    <contour>
      <point x="241" y="-109" type="curve"/>
      <point x="25" y="-109" type="line"/>
      <point x="54" y="-236"/>
      <point x="77" y="-345"/>
      <point x="77" y="-431" type="curve" smooth="yes"/>
      <point x="77" y="-480"/>
      <point x="59" y="-507"/>
      <point x="20" y="-507" type="curve" smooth="yes"/>
      <point x="-23" y="-507"/>
      <point x="-39.3457" y="-484.033"/>
      <point x="-44" y="-434" type="curve" smooth="yes"/>
      <point x="-48" y="-391" type="line"/>
      <point x="-171" y="-391" type="line"/>
      <point x="-152" y="-564" type="line"/>
      <point x="-138" y="-653"/>
      <point x="-82" y="-699"/>
      <point x="22" y="-699" type="curve" smooth="yes"/>
      <point x="101" y="-699"/>
      <point x="155" y="-666"/>
      <point x="176" y="-596" type="curve"/>
      <point x="182" y="-596" type="line"/>
      <point x="160" y="-823" type="line"/>
      <point x="405" y="-823" type="line"/>
      <point x="356" y="-545"/>
      <point x="309" y="-351"/>
    </contour>
    <contour>
      <point x="-337" y="-507" type="curve" smooth="yes"/>
      <point x="-381" y="-507"/>
      <point x="-401" y="-490"/>
      <point x="-401" y="-450" type="curve" smooth="yes"/>
      <point x="-401" y="-447" type="line" smooth="yes"/>
      <point x="-401" y="-409"/>
      <point x="-383" y="-390"/>
      <point x="-348" y="-390" type="curve" smooth="yes"/>
      <point x="-330" y="-390"/>
      <point x="-317" y="-393"/>
      <point x="-302" y="-399" type="curve"/>
      <point x="-314" y="-222" type="line"/>
      <point x="-334" y="-215"/>
      <point x="-365" y="-207"/>
      <point x="-403" y="-207" type="curve" smooth="yes"/>
      <point x="-545" y="-207"/>
      <point x="-622" y="-287"/>
      <point x="-622" y="-445" type="curve" smooth="yes"/>
      <point x="-622" y="-455" type="line" smooth="yes"/>
      <point x="-622" y="-622"/>
      <point x="-534" y="-699"/>
      <point x="-364" y="-699" type="curve" smooth="yes"/>
      <point x="-240" y="-699"/>
      <point x="-172" y="-651"/>
      <point x="-157" y="-564" type="curve"/>
      <point x="-103" y="-564" type="line"/>
      <point x="-143" y="-391" type="line"/>
      <point x="-260" y="-391" type="line"/>
      <point x="-264" y="-433" type="line" smooth="yes"/>
      <point x="-268.575" y="-481.042"/>
      <point x="-291" y="-507"/>
    </contour>
  </outline>
  <guideline angle="0" x="0" y="-122"/>
  <guideline angle="0" x="0" y="-926"/>
  <guideline angle="0" x="0" y="-777"/>
</glyph>
<glyph name="TaYasmall.kn" format="2">
  <advance width="489"/>
  <outline>
    <contour>
      <point x="-6" y="-580" type="line"/>
      <point x="-133" y="-632"/>
      <point x="-200" y="-674"/>
      <point x="-200" y="-770" type="curve" smooth="yes"/>
      <point x="-200" y="-894"/>
      <point x="-76" y="-968"/>
      <point x="136" y="-968" type="curve" smooth="yes"/>
      <point x="404" y="-968"/>
      <point x="538" y="-850"/>
      <point x="538" y="-617" type="curve" smooth="yes"/>
      <point x="538" y="-613" type="line" smooth="yes"/>
      <point x="538" y="-364"/>
      <point x="374" y="-211"/>
      <point x="374" y="-61" type="curve" smooth="yes"/>
      <point x="374" y="-55" type="line" smooth="yes"/>
      <point x="374" y="-4"/>
      <point x="400" y="23"/>
      <point x="452" y="23" type="curve" smooth="yes"/>
      <point x="476" y="23"/>
      <point x="496" y="19"/>
      <point x="515" y="11" type="curve"/>
      <point x="480" y="203" type="line"/>
      <point x="451" y="212"/>
      <point x="421" y="216"/>
      <point x="386" y="216" type="curve" smooth="yes"/>
      <point x="232" y="216"/>
      <point x="150" y="126"/>
      <point x="150" y="-33" type="curve" smooth="yes"/>
      <point x="150" y="-38" type="line" smooth="yes"/>
      <point x="150" y="-255"/>
      <point x="314" y="-398"/>
      <point x="314" y="-599" type="curve" smooth="yes"/>
      <point x="314" y="-603" type="line" smooth="yes"/>
      <point x="314" y="-720"/>
      <point x="259" y="-774"/>
      <point x="140" y="-774" type="curve" smooth="yes"/>
      <point x="64" y="-774"/>
      <point x="15" y="-750"/>
      <point x="15" y="-709" type="curve" smooth="yes"/>
      <point x="15" y="-669"/>
      <point x="42" y="-650"/>
      <point x="79" y="-609" type="curve"/>
    </contour>
    <contour>
      <point x="-213" y="-711" type="line" smooth="yes"/>
      <point x="25.2997" y="-711"/>
      <point x="140" y="-615.579"/>
      <point x="140" y="-415" type="curve" smooth="yes"/>
      <point x="140" y="-400" type="line" smooth="yes"/>
      <point x="140" y="-201.316"/>
      <point x="28.3533" y="-101"/>
      <point x="-190" y="-101" type="curve" smooth="yes"/>
      <point x="-397.407" y="-101"/>
      <point x="-510" y="-180.355"/>
      <point x="-510" y="-341" type="curve" smooth="yes"/>
      <point x="-510" y="-348" type="line" smooth="yes"/>
      <point x="-510" y="-425.74"/>
      <point x="-475" y="-481.675"/>
      <point x="-404" y="-494" type="curve"/>
      <point x="-404" y="-500" type="line"/>
      <point x="-981" y="-500" type="line"/>
      <point x="-961" y="-711" type="line"/>
    </contour>
    <contour>
      <point x="-187" y="-310" type="curve" smooth="yes"/>
      <point x="-132.714" y="-310"/>
      <point x="-107" y="-338.144"/>
      <point x="-107" y="-401" type="curve" smooth="yes"/>
      <point x="-107" y="-411" type="line" smooth="yes"/>
      <point x="-107" y="-473.898"/>
      <point x="-132.714" y="-503"/>
      <point x="-187" y="-503" type="curve" smooth="yes"/>
      <point x="-241.286" y="-503"/>
      <point x="-267" y="-473.898"/>
      <point x="-267" y="-411" type="curve" smooth="yes"/>
      <point x="-267" y="-401" type="line" smooth="yes"/>
      <point x="-267" y="-338.144"/>
      <point x="-241.286" y="-310"/>
    </contour>
  </outline>
  <guideline angle="0" x="0" y="-407"/>
  <guideline angle="0" x="0" y="-394"/>
</glyph>
<glyph name="TamatraI.kn" format="2">
  <advance width="1184"/>
  <outline>
    <contour>
      <point x="543" y="1466" type="curve" smooth="yes"/>
      <point x="239" y="1466"/>
      <point x="78" y="1346"/>
      <point x="78" y="1126" type="curve" smooth="yes"/>
      <point x="78" y="1117" type="line" smooth="yes"/>
      <point x="78" y="938"/>
      <point x="194" y="844"/>
      <point x="433" y="844" type="curve" smooth="yes"/>
      <point x="629" y="844"/>
      <point x="735" y="918"/>
      <point x="735" y="1058" type="curve" smooth="yes"/>
      <point x="735" y="1061" type="line" smooth="yes"/>
      <point x="735" y="1147"/>
      <point x="698" y="1185"/>
      <point x="623" y="1208" type="curve"/>
      <point x="630" y="1239" type="line"/>
      <point x="396" y="1221" type="line"/>
      <point x="473" y="1208"/>
      <point x="499" y="1177"/>
      <point x="499" y="1124" type="curve" smooth="yes"/>
      <point x="499" y="1122" type="line" smooth="yes"/>
      <point x="499" y="1078"/>
      <point x="477" y="1053"/>
      <point x="429" y="1053" type="curve" smooth="yes"/>
      <point x="384" y="1053"/>
      <point x="356" y="1077"/>
      <point x="356" y="1123" type="curve"/>
      <point x="356" y="1124" type="line"/>
      <point x="356" y="1193"/>
      <point x="405" y="1223"/>
      <point x="532" y="1223" type="curve" smooth="yes"/>
      <point x="719" y="1223"/>
      <point x="801" y="1159"/>
      <point x="801" y="1004" type="curve" smooth="yes"/>
      <point x="801" y="1000" type="line" smooth="yes"/>
      <point x="801" y="837"/>
      <point x="723" y="757"/>
      <point x="529" y="752" type="curve" smooth="yes"/>
      <point x="293" y="747" type="line"/>
      <point x="293" y="485" type="line"/>
      <point x="629" y="479" type="line" smooth="yes"/>
      <point x="734" y="477"/>
      <point x="775" y="447"/>
      <point x="775" y="379" type="curve" smooth="yes"/>
      <point x="775" y="373" type="line" smooth="yes"/>
      <point x="775" y="297"/>
      <point x="703" y="260"/>
      <point x="563" y="260" type="curve" smooth="yes"/>
      <point x="379" y="260"/>
      <point x="215" y="302"/>
      <point x="47" y="391" type="curve"/>
      <point x="67" y="81" type="line"/>
      <point x="202" y="4"/>
      <point x="399" y="-37"/>
      <point x="583" y="-37" type="curve" smooth="yes"/>
      <point x="945" y="-37"/>
      <point x="1121" y="87"/>
      <point x="1121" y="341" type="curve" smooth="yes"/>
      <point x="1121" y="350" type="line" smooth="yes"/>
      <point x="1121" y="519"/>
      <point x="1036" y="613"/>
      <point x="874" y="626" type="curve"/>
      <point x="874" y="634" type="line"/>
      <point x="1022" y="655"/>
      <point x="1110" y="777"/>
      <point x="1110" y="978" type="curve" smooth="yes"/>
      <point x="1110" y="987" type="line" smooth="yes"/>
      <point x="1110" y="1299"/>
      <point x="917" y="1466"/>
    </contour>
  </outline>
  <guideline angle="90" x="40" y="0"/>
  <guideline angle="0" x="0" y="1309"/>
</glyph>
<glyph name="TamatraUu.kn" format="2">
  <advance width="2679"/>
  <outline>
    <component base="Ta.kn"/>
    <contour>
      <point x="1225" y="271" type="curve" smooth="yes"/>
      <point x="1160" y="271"/>
      <point x="1127" y="306"/>
      <point x="1119" y="376" type="curve"/>
      <point x="1119" y="376"/>
      <point x="1119" y="377"/>
      <point x="1119" y="377" type="curve"/>
      <point x="1011" y="378" type="line"/>
      <point x="1011" y="308" type="line" smooth="yes"/>
      <point x="1011" y="87"/>
      <point x="1127" y="-35"/>
      <point x="1333" y="-35" type="curve" smooth="yes"/>
      <point x="1562" y="-35"/>
      <point x="1668" y="113"/>
      <point x="1668" y="400" type="curve" smooth="yes"/>
      <point x="1668" y="548" type="line"/>
      <point x="1330" y="548" type="line"/>
      <point x="1330" y="422" type="line" smooth="yes"/>
      <point x="1330" y="317"/>
      <point x="1301" y="271"/>
    </contour>
    <contour>
      <point x="1965" y="1228" type="curve" smooth="yes"/>
      <point x="1541" y="1228"/>
      <point x="1330" y="1015"/>
      <point x="1330" y="604" type="curve" smooth="yes"/>
      <point x="1330" y="533" type="line"/>
      <point x="1668" y="533" type="line"/>
      <point x="1668" y="599" type="line" smooth="yes"/>
      <point x="1668" y="821"/>
      <point x="1756" y="933"/>
      <point x="1966" y="933" type="curve" smooth="yes"/>
      <point x="2175" y="933"/>
      <point x="2262" y="817"/>
      <point x="2262" y="599" type="curve" smooth="yes"/>
      <point x="2262" y="502" type="line"/>
      <point x="2602" y="524" type="line"/>
      <point x="2602" y="595" type="line" smooth="yes"/>
      <point x="2602" y="1011"/>
      <point x="2389" y="1228"/>
    </contour>
    <contour>
      <point x="2602" y="529" type="line"/>
      <point x="2265" y="509" type="line"/>
      <point x="2265" y="393" type="line" smooth="yes"/>
      <point x="2265" y="294"/>
      <point x="2247" y="246"/>
      <point x="2178" y="246" type="curve" smooth="yes"/>
      <point x="2118" y="246"/>
      <point x="2092" y="280"/>
      <point x="2092" y="353" type="curve" smooth="yes"/>
      <point x="2092" y="375" type="line" smooth="yes"/>
      <point x="2092" y="450"/>
      <point x="2114" y="487"/>
      <point x="2178" y="487" type="curve" smooth="yes"/>
      <point x="2229" y="487"/>
      <point x="2269" y="456"/>
      <point x="2295" y="393" type="curve"/>
      <point x="2308" y="566" type="line"/>
      <point x="2253" y="566" type="line"/>
      <point x="2229" y="682"/>
      <point x="2157" y="742"/>
      <point x="2038" y="742" type="curve" smooth="yes"/>
      <point x="1850" y="742"/>
      <point x="1768" y="615"/>
      <point x="1768" y="382" type="curve" smooth="yes"/>
      <point x="1768" y="352" type="line" smooth="yes"/>
      <point x="1768" y="100"/>
      <point x="1898" y="-32"/>
      <point x="2177" y="-32" type="curve" smooth="yes"/>
      <point x="2468" y="-32"/>
      <point x="2602" y="126"/>
      <point x="2602" y="431" type="curve" smooth="yes"/>
    </contour>
  </outline>
</glyph>
<glyph name="Tasmall1.kn" format="2">
  <outline>
    <contour>
      <point x="-235" y="-727" type="line" smooth="yes"/>
      <point x="3.29971" y="-727"/>
      <point x="118" y="-629"/>
      <point x="118" y="-423" type="curve" smooth="yes"/>
      <point x="118" y="-408" type="line" smooth="yes"/>
      <point x="118" y="-204"/>
      <point x="6.35329" y="-101"/>
      <point x="-212" y="-101" type="curve" smooth="yes"/>
      <point x="-419.407" y="-101"/>
      <point x="-532" y="-183"/>
      <point x="-532" y="-349" type="curve" smooth="yes"/>
      <point x="-532" y="-356" type="line" smooth="yes"/>
      <point x="-532" y="-438"/>
      <point x="-497" y="-497"/>
      <point x="-426" y="-510" type="curve"/>
      <point x="-426" y="-516" type="line"/>
      <point x="-981" y="-516" type="line"/>
      <point x="-961" y="-727" type="line"/>
    </contour>
    <contour>
      <point x="-209" y="-310" type="curve" smooth="yes"/>
      <point x="-154.714" y="-310"/>
      <point x="-129" y="-340"/>
      <point x="-129" y="-407" type="curve" smooth="yes"/>
      <point x="-129" y="-421" type="line" smooth="yes"/>
      <point x="-129" y="-488"/>
      <point x="-154.714" y="-519"/>
      <point x="-209" y="-519" type="curve" smooth="yes"/>
      <point x="-263.286" y="-519"/>
      <point x="-289" y="-488"/>
      <point x="-289" y="-421" type="curve" smooth="yes"/>
      <point x="-289" y="-407" type="line" smooth="yes"/>
      <point x="-289" y="-340"/>
      <point x="-263.286" y="-310"/>
    </contour>
  </outline>
  <guideline angle="0" x="0" y="-394"/>
  <guideline angle="0" x="0" y="0"/>
</glyph>
<glyph name="Tasmall2.kn" format="2">
  <advance width="715"/>
  <outline>
    <contour>
      <point x="985" y="-729" type="line" smooth="yes"/>
      <point x="1192" y="-729"/>
      <point x="1300" y="-643"/>
      <point x="1300" y="-461" type="curve" smooth="yes"/>
      <point x="1300" y="-446" type="line" smooth="yes"/>
      <point x="1300" y="-271"/>
      <point x="1197" y="-182"/>
      <point x="1006" y="-182" type="curve" smooth="yes"/>
      <point x="821" y="-182"/>
      <point x="719" y="-256"/>
      <point x="719" y="-398" type="curve" smooth="yes"/>
      <point x="719" y="-406" type="line" smooth="yes"/>
      <point x="719" y="-477"/>
      <point x="751" y="-527"/>
      <point x="813" y="-538" type="curve"/>
      <point x="813" y="-543" type="line"/>
      <point x="383" y="-543" type="line"/>
      <point x="405" y="-729" type="line"/>
    </contour>
    <contour>
      <point x="1008" y="-366" type="curve" smooth="yes"/>
      <point x="1058" y="-366"/>
      <point x="1082" y="-393"/>
      <point x="1082" y="-451" type="curve" smooth="yes"/>
      <point x="1082" y="-459" type="line" smooth="yes"/>
      <point x="1082" y="-518"/>
      <point x="1058" y="-546"/>
      <point x="1008" y="-546" type="curve" smooth="yes"/>
      <point x="958" y="-546"/>
      <point x="934" y="-518"/>
      <point x="934" y="-459" type="curve" smooth="yes"/>
      <point x="934" y="-451" type="line" smooth="yes"/>
      <point x="934" y="-393"/>
      <point x="958" y="-366"/>
    </contour>
  </outline>
  <guideline angle="0" x="0" y="-387"/>
</glyph>
<glyph name="ThamatraAa.kn" format="2">
  <advance width="2572"/>
  <outline>
    <component base="matraAa.kn" xOffset="1114"/>
    <contour>
      <point x="807" y="520" type="curve" smooth="yes"/>
      <point x="921" y="520"/>
      <point x="980" y="575"/>
      <point x="980" y="681" type="curve" smooth="yes"/>
      <point x="980" y="689" type="line" smooth="yes"/>
      <point x="980" y="794"/>
      <point x="920" y="849"/>
      <point x="806" y="849" type="curve" smooth="yes"/>
      <point x="694" y="849"/>
      <point x="635" y="794"/>
      <point x="635" y="689" type="curve" smooth="yes"/>
      <point x="635" y="681" type="line" smooth="yes"/>
      <point x="635" y="576"/>
      <point x="695" y="520"/>
    </contour>
    <contour>
      <point x="1197" y="922" type="line"/>
      <point x="1197" y="1191" type="line"/>
      <point x="78" y="1191" type="line"/>
      <point x="78" y="922" type="line"/>
    </contour>
    <contour>
      <point x="428" y="532" type="line" smooth="yes"/>
      <point x="428" y="801"/>
      <point x="536" y="922"/>
      <point x="792" y="922" type="curve"/>
      <point x="792" y="949" type="line"/>
      <point x="352" y="949" type="line"/>
      <point x="352" y="914" type="line"/>
      <point x="168" y="878"/>
      <point x="78" y="743"/>
      <point x="78" y="493" type="curve" smooth="yes"/>
      <point x="78" y="410" type="line" smooth="yes"/>
      <point x="78" y="117"/>
      <point x="210" y="-32"/>
      <point x="469" y="-32" type="curve" smooth="yes"/>
      <point x="674" y="-32"/>
      <point x="785" y="58"/>
      <point x="803" y="225" type="curve"/>
      <point x="812" y="225" type="line"/>
      <point x="831" y="58"/>
      <point x="941" y="-32"/>
      <point x="1145" y="-32" type="curve" smooth="yes"/>
      <point x="1405" y="-32"/>
      <point x="1537" y="117"/>
      <point x="1537" y="410" type="curve" smooth="yes"/>
      <point x="1537" y="493" type="line" smooth="yes"/>
      <point x="1537" y="743"/>
      <point x="1447" y="878"/>
      <point x="1262" y="914" type="curve"/>
      <point x="1262" y="949" type="line"/>
      <point x="822" y="949" type="line"/>
      <point x="822" y="922" type="line"/>
      <point x="1079" y="922"/>
      <point x="1187" y="801"/>
      <point x="1187" y="532" type="curve" smooth="yes"/>
      <point x="1187" y="438" type="line" smooth="yes"/>
      <point x="1187" y="332"/>
      <point x="1157" y="281"/>
      <point x="1083" y="281" type="curve" smooth="yes"/>
      <point x="1016" y="281"/>
      <point x="988" y="323"/>
      <point x="983" y="407" type="curve" smooth="yes"/>
      <point x="979" y="462" type="line"/>
      <point x="635" y="462" type="line"/>
      <point x="632" y="407" type="line" smooth="yes"/>
      <point x="627" y="323"/>
      <point x="599" y="281"/>
      <point x="531" y="281" type="curve" smooth="yes"/>
      <point x="457" y="281"/>
      <point x="428" y="332"/>
      <point x="428" y="438" type="curve" smooth="yes"/>
    </contour>
    <contour>
      <point x="807" y="-443" type="curve" smooth="yes"/>
      <point x="926.978" y="-443"/>
      <point x="989" y="-384"/>
      <point x="989" y="-267" type="curve" smooth="yes"/>
      <point x="989" y="-261" type="line" smooth="yes"/>
      <point x="989" y="-150.723"/>
      <point x="926.978" y="-48.3941"/>
      <point x="807" y="44" type="curve"/>
      <point x="688.028" y="-48.3941"/>
      <point x="626" y="-150.723"/>
      <point x="626" y="-261" type="curve" smooth="yes"/>
      <point x="626" y="-267" type="line" smooth="yes"/>
      <point x="626" y="-384"/>
      <point x="687.011" y="-443"/>
    </contour>
    <contour>
      <point x="1347" y="922" type="line"/>
      <point x="1347" y="1191" type="line"/>
      <point x="928" y="1191" type="line"/>
      <point x="928" y="922" type="line"/>
    </contour>
  </outline>
  <guideline angle="90" x="728" y="0"/>
  <guideline angle="90" x="419" y="0"/>
  <guideline angle="0" x="0" y="-274"/>
  <guideline angle="90" x="728" y="0"/>
  <guideline angle="90" x="110" y="0"/>
</glyph>
<glyph name="TtamatraI.kn" format="2">
  <advance width="1637"/>
  <outline>
    <contour>
      <point x="1168" y="1433" type="curve" smooth="yes"/>
      <point x="929" y="1433"/>
      <point x="805" y="1324"/>
      <point x="805" y="1115" type="curve" smooth="yes"/>
      <point x="805" y="1111" type="line" smooth="yes"/>
      <point x="805" y="939"/>
      <point x="898" y="845"/>
      <point x="1064" y="845" type="curve" smooth="yes"/>
      <point x="1172" y="845"/>
      <point x="1239" y="889"/>
      <point x="1262" y="968" type="curve"/>
      <point x="1299" y="968" type="line"/>
      <point x="1287" y="1119" type="line"/>
      <point x="1263" y="1068"/>
      <point x="1225" y="1043"/>
      <point x="1176" y="1043" type="curve" smooth="yes"/>
      <point x="1121" y="1043"/>
      <point x="1094" y="1067"/>
      <point x="1094" y="1115" type="curve" smooth="yes"/>
      <point x="1094" y="1118" type="line" smooth="yes"/>
      <point x="1094" y="1166"/>
      <point x="1122" y="1191"/>
      <point x="1177" y="1191" type="curve" smooth="yes"/>
      <point x="1243" y="1191"/>
      <point x="1272" y="1151"/>
      <point x="1272" y="1071" type="curve" smooth="yes"/>
      <point x="1272" y="969" type="line" smooth="yes"/>
      <point x="1272" y="825"/>
      <point x="1219" y="769"/>
      <point x="1087" y="766" type="curve" smooth="yes"/>
      <point x="992" y="764" type="line"/>
      <point x="992" y="511" type="line"/>
      <point x="1100" y="508" type="line" smooth="yes"/>
      <point x="1193" y="506"/>
      <point x="1229" y="472"/>
      <point x="1229" y="391" type="curve" smooth="yes"/>
      <point x="1229" y="383" type="line" smooth="yes"/>
      <point x="1229" y="311"/>
      <point x="1192" y="276"/>
      <point x="1114" y="276" type="curve" smooth="yes"/>
      <point x="1030" y="276"/>
      <point x="1000" y="321"/>
      <point x="993" y="410" type="curve" smooth="yes"/>
      <point x="989" y="466" type="line"/>
      <point x="799" y="466" type="line"/>
      <point x="822" y="222" type="line"/>
      <point x="842" y="60"/>
      <point x="957" y="-32"/>
      <point x="1165" y="-32" type="curve" smooth="yes"/>
      <point x="1434" y="-32"/>
      <point x="1569" y="89"/>
      <point x="1569" y="332" type="curve" smooth="yes"/>
      <point x="1569" y="344" type="line" smooth="yes"/>
      <point x="1569" y="511"/>
      <point x="1492" y="608"/>
      <point x="1344" y="626" type="curve"/>
      <point x="1344" y="635" type="line"/>
      <point x="1490" y="658"/>
      <point x="1566" y="771.99"/>
      <point x="1566" y="977" type="curve" smooth="yes"/>
      <point x="1566" y="1042" type="line" smooth="yes"/>
      <point x="1566" y="1300.01"/>
      <point x="1426" y="1433"/>
    </contour>
    <contour>
      <point x="479" y="1229" type="curve" smooth="yes"/>
      <point x="208" y="1229"/>
      <point x="70" y="1122"/>
      <point x="70" y="907" type="curve" smooth="yes"/>
      <point x="70" y="897" type="line" smooth="yes"/>
      <point x="70" y="740"/>
      <point x="145" y="652"/>
      <point x="291" y="635" type="curve"/>
      <point x="291" y="626" type="line"/>
      <point x="143" y="608"/>
      <point x="66" y="511"/>
      <point x="66" y="344" type="curve" smooth="yes"/>
      <point x="66" y="332" type="line" smooth="yes"/>
      <point x="66" y="89"/>
      <point x="202" y="-32"/>
      <point x="470" y="-32" type="curve" smooth="yes"/>
      <point x="679" y="-32"/>
      <point x="794" y="60"/>
      <point x="813" y="222" type="curve"/>
      <point x="915" y="221" type="line"/>
      <point x="847" y="466" type="line"/>
      <point x="647" y="466" type="line"/>
      <point x="642" y="410" type="line" smooth="yes"/>
      <point x="635" y="321"/>
      <point x="604" y="276"/>
      <point x="520" y="276" type="curve" smooth="yes"/>
      <point x="442" y="276"/>
      <point x="406" y="310"/>
      <point x="406" y="382" type="curve" smooth="yes"/>
      <point x="406" y="391" type="line" smooth="yes"/>
      <point x="406" y="472"/>
      <point x="442" y="506"/>
      <point x="535" y="508" type="curve" smooth="yes"/>
      <point x="643" y="511" type="line"/>
      <point x="643" y="764" type="line"/>
      <point x="538" y="767" type="line" smooth="yes"/>
      <point x="449" y="769"/>
      <point x="411" y="791"/>
      <point x="411" y="853" type="curve" smooth="yes"/>
      <point x="411" y="857" type="line" smooth="yes"/>
      <point x="411" y="918"/>
      <point x="453" y="943"/>
      <point x="539" y="943" type="curve" smooth="yes"/>
      <point x="606" y="943"/>
      <point x="669" y="935"/>
      <point x="721" y="920" type="curve"/>
      <point x="689" y="1203" type="line"/>
      <point x="613" y="1222"/>
      <point x="546" y="1229"/>
    </contour>
  </outline>
</glyph>
<glyph name="TtamatraO.kn" format="2">
  <advance width="3119"/>
  <outline>
    <component base="TtamatraE.kn"/>
    <contour>
      <point x="1665" y="271" type="curve" smooth="yes"/>
      <point x="1600" y="271"/>
      <point x="1567" y="306"/>
      <point x="1559" y="376" type="curve"/>
      <point x="1559" y="376"/>
      <point x="1559" y="377"/>
      <point x="1559" y="377" type="curve"/>
      <point x="1451" y="378" type="line"/>
      <point x="1451" y="308" type="line" smooth="yes"/>
      <point x="1451" y="87"/>
      <point x="1567" y="-35"/>
      <point x="1773" y="-35" type="curve" smooth="yes"/>
      <point x="2002" y="-35"/>
      <point x="2108" y="113"/>
      <point x="2108" y="400" type="curve" smooth="yes"/>
      <point x="2108" y="548" type="line"/>
      <point x="1770" y="548" type="line"/>
      <point x="1770" y="422" type="line" smooth="yes"/>
      <point x="1770" y="317"/>
      <point x="1741" y="271"/>
    </contour>
    <contour>
      <point x="2405" y="1228" type="curve" smooth="yes"/>
      <point x="1981" y="1228"/>
      <point x="1770" y="1015"/>
      <point x="1770" y="604" type="curve" smooth="yes"/>
      <point x="1770" y="533" type="line"/>
      <point x="2108" y="533" type="line"/>
      <point x="2108" y="599" type="line" smooth="yes"/>
      <point x="2108" y="821"/>
      <point x="2196" y="933"/>
      <point x="2406" y="933" type="curve" smooth="yes"/>
      <point x="2615" y="933"/>
      <point x="2702" y="817"/>
      <point x="2702" y="599" type="curve" smooth="yes"/>
      <point x="2702" y="502" type="line"/>
      <point x="3042" y="524" type="line"/>
      <point x="3042" y="595" type="line" smooth="yes"/>
      <point x="3042" y="1011"/>
      <point x="2829" y="1228"/>
    </contour>
    <contour>
      <point x="3042" y="529" type="line"/>
      <point x="2705" y="509" type="line"/>
      <point x="2705" y="393" type="line" smooth="yes"/>
      <point x="2705" y="294"/>
      <point x="2687" y="246"/>
      <point x="2618" y="246" type="curve" smooth="yes"/>
      <point x="2558" y="246"/>
      <point x="2532" y="280"/>
      <point x="2532" y="353" type="curve" smooth="yes"/>
      <point x="2532" y="375" type="line" smooth="yes"/>
      <point x="2532" y="450"/>
      <point x="2554" y="487"/>
      <point x="2618" y="487" type="curve" smooth="yes"/>
      <point x="2669" y="487"/>
      <point x="2709" y="456"/>
      <point x="2735" y="393" type="curve"/>
      <point x="2748" y="566" type="line"/>
      <point x="2693" y="566" type="line"/>
      <point x="2669" y="682"/>
      <point x="2597" y="742"/>
      <point x="2478" y="742" type="curve" smooth="yes"/>
      <point x="2290" y="742"/>
      <point x="2208" y="615"/>
      <point x="2208" y="382" type="curve" smooth="yes"/>
      <point x="2208" y="352" type="line" smooth="yes"/>
      <point x="2208" y="100"/>
      <point x="2338" y="-32"/>
      <point x="2617" y="-32" type="curve" smooth="yes"/>
      <point x="2908" y="-32"/>
      <point x="3042" y="126"/>
      <point x="3042" y="431" type="curve" smooth="yes"/>
    </contour>
  </outline>
</glyph>
<glyph name="TtamatraU.kn" format="2">
  <advance width="2324"/>
  <outline>
    <component base="Tta.kn"/>
    <contour>
      <point x="1816" y="1203" type="curve" smooth="yes"/>
      <point x="1774" y="1203"/>
      <point x="1736" y="1201"/>
      <point x="1699" y="1195" type="curve"/>
      <point x="1699" y="886" type="line"/>
      <point x="1715" y="889"/>
      <point x="1731" y="890"/>
      <point x="1747" y="890" type="curve" smooth="yes"/>
      <point x="1850" y="890"/>
      <point x="1894" y="828"/>
      <point x="1894" y="683" type="curve" smooth="yes"/>
      <point x="1894" y="502" type="line" smooth="yes"/>
      <point x="1894" y="352"/>
      <point x="1847" y="276"/>
      <point x="1720" y="276" type="curve" smooth="yes"/>
      <point x="1621" y="276"/>
      <point x="1572" y="328"/>
      <point x="1558" y="414" type="curve"/>
      <point x="1558" y="415" type="line"/>
      <point x="1447" y="415" type="line"/>
      <point x="1447" y="383" type="line" smooth="yes"/>
      <point x="1447" y="117"/>
      <point x="1571" y="-32"/>
      <point x="1820" y="-32" type="curve" smooth="yes"/>
      <point x="2109" y="-32"/>
      <point x="2244" y="146"/>
      <point x="2244" y="490" type="curve" smooth="yes"/>
      <point x="2244" y="684" type="line" smooth="yes"/>
      <point x="2244" y="1029"/>
      <point x="2105" y="1203"/>
    </contour>
  </outline>
  <guideline angle="90" x="837" y="0"/>
  <guideline angle="90" x="765" y="0"/>
  <guideline angle="90" x="1219" y="0"/>
</glyph>
<glyph name="TthamatraU.kn" format="2">
  <advance width="2067"/>
  <outline>
    <component base="Ttha.kn"/>
    <component base="matraU.kn" xOffset="1389"/>
    <contour>
      <point x="1196" y="433" type="line"/>
      <point x="1304" y="434" type="line"/>
      <point x="1304" y="486" type="line"/>
      <point x="1196" y="486" type="line"/>
    </contour>
  </outline>
</glyph>
<glyph name="TthamatraUu.kn" format="2">
  <advance width="2847"/>
  <outline>
    <component base="Ttha.kn"/>
    <component base="matraUu.kn" xOffset="1393"/>
    <contour>
      <point x="1207" y="403" type="line"/>
      <point x="1304" y="404" type="line"/>
      <point x="1304" y="471" type="line"/>
      <point x="1207" y="471" type="line"/>
    </contour>
  </outline>
</glyph>
<glyph name="Tthasmall1.kn" format="2">
  <outline>
    <contour>
      <point x="-231" y="-94" type="curve" smooth="yes"/>
      <point x="-476" y="-94"/>
      <point x="-602" y="-207"/>
      <point x="-602" y="-433" type="curve" smooth="yes"/>
      <point x="-602" y="-446" type="line" smooth="yes"/>
      <point x="-602" y="-671"/>
      <point x="-476" y="-785"/>
      <point x="-231" y="-785" type="curve" smooth="yes"/>
      <point x="14" y="-785"/>
      <point x="140" y="-670"/>
      <point x="140" y="-445" type="curve" smooth="yes"/>
      <point x="140" y="-433" type="line" smooth="yes"/>
      <point x="140" y="-207"/>
      <point x="14" y="-94"/>
    </contour>
    <contour>
      <point x="-231" y="-276" type="curve" smooth="yes"/>
      <point x="-121" y="-276"/>
      <point x="-71" y="-330"/>
      <point x="-71" y="-435" type="curve" smooth="yes"/>
      <point x="-71" y="-443" type="line" smooth="yes"/>
      <point x="-71" y="-549"/>
      <point x="-121" y="-602"/>
      <point x="-231" y="-602" type="curve" smooth="yes"/>
      <point x="-341" y="-602"/>
      <point x="-391" y="-549"/>
      <point x="-391" y="-443" type="curve" smooth="yes"/>
      <point x="-391" y="-435" type="line" smooth="yes"/>
      <point x="-391" y="-330"/>
      <point x="-341" y="-276"/>
    </contour>
    <contour>
      <point x="-231" y="-336" type="curve" smooth="yes"/>
      <point x="-300" y="-336"/>
      <point x="-333" y="-369"/>
      <point x="-333" y="-433" type="curve" smooth="yes"/>
      <point x="-333" y="-442" type="line" smooth="yes"/>
      <point x="-333" y="-508"/>
      <point x="-300" y="-540"/>
      <point x="-231" y="-540" type="curve" smooth="yes"/>
      <point x="-162" y="-540"/>
      <point x="-129" y="-508"/>
      <point x="-129" y="-442" type="curve" smooth="yes"/>
      <point x="-129" y="-433" type="line" smooth="yes"/>
      <point x="-129" y="-369"/>
      <point x="-162" y="-336"/>
    </contour>
  </outline>
</glyph>
<glyph name="VamatraU.kn" format="2">
  <advance width="2264"/>
  <outline>
    <component base="Va.kn"/>
    <contour>
      <point x="1731" y="1116" type="curve" smooth="yes"/>
      <point x="1696" y="1116"/>
      <point x="1664" y="1115"/>
      <point x="1633" y="1112" type="curve"/>
      <point x="1633" y="801" type="line"/>
      <point x="1642" y="802"/>
      <point x="1658" y="803"/>
      <point x="1671" y="803" type="curve" smooth="yes"/>
      <point x="1784" y="803"/>
      <point x="1834" y="729"/>
      <point x="1834" y="556" type="curve" smooth="yes"/>
      <point x="1834" y="331" type="line" smooth="yes"/>
      <point x="1834" y="23"/>
      <point x="1677" y="-127"/>
      <point x="1369" y="-127" type="curve" smooth="yes"/>
      <point x="1137" y="-127"/>
      <point x="960" y="-60"/>
      <point x="831" y="38" type="curve"/>
      <point x="819" y="35" type="line"/>
      <point x="880" y="-277" type="line"/>
      <point x="1002" y="-361"/>
      <point x="1177" y="-421"/>
      <point x="1426" y="-421" type="curve" smooth="yes"/>
      <point x="1918" y="-421"/>
      <point x="2184" y="-173"/>
      <point x="2184" y="312" type="curve" smooth="yes"/>
      <point x="2184" y="557" type="line" smooth="yes"/>
      <point x="2184" y="928"/>
      <point x="2036" y="1116"/>
    </contour>
  </outline>
  <guideline angle="0" x="0" y="-274"/>
  <guideline angle="90" x="-1116" y="0"/>
  <guideline angle="90" x="437" y="0"/>
  <guideline angle="90" x="-751" y="0"/>
</glyph>
<glyph name="YamatraI.kn.1" format="2">
  <advance width="2674"/>
  <outline>
    <component base="matraU.kn" xOffset="1996"/>
    <contour>
      <point x="1213" y="683" type="line" smooth="yes"/>
      <point x="1213" y="1051"/>
      <point x="1018" y="1239"/>
      <point x="646" y="1239" type="curve" smooth="yes"/>
      <point x="275" y="1239"/>
      <point x="78" y="1051"/>
      <point x="78" y="683" type="curve" smooth="yes"/>
      <point x="78" y="524" type="line" smooth="yes"/>
      <point x="78" y="155"/>
      <point x="276" y="-34"/>
      <point x="646" y="-34" type="curve" smooth="yes"/>
      <point x="1016" y="-34"/>
      <point x="1213" y="156"/>
      <point x="1213" y="529" type="curve" smooth="yes"/>
    </contour>
    <contour>
      <point x="646" y="272" type="curve" smooth="yes"/>
      <point x="502" y="272"/>
      <point x="427" y="358"/>
      <point x="427" y="525" type="curve" smooth="yes"/>
      <point x="427" y="680" type="line" smooth="yes"/>
      <point x="427" y="847"/>
      <point x="502" y="934"/>
      <point x="646" y="934" type="curve" smooth="yes"/>
      <point x="791" y="934"/>
      <point x="864" y="847"/>
      <point x="864" y="680" type="curve" smooth="yes"/>
      <point x="864" y="525" type="line" smooth="yes"/>
      <point x="864" y="358"/>
      <point x="791" y="272"/>
    </contour>
    <contour>
      <point x="1562" y="508" type="line" smooth="yes"/>
      <point x="1562" y="354"/>
      <point x="1513" y="276"/>
      <point x="1382" y="276" type="curve" smooth="yes"/>
      <point x="1261" y="276"/>
      <point x="1212" y="347.964"/>
      <point x="1212" y="473" type="curve" smooth="yes"/>
      <point x="1212" y="535" type="line"/>
      <point x="1091" y="535" type="line"/>
      <point x="1091" y="369" type="line" smooth="yes"/>
      <point x="1091" y="110"/>
      <point x="1218" y="-32"/>
      <point x="1473" y="-32" type="curve" smooth="yes"/>
      <point x="1772" y="-32"/>
      <point x="1912" y="147"/>
      <point x="1912" y="495" type="curve" smooth="yes"/>
      <point x="1911.92" y="788" type="line" smooth="yes"/>
      <point x="1911.83" y="1100.79"/>
      <point x="1908.76" y="1476"/>
      <point x="1461.92" y="1476" type="curve" smooth="yes"/>
      <point x="1205.92" y="1476"/>
      <point x="1074.92" y="1357"/>
      <point x="1074.92" y="1131" type="curve" smooth="yes"/>
      <point x="1074.92" y="1126" type="line" smooth="yes"/>
      <point x="1074.92" y="930"/>
      <point x="1180.79" y="823"/>
      <point x="1370.92" y="823" type="curve" smooth="yes"/>
      <point x="1487.12" y="823"/>
      <point x="1570.29" y="876.962"/>
      <point x="1590.92" y="991" type="curve"/>
      <point x="1562.92" y="1126" type="line"/>
      <point x="1540.92" y="1072"/>
      <point x="1504.92" y="1049"/>
      <point x="1457.92" y="1049" type="curve" smooth="yes"/>
      <point x="1401.92" y="1049"/>
      <point x="1374.92" y="1075"/>
      <point x="1374.92" y="1126" type="curve" smooth="yes"/>
      <point x="1374.92" y="1132" type="line" smooth="yes"/>
      <point x="1374.92" y="1189"/>
      <point x="1402.92" y="1216"/>
      <point x="1456.92" y="1216" type="curve" smooth="yes"/>
      <point x="1561.73" y="1216"/>
      <point x="1561.89" y="1123.92"/>
      <point x="1561.92" y="953" type="curve" smooth="yes"/>
    </contour>
  </outline>
  <guideline angle="90" x="361" y="0"/>
  <guideline angle="90" x="1001" y="0"/>
  <guideline angle="90" x="929" y="0"/>
  <guideline angle="90" x="1383" y="0"/>
</glyph>
